<svg xmlns="http://www.w3.org/2000/svg" version="1.1" x="0px" y="0px" style="enable-background:new 0 0 595.28 841.89;" viewBox="114.02 282.25 403.01 319.98"> <style type="text/css"> .st0{fill:#4D3113;} .st1{fill:#1D1D1B;} .st2{fill:none;} .st3{fill:#594233;} .st4{fill:#23180E;} .st5{fill:#241911;} .st6{fill:#826651;stroke:#1D1D1B;stroke-miterlimit:10;} .st7{fill:#826651;} .st8{fill:#1D1D1B;stroke:#1D1D1B;stroke-miterlimit:10;} .st9{stroke:#1D1D1B;stroke-miterlimit:10;} .st10{fill:#FFFFFF;stroke:#FFFFFF;stroke-miterlimit:10;} </style> <g id="Wildschwein"> <g> <path class="st0" d="M192.55,601.71h-44.43c0,0-2.01-27.54-8.04-28.55c0,0-2.21-0.2-3.22,3.62c-1.01,3.82,0-5.43,0-5.43 s1.64-12.59,1.52-13.99c-0.12-1.4-0.12-25.3-1.05-26.7c-0.93-1.4-3.61-7.7,0.47-14.23c4.08-6.53,12.84-13.71,15.25-17.73 c2.41-4.01,4.1-20.09,4.1-20.09l-7.58,11.25l-0.85-38.59c0,0-2.74-5.16-2.74-6.97c0-1.81,1.67-35.28,2.92-36.39 c1.25-1.11-5.83,7.36-7.36,15.42c-1.53,8.06-5.28,42.23-5.28,42.23l-0.66,8.06c0,0,1.49,21.53,1.21,22.92 c-0.28,1.39-0.79,0.01-0.79,0.01l0.04,1.59c0,0,0.13,4.49-0.13,4.94s-1.12-0.19-1.12-0.19s0.31,3.68,0,4.71s-0.72,1.64-0.72,1.64 l-0.61-1.33v4.91l-1.13-0.92c0,0,0.51,3.07,0,4.4c-0.51,1.33-2.15,5.01-2.15,5.01s-1.64-2.05-1.94-3.07 c-0.31-1.02-2.06-0.36-2.18,0.09c-0.12,0.45-5.28,9.87-9.45,11.96c0,0-0.54-6.8,0.54-9.65c1.08-2.86,2.09-9.04,2.09-9.04 s-3.15,0.45-3.4,1.09c-0.25,0.63-1.46-2.85-1.33-5.39c0.13-2.54,0.7-6.85,0.7-6.85l1.21-0.3l-0.6-4.07c0,0,8.12-18.19,14.28-24.33 c0,0,1.98-3.92,1.98-13.45s4.64-53.61,9.54-60.31s12.76-17.5,20.51-20.7c7.74-3.2,5.34-6.41,8.81-8.28 c3.47-1.87,31.51-27.24,68.1-28.31c36.59-1.07,47.54-16.56,47.54-16.56s5.59-11.41,21.99-12.47c0,0-2.97-1.94-5.19-1.66 c-2.23,0.28,28-15.21,51.91-13.61c0,0-0.67-3.02,0-4.53c0.67-1.51,3.69,0,3.69,0s-0.3-8.15,0-9.05c0.3-0.91,21.72,6.34,22.33,8.45 c0.6,2.11,0.3-1.51,1.21-2.11c0.91-0.6,19.6,5.5,21.14,10.39c0,0,11.07,1.29,12.51,2.25c1.44,0.96,3.36-0.16,3.36-0.16 s5.06-3.75,6.45-4.01c0,0,0,1.64,0.63,1.64s2.66,0.63,3.04,0c0.38-0.63,4.17-1.39,4.17-1.39s5.41-1.28,7.83-0.14 c2.42,1.14,3.27,1.42,3.27,1.42v-1.28c0,0,12.59,0.48,19.32,13.42c0,0,3.7-13.78,6.89-15.63c0,0,2.02,2.02,2.18,3.53 s7.65-9.19,15.9-10.17v2.36c0,0,18.87-2.95,23.78-7.27c0,0,0.79,4.91,0.98,6.49c0.2,1.57,2.36,0.39,2.36,0.39s0,13.56-2.75,14.94 c-2.75,1.38,1.72,0.39,1.72,0.39s-1.75,11.21-8.23,18.21c0,0,0.69,0.83,1.67,0.53c0,0-10.33,21.06-28.74,18.8 c0,0,17.09,43.89,15.9,47.46c0,0,0.06,1.69-0.41,2.48s-5.47-2.03-5.47-2.03s10.28,19.34,8.56,29.41c0,0,1.38,11.24-2.07,13.89 s-3.46,2.65-3.46,2.65l-0.56-3.92c0,0-3.08,9.52-6.16,12.32c-3.08,2.8-13.44,9.24-28,11.2c0,0-15.68,23.8-37.52,35.28 c0,0-9.35,57.23-1.76,74.4s25.43,34.73,25.43,34.73h-44.91c0,0,0.29-14.16-1.81-15.21c-2.1-1.05-4.99,2.62-4.99,2.62 s-3.41-9.18-1.84-17.32c1.57-8.13,1.05-17.32,1.05-17.32l-2.1-7.08l-2.36,1.84c0,0-5.25-14.96-4.46-17.58 c0.79-2.62-2.89-1.84-2.89-1.84s-6.82-12.86-7.87-21.78c0,0-2.26-1.7-2.26,2.17c0,3.87-8.35,53.11-11.02,57.37 c-2.66,4.26,24.24,34.13,24.24,34.13h-46.17c0,0,0.21-13.76-1.66-12.93c-1.86,0.83-7.04,7.25-7.04,7.25s-2.07-7.45-1.45-12.01 c0.62-4.55,8.07-17.8,8.07-17.8s-1.04-2.28-2.69-1.66c-1.66,0.62-1.24-7.25-1.24-7.25s-0.62-2.69-2.9-0.62 c-2.28,2.07-4.35-2.9-4.14-6.62c0.21-3.73,0.21-9.32,0.21-9.32s-8.05,1.84-8.86-5.07c-0.81-6.91-4.5-24.87-4.5-24.87l-27.04-2.16 l0.36,2.18c0,0-32.45-3.73-36.02-6.98c-3.57-3.24-22.06,28.88-22.55,41.37l-3.24-2.43c0,0-2.13,37.48,25.81,58.91h-45.6 c0,0,0.06-14.24-1.72-14.68s-1.78-0.45-1.78-0.45l-0.25-8.5c0,0-3.68,0.76-3.68-1.02s0-13.83,0-13.83l0.13-1.78l-2.03,0.63 l-0.07-16.92l-2.01-0.2c0,0-4.49-21.92-3.49-25.61c0,0-7.71,9.38-11.06,10.39c-3.35,1.01-3.04,0.06-3.04,0.06v-5.18 c0,0-2.35-0.16-4.55,6.43c-2.2,6.59-1.1,24.95-1.1,24.95S174.88,588.54,192.55,601.71z"/> <path class="st1" d="M193.03,601.86c-12.99,0.12-32.03,0.4-44.9,0.34c0,0-0.46,0-0.46,0c-0.49-5.19-1.2-10.39-2.23-15.49 c-0.8-3.22-2.14-11.42-5.48-12.71c0,0,0.06,0.01,0.06,0.01c-0.02,0-0.29,0.04-0.44,0.12c-0.6,0.27-1.02,0.84-1.33,1.47 c-0.37,0.67-0.48,1.47-0.75,2.2c-0.05,0.11-0.04,0.17-0.24,0.44c-0.04,0.05-0.12,0.13-0.19,0.18c-0.04,0.05-0.39,0.21-0.6,0.17 c-0.44-0.06-0.68-0.32-0.78-0.55c-0.1-0.22-0.08-0.26-0.1-0.34c-0.02-0.13-0.03-0.23-0.03-0.32c0.02-2.6,0.31-5.07,0.61-7.59 c0.4-4.21,1.43-9.72,1.25-13.84c-0.28-6.96,0.1-18.04-0.83-24.76c-2.96-5.1-2.25-12.15,1.58-16.81c2.85-3.86,6.23-7.16,9.48-10.51 c1.6-1.68,3.28-3.35,4.54-5.17c1.21-1.84,1.66-4.2,2.2-6.35c1.01-4.53,1.69-9.17,2.29-13.79c-0.01-0.02,0.91,0.33,0.91,0.33 c0,0-7.58,11.25-7.58,11.25c0,0-0.64,0.94-0.64,0.95c-1.66-6.73-1.84-13.61-1.88-20.48c-0.04-6.07,0.08-13.9,0.8-19.09 c-1.28-2.64-3.07-5.43-2.81-8.47c0.52-11.13,0.87-22.24,2.22-33.32c0.11-0.82,0.35-2.94,1.62-2.57c0.83,0.8,0.32,0.7,0.44,0.87 c-0.07,0.22-0.09,0.22-0.12,0.28l-0.07,0.12l-0.13,0.2c-2.09,3.11-4.1,6.34-5.54,9.79c-1.88,4.25-2.15,8.93-2.83,13.48 c-1.08,8.05-2.38,19.67-3.32,27.85c-0.52,4.08-0.98,9.81-1.33,13.94c0.44,5.45,0.71,12.31,0.95,18.24 c-0.07,1.19,0.18,3.53-0.01,4.72c-0.06,0.26-0.13,0.51-0.32,0.76c-0.08,0.11-0.34,0.33-0.66,0.26c-0.27-0.07-0.37-0.19-0.44-0.27 c-0.18-0.21-0.26-0.42-0.36-0.67c0,0,0.97-0.19,0.97-0.19c0.43,1.96,0.22,3.92,0.02,5.89c-0.03,0.33-0.03,0.63-0.25,0.97 c-0.24,0.41-0.99,0.34-1.26,0.17c-0.19-0.09-0.34-0.17-0.52-0.29l0.8-0.44c0.09,1.7,0.33,3.34-0.07,5.06 c-0.18,0.56-0.39,1.07-0.73,1.6l-0.48,0.78l-0.39-0.84l-0.61-1.33l0.95-0.21v4.91v1.06l-0.82-0.67l-1.13-0.92l0.81-0.47 c0.19,1.5,0.43,3.04,0.01,4.54c-0.08,0.24-0.16,0.39-0.24,0.6l-1.96,4.57l-0.33,0.77c-0.69-0.97-1.53-1.88-2.11-2.95 c-0.25-0.29-0.31-0.76-0.51-1.06c-0.07-0.09-0.47-0.11-0.79,0.03c-0.16,0.06-0.34,0.16-0.38,0.21l-0.01,0 c0.01-0.01,0.02-0.03,0.02-0.05l-0.09,0.21c-1.54,2.95-3.35,5.73-5.45,8.32c-1.3,1.57-2.81,3.06-4.72,4.06 c0,0-0.18-0.73-0.18-0.73c-0.67-3.31-1.05-6.44-0.14-9.85c1.04-2.94,1.7-5.99,2.76-8.95c-0.01-0.05,0.57,0.57,0.57,0.56 c-0.96,0.16-1.94,0.32-2.82,0.69c-0.11,0.05-0.25,0.16-0.19,0.11c0,0,0.01-0.04-0.01,0c-0.06,0.09-0.03,0.11-0.18,0.24 c-0.1,0.1-0.34,0.16-0.5,0.11c-0.11-0.03-0.22-0.1-0.24-0.13c-0.17-0.16-0.21-0.25-0.27-0.34c-0.95-1.97-1.2-4.14-1.05-6.27 c0.16-2.16,0.42-4.31,0.7-6.46l0.33-0.08l1.21-0.3l-0.37,0.56l-0.6-4.06c0.51-2.42,1.66-4.68,2.73-6.88 c3.29-6.3,6.59-12.79,11.67-17.89c0.55-1.57,1.13-4.88,1.25-7.14c0.17-2.16,0.1-5.34,0.06-7.55c0.04-5.14,0.35-10.21,0.69-15.3 c0.79-10.19,1.74-20.33,3.47-30.44c1-4.94,1.6-10.29,4.31-14.72c5.87-8.2,12-17.55,21.5-22.1c1.19-0.57,2.83-1.41,3.53-2.32 c0.76-0.83,0.75-1.44,1.48-2.67c0.51-1,1.61-2.31,2.75-2.97c0,0,0.34-0.21,0.34-0.21l0.17-0.1l0.06-0.04 c0.15-0.12,0.31-0.23,0.47-0.34l2.95-2.25c10.16-7.9,21.54-14.84,33.59-19.77c7.31-2.83,15.15-5.16,22.93-6.23 c4.98-0.84,10.36-0.92,15.42-1.32c4.85-0.48,9.68-1.14,14.34-2.24c8.98-2.14,18.37-4.81,25.24-11.19c3.71-5.73,12-11.2,20.87-11.4 c1.14-0.03,2.27,0.01,3.39,0.06l-0.24,0.92c-1.59-0.8-3.29-1.47-5.05-1.23c0,0-0.06,0-0.06,0c0.01,0-0.08-0.01-0.2-0.05 c-0.43-0.16-0.65-0.6-0.54-1.04c0.03-0.12,0.08-0.22,0.14-0.31l0.06-0.08c0.11-0.13,0.14-0.15,0.19-0.19 c0.11-0.09,0.16-0.13,0.25-0.2c6.86-4.33,14.52-7.17,22.23-9.57c9.67-2.84,19.9-4.74,30-3.51c0.05-0.01-0.52,0.61-0.51,0.61 c-0.28-1.52-0.51-2.99-0.08-4.54c0,0,0.11-0.3,0.11-0.3c0.17-0.35,0.48-0.66,0.84-0.81c1.25-0.44,2.42,0.11,3.53,0.57 c0,0-0.72,0.47-0.72,0.47c-0.03-3.07-0.34-6.15,0.02-9.23c0.03-0.12,0.21-0.3,0.26-0.31c0.13-0.08,0.29-0.1,0.41-0.1 c4.56,0.66,8.84,2.49,13.17,3.99c2.98,1.2,6.07,2.23,8.77,4.06c0.14,0.12,0.28,0.23,0.42,0.4c0.22,0.19,0.34,0.77,0.4,0.88 c-0.05-0.04,0.01-0.03-0.18-0.13c-0.13-0.04-0.36-0.03-0.47,0.1c-0.07,0.08-0.06,0.09-0.07,0.09c-0.01,0.02,0,0,0,0 c0.01-0.03,0.03-0.1,0.04-0.17c0.16-0.76,0.18-1.77,0.74-2.5c0.1-0.1,0.15-0.19,0.35-0.27c0.09-0.04,0.24-0.07,0.29-0.07 c0,0,0.16,0,0.16,0c2.94,0.37,5.65,1.5,8.39,2.47c4.14,1.69,8.51,3.38,11.8,6.53c0.46,0.5,0.91,1.04,1.15,1.78l-0.42-0.35 c4.25,0.66,8.61,0.81,12.7,2.32c0.84,0.56,2.18,0.24,2.82-0.13c2.34-1.57,4.43-3.51,7.24-4.25c0,0,0.01,0.64,0.01,0.64 c0.04,0.38,0.04,0.95,0.22,1.17c0,0-0.03-0.02-0.05-0.02c-0.01-0.01-0.03-0.01-0.04,0c0.01,0,0.06,0,0.09,0.01 c0.28,0.02,0.49,0.06,0.71,0.1c0.61,0.06,1.18,0.26,1.74,0.15c0.18-0.08-0.11,0.12,0.34-0.29c0.5-0.34,0.91-0.45,1.35-0.6 c3.02-0.87,6.06-1.54,9.25-1.29c0.88,0.08,1.86,0.46,2.63,0.82c0,0,2.36,1.03,2.36,1.03l-0.66,0.47v-1.28v-0.54l0.52,0.04 c6.28,0.57,12.18,3.75,16.24,8.53c1.39,1.55,2.47,3.35,3.5,5.16c0,0-0.93,0.1-0.93,0.1c1.45-4.87,2.82-9.85,5.5-14.21 c0.47-0.75,1.12-1.42,1.94-1.95c0,0,0.29,0.3,0.29,0.3c1.03,1.02,2.05,2.38,2.33,3.8c0-0.01-0.02-0.08-0.09-0.15 c-0.08-0.09-0.21-0.12-0.27-0.12c4.27-3.91,9.28-9.47,15.71-10.31c0,0,0.56-0.07,0.56-0.07V289v2.36l-0.58-0.49 c4.1-0.67,8.19-1.52,12.21-2.56c4.17-1.2,8.71-2.28,12.01-5.16c0,0,0.13,0.86,0.13,0.86l0.71,4.68l0.18,1.17l0.09,0.59 c0.03,0.18,0.06,0.26,0.1,0.33c0.42,0.43,1.82-0.4,2.29-0.63c-0.03,3.52-0.16,7.02-0.69,10.52c-0.32,1.75-0.57,3.87-1.89,5.35 c-0.37,0.35-0.72,0.43-1.07,0.68c-0.05,0.01-0.13,0.16-0.02-0.05c0.05-0.13,0.01-0.31-0.09-0.42c-0.09-0.09-0.12-0.08-0.14-0.1 c-0.02-0.01,0,0,0.03,0c0.88-0.02,2.02-0.28,2.97-0.47c0,0-0.12,0.71-0.12,0.71c-1.28,6.68-3.78,13.34-8.36,18.48 c0,0,0.02-0.66,0.02-0.66c0.12,0.13,0.36,0.3,0.54,0.36c0.2,0.07,0.4,0.07,0.6,0.02l1.11-0.3l-0.52,1 c-5.6,10.62-16.4,20.75-29.25,19.07c0,0,0.53-0.68,0.53-0.68c3.02,7.8,5.96,15.63,8.8,23.5c2.55,7.43,5.48,14.79,7.08,22.51 c0.09,0.57,0.17,1.2,0.03,1.79c0,0,0.03-0.18,0.03-0.18c0.02,0.85-0.04,1.75-0.39,2.59c-0.46,0.97-1.65,0.39-2.33,0.19 c-1.38-0.53-2.64-1.19-3.9-1.88l0.69-0.67c2.38,4.63,4.46,9.38,6.15,14.31c1.62,4.95,3.16,10.12,2.46,15.42 c0.25,0.82,0.2,3.23,0.28,4.61c-0.07,3.47,0.01,7.84-3.2,10.1c0,0-0.93,0.72-0.93,0.72l-1.87,1.43l-0.68,0.52l-0.12-0.85 l-0.56-3.92l0.97,0.08c-1.21,3.53-2.55,6.99-4.49,10.24c-1.98,3.26-5.6,5.09-8.82,6.91c-6.6,3.46-13.82,5.69-21.19,6.71 l-0.07,0.01l0.35-0.22c-7.16,10.93-16.02,20.78-26.36,28.78c-3.53,2.59-7.13,5.34-11.35,6.67c0,0,0.26-0.36,0.26-0.36 c-0.91,9.8-2.08,19.56-3,29.34c-0.87,9.77-1.46,19.6-1.02,29.36c0.29,4.84,0.69,9.78,2.26,14.24 c5.92,13.8,15.85,25.75,26.13,36.62c0,0-1.19,0-1.19,0h-44.91h-0.51l0.01-0.51c0-4.42,0.08-8.93-0.84-13.25 c-0.11-0.47-0.33-1.19-0.67-1.48c-1.58-0.68-3.39,1.32-4.39,2.46c0,0-0.51,0.66-0.51,0.66c-1.99-4.34-3.16-9.05-3.35-13.84 c-0.05-4.38,1.09-8.7,1.13-13.1c0.16-2.85,0.08-5.75,0.09-8.58l0.06,0.33c-0.59-2.42-1.04-4.85-1.18-7.36c0,0,0.79,0.25,0.79,0.25 l-2.31,1.8c-0.02,0.01-0.03,0.02-0.05,0.04l-0.41,0.49c-1.98-3.58-3.16-7.46-4.19-11.39c-0.48-2.06-1.07-4.24-1.04-6.48 c0.04-0.29,0.1-0.67,0.15-0.87c0.12-0.36,0.12-0.59,0.04-0.7c-0.36-0.42-1.44-0.44-2.06-0.38c-0.02,0-0.04,0-0.05,0.01l-0.23,0.15 c-1.36-1.67-2.48-3.5-3.48-5.38c-2.67-5.24-4.84-11.02-4.77-16.99c0,0,0.2,0.34,0.2,0.34c-0.2-0.12-0.73-0.32-0.9-0.12 c-0.26,0.26-0.35,1.26-0.3,1.77c-0.3,7.44-1.55,14.8-2.64,22.15c-1.37,8.67-3,17.28-4.91,25.88c-0.84,3.37-1.44,6.88-2.93,10.07 c0,0-0.07,0.12-0.07,0.12c-0.03,0.05,0.01,0,0.01,0c0.02-0.06,0.02-0.05,0.01-0.05c-0.05,0.45,0.2,1.1,0.4,1.63 c1.63,3.78,4.3,7.43,6.74,10.84c5.14,7.05,10.68,13.86,16.23,20.64l0.7,0.83h-1.08h-46.17h-0.51l0.01-0.51 c-0.11-4.01,0.24-8.8-1.03-12.45c-2.35,1.58-4.7,4.69-6.74,7.04c0,0-0.04,0.05-0.04,0.05l-0.55,0.69l-0.32-0.87 c-1.37-3.84-2.41-7.85-2.14-12.01c0.63-4.15,2.65-7.75,4.53-11.38c1.31-2.34,2.69-4.64,4.29-6.81c0,0-0.02,0.45-0.02,0.45 c-0.35-0.71-1-1.45-1.62-1.47c-0.08-0.01-0.16,0.01-0.24,0.01l-0.3,0.08c-1.95,0.37-1.76-3.71-1.86-4.91 c-0.02-0.96-0.01-1.9,0.04-2.86l0.01,0.14c-0.09-0.34-0.3-0.74-0.53-0.89c-0.36-0.31-0.97,0.05-1.32,0.34 c-3.02,2.71-4.86-2.32-5.1-4.69c-0.21-1.59-0.03-4.11-0.02-5.73c0,0,0.13-5.64,0.13-5.64s0-0.07,0-0.07l0.61,0.49 c-4.26,1.25-9.31-0.26-9.95-5.26c-0.18-1.31-0.9-5.4-1.13-6.79c-1.06-6.04-2.14-12.09-2.87-18.21c0-0.02,0-0.05-0.01-0.07 l0.45,0.4c-4.54,0.15-9.05,0.05-13.56-0.15c-4.54-0.24-9.09-0.31-13.51-1.54c0,0,1.04-1.13,1.04-1.13l-0.1,2.19 c0,0.02,0,0.04,0,0.07l0.11,0.54c-11.13,0.63-22.05-0.61-32.84-3.39c-1.82-0.56-3.73-1.03-5.31-2.32 c0.21,0.22,0.84,0.45,1.17,0.31c-0.95,0.5-1.78,1.48-2.57,2.35c-2.17,2.53-4.14,5.46-6.02,8.4c-1.87,2.96-3.63,6.01-5.31,9.1 c-3.18,6.17-6.59,12.56-7.78,19.43c0,0.02-0.01,0.05,0,0.07l0.25,0.6c-1.76-0.24-3.37-1.1-4.3-2.65c0,0,0.8-0.37,0.8-0.37 c1.75,21.63,9.06,43.6,25.56,58.44c0,0,0.05,0.05,0.05,0.05l0.93,0.9h-1.23c-0.07,0-45.54,0-45.6,0c0,0-0.39,0-0.39,0l-0.11-0.51 c-0.99-4.25-1.13-8.92-1.64-13.21c-0.03-0.26-0.12-0.57-0.07-0.6c0.07,0,0.17,0.08,0.26,0.06c0,0-0.06-0.03-0.06-0.03l-0.12-0.06 l-0.48-0.24c-0.48-0.19-0.9-0.56-1.38-0.77c0,0-0.01-0.27-0.01-0.27l-0.25-8.44l0-0.07l0.6,0.47c-0.79,0.24-1.56,0.37-2.44,0.33 c-0.7-0.01-1.8-0.4-2.05-1.28c-0.09-0.23-0.09-0.57-0.11-0.8c-0.06-5.13-0.21-10.31,0.45-15.4c0,0,0.65,0.51,0.65,0.51l-1.97,0.61 l-0.06,0.02l-0.36,0.12l-0.29-0.59c-1.33-2.73-1.09-5.54-1.03-8.42c0.12-2.85,0.35-5.69,0.96-8.5c0,0,0.45,0.5,0.45,0.5l-1.95-0.2 l-0.06-0.01l-0.28-0.03l-0.16-0.37c-2.64-6.39-5.88-19.18-3.51-25.78c0,0,0.03-0.06,0.03-0.06l0.87,0.45 c-3.08,3.54-6.07,7.21-9.99,9.9c0,0-0.53,0.31-0.53,0.31l-0.6,0.25c-1.03,0.33-2,0.65-3.11,0.51c-0.38-0.09-0.92-0.43-0.73-1.01 c0,0-0.03,0.16-0.03,0.16v-5.11l0-0.07l0.47,0.5c0.01,0.01-0.17,0.04-0.27,0.11c-0.95,0.51-1.54,1.51-2.07,2.45 c-1.88,3.61-2.22,7.66-2.38,11.76c-0.26,5.25,0.04,11.75,0.23,16.33c0.94,4.2,2.21,8.42,3.62,12.53 c3.75,10.71,8.62,21.39,16.52,29.7c0,0,0.56,0.6,0.56,0.6C190.99,599.55,192.07,600.89,193.03,601.86L193.03,601.86z M192.08,601.55c-1.39-0.9-2.62-1.51-3.7-2.64c-8.51-8.1-13.78-18.96-17.73-29.87c-1.48-4.22-2.78-8.47-3.78-12.87 c-0.14-2.83-0.23-5.64-0.24-8.46c0.18-6.95-0.21-14.45,3.49-20.69c0.88-1.38,2.16-3.08,4.04-2.89c0,0,0,0.5,0,0.5l0,0.07v5.11 l-0.03,0.16c0.05-0.17-0.03-0.25-0.06-0.29c-0.04-0.02,0,0,0.05,0.01c0.49,0.05,0.99-0.05,1.5-0.17c0.67-0.14,1.43-0.4,2-0.79 c4.02-2.79,7.21-6.76,10.39-10.47c0,0,0.22,1.23,0.22,1.23c1.74,8.28,3.48,16.83,3.49,25.38c0,0-0.44-0.4-0.44-0.4l0.06,0.01 l1.95,0.19l0.35,0.03c0.38,1.56,0.63,3.16,0.8,4.74c0.27,4.24,1.13,8.59-0.63,12.65c0,0-0.65-0.48-0.65-0.48l0.06-0.02 c0.64-0.22,2.05-0.63,2.61-0.82c-0.02,3.8,0.29,7.62,0.25,11.52c0.01,1.62-0.01,3.25-0.07,4.86c0.01,0.02,0,0.04,0.04,0.09 c0.68,0.51,1.84,0.34,2.73,0.36c0,0,0.59-0.03,0.59-0.03l0.01,0.5l0,0.07l0.25,8.44l-0.38-0.47c0.57-0.01,1.25-0.06,1.83-0.01 c0.87,0.06,1.44,1.2,1.68,1.72c1.54,4.49,1.21,9.32,0.38,13.9c0,0-0.5-0.5-0.5-0.5c0.04,0.03,45.55-0.02,45.6,0 c0,0-0.3,0.9-0.3,0.9l-0.06-0.04c-16.88-10.82-25.83-31.22-26.37-50.85c-0.08-3.13,0.04-6.28,0.56-9.39c0,0,0.66,0.57,0.66,0.57 c1.35,0.43,2.52,1.17,3.25,2.43c0,0-0.81,0.38-0.81,0.38c0.01-0.02,0-0.05,0.01-0.07c-0.06-3.68,0.88-7.25,1.93-10.73 c2.18-6.91,5.17-13.5,8.7-19.83c2.11-3.43,7.45-13.6,12.14-13.24c0.63,0.02,1.38,0.41,1.86,0.81c0.99,0.53,2.26,0.9,3.45,1.22 c10.26,2.48,20.81,3.77,31.05,6.97c0,0-0.55,0.58-0.55,0.58c-0.3-0.74-0.93-2.37-1.21-3.07c5.02-0.76,10.03-0.1,15.01,0.46 c4.48,0.53,8.96,1.14,13.41,2.01l0.42,0.08l0.03,0.32c1.72,5.95,3.01,12,4.06,18.1c0.39,2.23,0.72,4.62,0.98,6.88 c0.24,3.9,4.3,5.01,7.71,4.56c0,0,0.63-0.06,0.63-0.06l-0.02,0.55l0,0.07l-0.13,5.67l-0.06,2.83c-0.02,0.97-0.07,1.82,0.08,2.73 c0.3,2.04,1.44,5.63,3.2,4.28c1.48-1.44,3.2-1.16,3.74,0.87c0.06,2.23-0.33,5.02,0.61,6.9c0-0.01-0.05,0-0.04-0.01 c-0.03,0.02,0.1-0.03,0.16-0.04l0.22-0.06c0.75-0.17,1.57,0.25,2.03,0.72c0.45,0.44,0.74,0.92,1.01,1.48c0,0-0.11,0.27-0.11,0.27 l-0.02,0.06c-2.29,6.08-5.81,11.72-7.37,17.9c-0.41,3.77,0.27,7.68,0.81,11.48c0,0-0.87-0.18-0.87-0.18 c1.92-2.31,3.81-4.61,6.08-6.61c0.37-0.36,0.77-0.59,1.23-0.81c0.35-0.19,0.89,0.13,1.02,0.35c1.16,2.18,0.95,4.82,1.17,7.15 c0.08,1.97,0.11,3.94,0.09,5.92l-0.5-0.51h46.17l-0.37,0.83l-0.04-0.05c-6.09-6.33-11.92-12.88-17.39-19.8 c-2.08-2.97-9.48-11.48-7.74-15.21c0.5-0.98,0.79-2.12,1.09-3.2c1.6-6.3,2.83-12.75,4.04-19.16c1.69-9.35,4.42-22.9,6.09-32.21 c0.06-0.64,0.33-1.75,0.35-2.35c0.14-1.02,0.09-1.96,1.14-2.76c0.86-0.49,1.71-0.05,2.37,0.49c0,0,0,0.19,0,0.19 c2.2,7.39,5.53,14.2,7.82,21.6c0,0-0.55-0.26-0.55-0.26c1.15-0.23,2.31-0.5,3.37,0.46c0.72,0.82,0.38,1.74,0.33,2.5 c0.17,1.98,0.76,3.94,1.31,5.95c1.01,3.58,2.25,7.11,2.92,10.83l-0.78-0.23c0.02-0.01,0.03-0.02,0.05-0.04l2.31-1.8l0.65-0.5 l0.14,0.76c0,0.02,0.02,0.04,0.03,0.06c1.26,2.27,2.35,4.62,3.05,7.09c0.41,5.97-0.01,11.9-1.2,17.76 c-1.12,5.46-0.33,11.36,1,16.79c0,0-0.86-0.14-0.86-0.14c1.41-1.48,3.46-3.86,5.73-2.67c1.32,1.24,1.24,3.15,1.55,4.78 c0.39,3.61,0.44,7.2,0.4,10.8l-0.5-0.51h44.91l-0.35,0.86l-0.04-0.04c-10.45-10.55-20.27-22.05-26.33-35.76 c-5.8-16.64-1.25-56.16,2.62-74.06c3.51-2.68,7.26-4.87,10.74-7.52c10.22-7.81,19.14-17.33,26.79-27.66c0,0,0.14-0.19,0.14-0.19 l0.21-0.03l0.07-0.01c9.86-1.47,19.84-4.78,27.68-11.08c3.46-3.88,4.93-9.23,6.68-14.07c0.23,1.33,0.63,4.61,0.85,5.98 c0,0-0.8-0.33-0.8-0.33l1.87-1.43l0.93-0.72c1.63-1.02,2.17-2.76,2.5-4.7c0.49-3.08,0.32-6.29,0.04-9.38 c0.66-5.02-0.86-10.17-2.42-14.93c-1.84-5.38-4.2-10.61-6.85-15.62c1.9,1.05,4.04,2.33,6.14,2.88c0.13,0.03,0.3,0,0.2,0.03 c-0.01,0.01-0.08,0.06-0.09,0.09c0.35-0.65,0.31-1.43,0.34-2.2c0.16-2.03-0.65-4.04-1.13-6.01c-1.75-6.01-3.85-11.91-5.95-17.81 c-2.92-8.12-5.97-16.2-9.09-24.25l0.83,0.09c12.41,1.63,22.81-8.29,28.23-18.52c0,0,0.59,0.7,0.59,0.7 c-0.39,0.12-0.84,0.11-1.22-0.03c-0.55-0.14-0.89-0.58-1.26-0.98c3.5-3.77,5.75-8.55,7.23-13.44c0.48-1.59,0.89-3.23,1.17-4.85 l0.6,0.57c-0.83,0.16-1.55,0.35-2.53,0.35c-0.19-0.03-0.35-0.03-0.54-0.22c-0.14-0.15-0.18-0.37-0.13-0.56 c0.19-0.4,0.29-0.36,0.4-0.47c0.21-0.14,0.39-0.24,0.58-0.34c0.22-0.12,0.27-0.14,0.39-0.26c1.07-1.26,1.25-3.08,1.59-4.78 c0.47-3.14,0.63-6.36,0.67-9.54l0.74,0.44c-0.8,0.39-2.15,0.88-2.83-0.05c-0.18-0.26-0.24-0.57-0.27-0.78l-0.09-0.58l-0.18-1.16 l-0.71-4.66l0.82,0.3c-3.46,2.65-7.66,3.64-11.73,4.81c-4.25,1.1-8.55,1.98-12.88,2.68v-0.59V289l0.56,0.5 c-5.86,0.88-10.2,5.38-14.32,9.31c-0.29,0.27-0.57,0.53-0.9,0.76c-0.15,0.07-0.2,0.19-0.62,0.24c-0.12,0-0.31-0.05-0.44-0.19 c-0.11-0.12-0.15-0.25-0.16-0.32l-0.04-0.2c-0.29-1.21-1.19-2.2-2.02-3.11c0,0,0.6,0.08,0.6,0.08c-2.05,1.69-2.98,4.71-4.02,7.16 c-1,2.67-1.88,5.42-2.64,8.17l-0.31,1.12c-0.74-1.14-1.4-2.48-2.16-3.6c-2.77-4.17-6.84-7.47-11.55-9.21 c-1.86-0.7-3.86-1.2-5.8-1.35l0.52-0.5c-0.01,0.58,0.01,1.5,0,2.04c0,0-0.66-0.29-0.66-0.29l-2.45-1.06 c-2.34-1.26-4.89-0.79-7.41-0.4c-1.53,0.3-3.42,0.64-4.8,1.35c-0.04,0.02-0.01,0.02-0.02,0.01c0.03-0.06-0.1,0.12-0.17,0.19 c-0.37,0.33-0.9,0.34-1.31,0.32c-0.66-0.06-1.33-0.19-1.94-0.27c-0.43,0.05-0.79-0.35-0.92-0.66c-0.22-0.55-0.24-0.99-0.26-1.49 l0.59,0.49c-2.24,0.9-4.25,2.53-6.24,3.92c-0.7,0.4-1.42,0.61-2.23,0.65c-0.57,0.01-1.24-0.16-1.73-0.48 c-3.88-1.29-8.2-1.57-12.27-2.16c0,0-0.31-0.04-0.31-0.04l-0.11-0.31c-2.01-4.52-15.89-9.29-20.41-10.1 c-0.42,0.54-0.37,1.65-0.65,2.47c-0.02,0.04-0.03,0.09-0.13,0.19c-0.13,0.16-0.42,0.2-0.57,0.13c-0.24-0.11-0.19-0.14-0.27-0.2 c-0.19-0.3-0.19-0.42-0.26-0.6c-0.07-0.23-0.04-0.16-0.11-0.25c-0.06-0.08-0.17-0.17-0.27-0.25c-4.79-2.94-10.38-4.58-15.69-6.4 c-1.82-0.55-3.72-1.21-5.59-1.43c-0.03,0-0.02,0-0.02,0c0.01,0,0.06-0.02,0.08-0.04c0.01,0,0.18-0.14,0.18-0.23 c-0.01,0.09-0.04,0.2-0.05,0.36c-0.16,3.09,0.02,6.23,0.1,9.33c0,0-0.75-0.35-0.75-0.35c-0.79-0.41-1.87-0.75-2.7-0.54 c-0.21,0.1-0.28,0.17-0.38,0.49c-0.36,1.25-0.13,2.73,0.11,4.01c0,0,0.13,0.6,0.13,0.6c-0.01,0-0.65,0.01-0.66,0.01 c-9.94,0.04-19.68,2.21-29.16,5.07c-7.35,2.32-14.72,4.9-21.66,8.25c0,0-0.37,0.2-0.37,0.2l-0.13,0.08 c-0.01,0-0.04,0.03,0.02-0.03c0.06-0.09,0.11-0.18,0.14-0.3c0.14-0.5-0.31-1.02-0.76-1.01c0.38-0.05,1.42,0.07,2,0.26 c1.67,0.48,3.03,1.47,4.4,2.45c0,0-1.12,0.3-1.12,0.3c-4.12,0.94-8.17,2.33-11.72,4.65c-3.26,2.15-6.16,5.01-7.77,8.56 c-0.49,0.9-1.14,1.59-1.66,2.26c-6.78,7.72-16.57,12.4-26.35,14.82c-5.19,1.35-10.48,1.89-15.72,2.34 c-4.87,0.3-10.1,0.31-14.92,1.01C211,348.32,192.9,357.41,177.05,369l-3.16,2.28l-1.12,0.71l-0.24,0.15 c-0.04,0.02-0.11,0.04-0.12,0.06c-0.13,0.07-0.14,0.09-0.35,0.39c-0.59,0.99-1.44,2.85-2.47,3.8c-2.23,2.35-4.73,3.25-7.46,4.47 c-7.34,4.17-12.39,11.2-17.65,17.82c-0.63,0.83-1.23,1.61-1.6,2.65c-4.46,12.95-5.99,26.79-8.02,40.37 c-1.18,7.57-1.53,15.11-2.28,22.7c-0.41,2.57-0.88,5.11-2.04,7.58c-1.57,1.74-2.87,3.73-4.13,5.75 c-3.8,5.93-6.43,12.52-10.12,18.52c0,0,0.04-0.28,0.04-0.28l0,0.02l0.6,4.06l0.07,0.45l-0.44,0.11l-1.21,0.3l0.37-0.42 c-0.43,3.89-1.41,8.25,0.3,11.83c0.01,0.01-0.07-0.05-0.14-0.06c-0.12-0.04-0.31,0.01-0.38,0.08c-0.11,0.11-0.08,0.08-0.11,0.14 c0,0.01,0.04-0.07,0.06-0.11c0.24-0.34,0.43-0.39,0.62-0.5c0.37-0.17,0.71-0.27,1.05-0.36c0.84-0.22,1.77-0.38,2.63-0.5 c0.04,1.84-0.1,3.68-0.38,5.48c-0.4,3.13-1.77,5.77-1.84,9.07c-0.13,1.54-0.23,3.11-0.39,4.68l-0.72-0.41 c3.73-2.3,6.11-6.45,8.37-10.12c0.38-0.6,0.65-1.28,1.02-1.87c0.77-0.75,2.37-1.03,2.89,0.13c0,0,0.12,0.31,0.12,0.31 c0.08,0.18,0.17,0.36,0.28,0.55c0.43,0.74,0.96,1.47,1.5,2.16l-0.85,0.11l1.94-4.52c0.07-0.18,0.18-0.39,0.22-0.55 c0.39-1.71,0.01-3.63-0.25-5.35c0,0,1.01,0.83,1.01,0.83l1.13,0.92L133,512.8c0.04-1.64-0.03-5.63,0-7.19c0,0,0.95,2.07,0.95,2.07 l0.61,1.33l-0.87-0.07c0.24-0.38,0.45-0.88,0.61-1.36c0.39-1.84,0.02-3.97-0.06-5.87c0,0,0.89,0.76,0.89,0.76 c0.17,0.15,0.53,0.29,0.52,0.26c-0.06-0.01-0.17,0.17-0.12,0.04c0.22-1.4-0.23-2.85-0.12-4.26c0.01-0.64,0.05-1.3,0.13-1.95 l-0.15-2.78l1.12,2.59c0.04,0.11,0.12,0.25,0.19,0.33c0.01,0.02,0.01-0.02-0.13-0.06c-0.19-0.03-0.34,0.09-0.34,0.1 c-0.02,0.02,0,0,0-0.03c0.02-0.07,0.04-0.18,0.07-0.28c-0.15-6.13-1.1-16.53-1.49-22.76c0,0,0-0.06,0-0.06l0-0.06l0.55-7.01 c1.19-10.9,2.69-24.03,4.15-34.87c0.53-3.5,0.84-7.03,1.76-10.48c1.02-3.44,2.69-6.65,4.55-9.68c0.8-1.34,1.72-2.62,2.56-3.92 c0.01,0,0.02-0.07-0.02,0.08c0.12,0.15-0.38,0.04,0.43,0.82c0.33,0.15,0.61-0.05,0.57-0.02c0.02-0.01,0.04-0.03,0.06-0.04 c0.01-0.01-0.04,0.03-0.02,0.02c0.04,0,0.06-0.04,0.06-0.06c-0.14,0.38-0.25,1.01-0.34,1.55c-1.39,10.93-1.88,22.12-2.53,33.14 c-0.31,2.87,1.46,5.41,2.59,7.96c0,0,0.03,0.04,0.03,0.05c0,0,0.03,0.18,0.03,0.18c0.92,6.4,1.33,12.82,1.6,19.27 c0.25,6.46,0.4,12.9-0.75,19.32c0,0-0.92-0.27-0.91-0.27c0,0,7.58-11.25,7.58-11.25l1.1-1.63c-0.48,5.33-1.12,10.66-2.17,15.93 c-0.54,2.36-0.94,4.75-2.27,6.88c-1.39,2.05-3.04,3.71-4.65,5.44c-3.22,3.4-6.53,6.72-9.2,10.44c-3.26,4.17-4.1,10.01-1.51,14.67 c0-0.02,0.29,0.54,0.28,0.64c0.05,0.19,0.09,0.37,0.11,0.52c0.87,8.23,0.68,16.46,0.86,24.7c0.19,2.33-0.26,4.82-0.48,7.12 c-0.4,3.92-1.5,10.4-1.5,14.37c-0.01-0.01,0.02,0.02-0.05-0.13c-0.1-0.17-0.28-0.44-0.7-0.47c-0.19-0.04-0.52,0.11-0.55,0.15 c-0.06,0.04-0.13,0.11-0.15,0.14c-0.12,0.16-0.05,0.08-0.05,0.05c1.18-4.97,4.95-6.91,7.69-1.88c1.83,3.5,2.6,7.37,3.34,11.17 c0.88,5.05,1.46,10.12,1.78,15.22c0.01,0.03-0.5-0.46-0.5-0.46C160.67,601.14,179.31,601.42,192.08,601.55L192.08,601.55z"/> </g> <g id="Fell"> <g> <path class="st1" d="M373.37,510.3c-3.37-11.71-1.63-24.53,3.19-35.6c0.86-1.52,2.26-2.84,5.18-3.21 c1.74,2.95,1.3,5.37-0.08,8.06C377.58,489.44,375.21,499.72,373.37,510.3L373.37,510.3z"/> </g> <path class="st2" d="M229.09,411.4c10.48,30.05,1.98,65.83-20.88,87.97"/> <g> <path class="st1" d="M214.62,408.6c1.12,29.62,6.61,60.39-5.16,88.81c-1.92,4.85-4.29,9.56-7.62,13.63 c-1.78,1.98-3.36,4.24-5.97,5.26c-2.93,0.74-5.57,1.44-7.93,2.33c0.8-1,1.51-2.09,2.15-3.19c0.91-1.68,1.07-3.84,2.11-5.42 C217.45,480.74,212.59,444.51,214.62,408.6L214.62,408.6z"/> </g> <g> <path class="st1" d="M317.47,408.6c1.62,9.24,1.12,19.04-1.64,28.42l-4.54-2.08l4.88-9.2c0,0,4.04-7.39,4.05-7.39 c2.94,31.58,2.31,63.58-2.58,94.75c2.74-28.68,2.13-57.57-1.75-85.92l4.69,0.91c0,0-4.89,9.2-4.89,9.2l-4.54-2.08 C315.2,427.16,317.43,417.98,317.47,408.6L317.47,408.6z"/> </g> </g> </g> <g id="Gesicht_Details"> <g> <path class="st3" d="M355.31,296.36c0,0-43.5,4.28-49.23,14.03l2.51,1.24c0,0-10.44,2.19-14.09,6.08s-3.89,6.32-6.08,8.75 c0,0,4.13-2.67,7.78-2.92c3.65-0.24,6.81-2.43,6.81-2.43s1.22,2.19-1.22,3.4s5.11,1.46,7.3-0.97c2.19-2.43,4.91-4.62,6.35-4.62 c1.43,0,1,0.97,0,2.43c-1,1.46,3.15,1.46,6.43-2.67c3.28-4.13,4.73-4.86,4.73-4.86s2.19-2.19,2.92,0 c0.73,2.19-0.73,4.38-0.73,4.38s1.46,1.95,2.67-0.97c1.22-2.92,0.97-5.81,0.97-5.81s3.4-2.65,4.86,0c1.46,2.65,9,6.3,9,6.3h9.82 l5.74-0.73C361.86,316.98,359.94,296.41,355.31,296.36z"/> <path class="st1" d="M355.33,296.86c-10.98,1.33-42.59,5.02-48.82,13.79c0,0-0.21-0.7-0.21-0.7l2.51,1.24l1.27,0.63l-1.39,0.31 c-5.05,1.32-10.74,2.59-14.39,6.56c-2.33,2.42-3.28,5.49-5.5,8.12c0,0-0.64-0.75-0.64-0.75c2.29-2.7,5.87-3.48,9.27-3.67 c2.02-0.3,4-1.04,5.85-1.92l0.18,0.42l0.01,0.01c1.04,1.71,0.23,3.55-1.45,4.42c-0.04,0.02-0.05,0.08,0.05-0.08 c0.03-0.06,0.04-0.1,0.06-0.18c0.05-0.2-0.07-0.47-0.19-0.57c1.92,0.14,4.78-0.16,6.36-1.58c1.65-1.79,3.22-3.37,5.51-4.56 c0.44-0.2,0.92-0.41,1.61-0.43c2.6,0.06,2.18,2.27,0.98,3.79c-0.16,0.21-0.16,0.31-0.12,0.1c0.01-0.18-0.09-0.4-0.24-0.51 c0.73,0.07,2.25-0.5,3.1-1.15c2.59-1.84,4.31-5.12,7.25-6.76c0,0-0.13,0.09-0.13,0.09c0.58-0.51,1.15-1.01,2.11-1.11 c2.7,0.14,1.96,4.62,0.85,6.12c0,0-0.02-0.58-0.02-0.58c0.17,0.2,0.48,0.4,0.66,0.4c0.88-0.12,1.15-1.46,1.49-2.29 c0.42-1.5,0.77-3.2,0.54-4.74c1.26-1.24,2.87-2.34,4.81-1.66c0.97,0.36,1.53,1.51,1.76,1.73c0.38,0.44,0.85,0.86,1.36,1.27 c1.83,1.44,4.74,3.32,6.72,4.65c0,0-0.22-0.05-0.22-0.05c-0.06,0,10.06-0.01,9.76,0c0,0,5.74-0.73,5.74-0.73l-0.43,0.54 C360.84,312.99,359.37,298.05,355.33,296.86L355.33,296.86z M355.28,295.86c5.09,0.4,6.56,17.28,7.12,21.55 c0,0-0.48,0.06-0.48,0.06c-0.03,0-5.75,0.73-5.77,0.73c0.02,0-9.85,0-9.85,0c-3.47-1.17-6.9-2.85-9.39-5.65 c-0.58-0.88-0.64-1.1-0.98-1.33c-0.64-0.4-2.08-0.02-3.18,0.57l0.19-0.44c0.06,0.86,0.03,1.69-0.07,2.52 c-0.16,2.07-1.68,7.59-4.47,4.6c0,0-0.22-0.27-0.22-0.27l0.2-0.31c0.74-1.22,1.22-3.03,0.48-4.33c-0.14-0.18-0.25-0.24-0.45-0.23 c-0.43,0.02-1.03,0.42-1.45,0.82c-1.24,0.91-2.37,2.31-3.37,3.55c-1.67,2.34-4.09,5.19-7.31,5.47c-0.68,0.07-1.71-0.27-1.9-1.09 c-0.27-1.01,0.79-1.82,0.98-2.61c-0.02,0.1,0.16,0.43,0.29,0.46c0.06,0.01-0.11-0.01-0.21-0.01c-2.46,0.66-4.33,3.24-6.27,4.89 c-2.01,1.31-4.29,1.55-6.59,1.43c-0.63-0.11-0.96-0.05-1.64-0.5c-0.85-0.71-0.25-1.67,0.55-1.97c1.04-0.38,1.51-1.34,1.09-2.45 c-0.01-0.01,0.72,0.17,0.72,0.17c-2.1,1.79-4.74,2.89-7.49,3.15c-2.44,0.39-4.61,1.72-7.11,2.21c0,0-3.19,2.02-3.19,2.02 l2.54-2.78c2.02-2.37,3.22-5.77,5.5-8.11c3.81-4.16,9.68-5.51,14.94-6.88c0,0-0.12,0.94-0.12,0.94c-0.27-0.13-2.78-1.37-3.02-1.48 c0,0,0.3-0.45,0.3-0.45C311.9,300.93,343.95,297.24,355.28,295.86L355.28,295.86z"/> </g> <g> <path class="st4" d="M407.97,312.14c0,0-3.84-13.45-6.15-15.76s-1.65-0.85-1.65-0.85l-0.09,2.31c0,0-0.19,1.36-1.27,1.09 c-1.09-0.27-7.16-9.19-15.16-9.61l-1.05,2.95c0,0-22.74-6.95-22.95-8.84c-0.21-1.89-1.05,6.11-1.05,6.11v2.11l-2.11-0.63 c0,0-0.84,4.84,0,6.63c0,0,0.95,5.27,2.17,6.49s1.21,2.43,1.21,2.43l-2.54-0.11c0,0,0.44,12.14,7.28,16.99l0.99,0.66l-2.1,0.55 c0,0,5.74,18.42,24.71,18.98c0,0-15.8,42.72-15.8,44.35s-2.99,10.59-2.17,12.77c0.81,2.17-1.09,2.72-1.09,2.72 s-1.13,16.89-0.29,20.02c0.84,3.13,1.88,12.53,3.97,16.5c2.09,3.97,14,16.29,19.64,17.76s23.4,7.52,29.04,6.68 s24.23-4.18,24.23-4.18l-14.83-0.21c0,0-11.7,0.84-13.58-0.42c-1.88-1.25-10.03-0.84-10.24-2.3s-13.58-3.97-15.67-6.89 c-2.09-2.92-9.61-12.53-9.82-14.62l-1.25,3.13c0,0-7.31-7.1-7.1-14.21c0.21-7.1,3.34-21.1,3.34-21.1l3.97-9.61l0.84-2.3 l-4.52,2.58C376.89,394.3,398.86,313,407.97,312.14z"/> <path class="st1" d="M407.56,311.85c-0.09,0.05-0.14,0.19-0.11,0.26l-0.04-0.14l-0.09-0.29l-0.17-0.59 c-0.29-1.04-0.8-2.53-1.09-3.5c-1.01-3.07-2.05-6.19-3.46-9.09c-0.51-1.12-1.21-1.97-2.12-2.7c-0.13-0.1-0.33-0.24-0.35-0.24 c0.09,0.02,0.2,0,0.31-0.08c0.05-0.03,0.09-0.09,0.12-0.14c0.02-0.05,0.03-0.05,0.03-0.08c0.01-0.07,0.01-0.06,0.01-0.07 c0,0.02,0.06,0.17,0.09,0.23l0,0.12l-0.09,2.31l0,0.03c-0.08,0.9-0.92,1.82-1.87,1.53c-0.28-0.13-0.52-0.25-0.73-0.47 c-1.84-1.8-3.49-3.66-5.49-5.23c-2.58-2.06-5.61-3.69-8.86-3.9l0.5-0.33c-0.16,0.48-1.09,3.02-1.21,3.4c0,0-0.46-0.14-0.46-0.14 c-6.28-1.97-12.57-3.96-18.69-6.41c-1.22-0.52-2.44-1.01-3.63-1.74c-0.3-0.22-0.6-0.32-0.92-0.91c-0.08-0.21-0.07-0.27-0.08-0.31 c0,0-0.03-0.06,0.03,0.05c0,0,0.03,0.05,0.06,0.08c0.05,0.04,0.03,0.04,0.16,0.1c0.31,0.11,0.49-0.05,0.57-0.19 c-0.46,1.88-0.63,4.38-0.86,6.12c-0.01,0.65,0,2.21,0,2.78c0,0-0.64-0.19-0.64-0.19l-2.11-0.63l0.64-0.39 c-0.27,2.02-0.69,4.37-0.04,6.33c0.44,1.95,0.8,3.97,1.68,5.76c0.7,1.07,1.71,1.89,1.75,3.36c0,0,0.04,0.52,0.04,0.52l-0.56-0.02 l-2.54-0.11l0.52-0.52c0.51,6.34,2.29,13.7,8.05,17.25c0,0,0.91,0.62,0.91,0.62l-1.06,0.28l-2.1,0.55l0.35-0.63 c3.62,10.36,13.01,18.47,24.25,18.62c0,0,0.68,0.05,0.68,0.05l-0.23,0.62c-5.28,14.62-11.04,29.36-15.77,44.17 c-0.54,4.11-2.31,8.01-2.29,12.1c0,0.43,0.45,1.23,0.29,2.07c-0.07,0.42-0.27,0.83-0.56,1.14c-0.3,0.31-0.62,0.52-1.06,0.66 l0.36-0.45c-0.34,6.12-0.79,12.28-0.5,18.4c0.57,3.62,1.34,7.25,2,10.84c0.52,2.38,1.05,4.82,2.09,6.94 c1.16,2.03,2.83,3.91,4.46,5.72c3.32,3.59,6.91,7.01,10.89,9.79c1.24,0.86,2.53,1.59,3.94,2.05c2.01,0.56,7.72,2.25,9.77,2.86 c5.89,1.62,11.79,3.56,17.89,3.9c2.48-0.09,8.33-1.38,10.87-1.73c0,0,14.57-2.51,14.57-2.51c0.04-0.04,0.08,0.99,0.1,0.99 c-4.78,0.23-10.32,0.3-14.75,0.37c-4.1,0.31-8.18,0.68-12.31,0.22c-0.58-0.12-1.13-0.14-1.73-0.46c0,0-0.35-0.17-0.35-0.17 c-0.17-0.08-0.39-0.17-0.68-0.24c-2.29-0.55-4.81-0.49-7.26-0.94c-1.12-0.18-2.68-0.63-2.91-2.02c0,0,0.01,0.08,0.01,0.08 c0.02,0.13,0.09,0.26,0.16,0.36c0.11,0.13,0.05,0.05-0.01,0.02c-1.19-0.67-2.61-1.05-3.99-1.53c-2.34-0.76-4.71-1.54-7.07-2.51 c-1.47-0.65-3.28-1.41-4.39-2.87c-3.14-4.61-6.69-9.06-9.06-14.14c0,0-0.17-0.47-0.17-0.47l-0.12-0.57 c-0.08-0.07,0.96,0.12,0.96,0.11l-1.25,3.13l-0.29,0.72c-4.63-4.63-8.73-10.87-7.61-17.7c0.65-6.31,1.86-12.51,3.21-18.69 c1.4-3.49,3.58-8.4,4.8-11.89c0,0,0.72,0.61,0.72,0.61c-0.69,0.38-4.95,2.84-5.57,3.18c6.05-21.77,12.35-43.51,20.44-64.62 C398.09,326.88,403.71,312.17,407.56,311.85L407.56,311.85z M408.38,312.42c-2.02,0.7-2.77,2.1-3.91,3.71 c-2.9,4.68-4.97,9.84-7.02,14.95c-7.93,20.69-14.13,42.02-20.09,63.35c0,0-0.73-0.56-0.73-0.56c0.95-0.53,4.88-2.8,5.73-3.27 c-0.83,2.28-1.88,5.04-2.85,7.28c0,0-2.45,5.94-2.45,5.94c-0.55,2.59-1.29,6.19-1.81,9.13c-1.96,11.51-3.25,16.41,5.45,25.63 c0,0-0.81,0.17-0.81,0.17l1.25-3.13l0.49-1.22l0.47,1.35c0.93,2.18,2.56,4.02,3.96,5.93c1.05,1.31,5.26,6.7,6.28,8.03 c0.86,0.92,2.15,1.34,3.44,1.9c3.43,1.33,7.07,2.16,10.57,3.56c0.81,0.35,1.91,0.89,2.07,1.93c-0.01-0.17-0.09-0.31-0.19-0.44 c-0.11-0.13-0.13-0.1-0.07-0.08c0.28,0.1,0.63,0.21,0.98,0.27c2.87,0.62,6.12,0.23,8.9,1.65c0.53,0.19,1.24,0.32,1.86,0.37 c3.62,0.31,7.36,0.19,11.01,0.06c6.34,0.28,12.85,0.6,19.19,1.12c-2.69,0.29-15.9,2.72-18.88,3.18 c-2.72,0.44-8.35,1.59-11.03,1.74c-9.45-0.67-18.82-4.4-27.92-6.8c-1.52-0.5-2.96-1.29-4.24-2.18c-4.11-2.87-7.7-6.31-11.07-9.94 c-1.66-1.85-3.32-3.68-4.61-5.93c-2.1-4.62-2.55-9.6-3.53-14.47c-0.61-2.43-0.84-4.93-0.76-7.43c0.03-4.95,0.29-9.88,0.6-14.81 l0.02-0.33c0.56-0.15,1.18-0.51,1.25-1.12c0.1-0.62-0.25-1.11-0.3-1.82c-0.03-4.06,1.56-7.9,2.24-11.77 c0.15-1.37,0.66-2.62,1.07-3.9c0.79-2.36,3.07-8.8,3.93-11.24c3.57-9.95,7.21-19.88,10.87-29.8l0.45,0.67 c-11.66-0.17-21.43-8.55-25.18-19.33c0,0-0.17-0.49-0.17-0.49l0.52-0.14l2.1-0.55l-0.15,0.9c-0.76-0.49-1.42-0.98-2.08-1.55 c-4.57-4.35-6.05-10.95-6.44-17.04c0,0,0.55,0.02,0.55,0.02l2.54,0.11l-0.52,0.5c-0.03-0.8-0.65-1.67-1.27-2.31 c-0.41-0.55-0.65-1.14-0.87-1.76c-0.53-1.46-1.05-3.64-1.19-4.63c-0.28-0.63-0.34-1.22-0.39-1.81c-0.12-1.91,0.13-3.8,0.44-5.68 c0,0,0.55,0.16,0.55,0.16l2.11,0.63l-0.64,0.48v-2.11c0.13-1.33,0.3-2.65,0.47-3.98c0.15-0.85,0.18-1.71,0.49-2.57 c0.03-0.04,0.04-0.1,0.15-0.21c0.11-0.08,0.27-0.19,0.55-0.1c0.14,0.06,0.12,0.07,0.18,0.12c0.04,0.04,0.08,0.1,0.08,0.11 c0.09,0.18,0.08,0.21,0.1,0.28c0.02,0.12,0.04,0.23,0.04,0.16c2.14,1.63,5.12,2.44,7.65,3.47c4.92,1.79,9.93,3.42,14.94,4.97 l-0.62,0.31l1.05-2.95l0.13-0.35c6.4,0.25,11.17,5.09,15.33,9.4c0.47,0.64,0.87,0.05,0.95-0.37c0,0,0.09-2.31,0.09-2.31l0.04,0.22 c-0.09-0.24-0.2-0.54-0.06-0.84c0.14-0.26,0.5-0.39,0.77-0.28c0.37,0.14,0.48,0.28,0.68,0.42c1.03,0.8,1.87,1.9,2.39,3.03 c1.46,2.98,2.49,6.1,3.52,9.23c0.26,0.89,0.87,2.69,1.1,3.52c0,0,0.18,0.59,0.18,0.59l0.09,0.3 C408.44,311.92,408.47,312.21,408.38,312.42L408.38,312.42z"/> </g> <g> <path class="st5" d="M465.45,312.38c0,0,3.15-14.49,6.09-16.59c0,0,1.89,3.36,1.68,4.41s8.19-12.6,15.96-11.13v2.31 c0,0,18.91-4.41,23.53-7.35c0,0,1.68,1.26,1.26,6.09h2.52c0,0,0.21,13.65-3.36,15.96h2.1c0,0,0.42,11.55-7.98,17.86h2.6 c0,0-10.85,22.28-29.49,19.38C480.37,343.32,468.93,313.7,465.45,312.38z"/> <path class="st1" d="M465.02,312.62c-0.13-0.41,0.13-1.02,0.2-1.44c0.6-2.48,1.28-5.14,2.05-7.57c1.09-3.02,1.8-6.46,4.43-8.6 c0.81,1.55,2.11,3.74,2.03,5.16c-0.02-0.35-0.53-0.53-0.74-0.33c0.21-0.22,0.61-0.76,0.82-1c3.82-4.62,9.12-11.41,15.9-10.19 c0,0.24,0,2.43,0,2.73c0,0-0.61-0.49-0.61-0.49c3.99-0.95,7.98-1.98,11.93-3.11c3.97-1.22,8.2-2.3,11.78-4.37 c1.92,1.7,1.82,4.44,1.7,6.75c0,0-0.5-0.54-0.5-0.54h2.52h0.5l0,0.49c-0.15,4.43,0.02,13.42-3.59,16.39c0,0-0.27-0.92-0.27-0.92 h2.1h0.5c0.06,5.33-1.34,10.75-4.53,15.06c-1,1.42-2.31,2.59-3.65,3.69l-0.3-0.9c0.48-0.03,2.95,0.02,3.42,0 c0,0-0.37,0.72-0.37,0.72c-4.42,8.36-11.13,16.28-20.41,19.24c-3.1,0.96-6.43,1.17-9.65,0.72c0,0-0.63-0.51-0.63-0.51 c-0.82-0.45-0.84-1.21-1.15-1.86c-1.74-4.59-3.71-9.48-5.58-14c-1.96-4.58-3.79-9.27-6.4-13.51 C466.09,313.6,465.61,313.06,465.02,312.62L465.02,312.62z M465.89,312.15c0.08,0.01,0.16,0.01,0.22,0.03 c1.09,0.87,1.82,2.07,2.56,3.21c3.75,6.2,6.63,12.86,9.51,19.49c0,0,1.68,3.99,1.68,3.99l0.83,2c0.22,0.69,0.73,1.26,0.43,2.16 c0,0-0.65-0.52-0.63-0.51c12.75,2.13,23.32-8.41,28.91-18.8c0,0,0.45,0.72,0.45,0.72c-0.95,0.01-3.09-0.01-4,0 c0,0,1.1-0.9,1.1-0.9c5.31-4.03,7.76-10.93,7.78-17.44c0,0,0.5,0.48,0.5,0.48c-0.93,0-2.76,0-3.67,0c0,0,1.3-0.92,1.3-0.92 c0.93-0.66,1.46-2.01,1.85-3.27c1.09-3.96,1.26-8.17,1.29-12.27c0,0,0.5,0.49,0.5,0.49c-0.49,0.02-2.66-0.01-3.06,0 c0.16-2.03,0.33-4.56-1.02-6.19c0,0,0.57,0.02,0.57,0.02c-7.45,3.74-15.68,5.31-23.68,7.42c0,0-0.61,0.15-0.61,0.15 c0-0.52,0-2.41,0-2.94c0,0,0.41,0.49,0.41,0.49c-6.3-0.74-11.42,6.14-15.01,10.52c-0.16,0.19-0.33,0.43-0.55,0.59 c-0.31,0.24-0.85-0.03-0.81-0.43c0.02-1.36-0.99-2.93-1.61-4.2c0,0,0.73,0.16,0.73,0.16c-0.98,0.87-1.61,2.32-2.14,3.56 c-1.12,2.72-1.94,5.58-2.7,8.43c-0.17,0.69-0.66,2.55-0.81,3.23c-0.04,0.18-0.18,0.79-0.21,0.89 C465.98,312.25,465.95,312.18,465.89,312.15L465.89,312.15z"/> </g> <g> <path class="st3" d="M479.87,346.43c0,0,16.26,40.66,15.66,43.97s-0.6,3.31-0.6,3.31l-3.95-3.92c0,0-1.8-0.41-1.06,1.95 c0.74,2.36,6.8,15.51,6.8,15.51s3.1,16.1,2.36,18.32s-4.14,10.19-4.14,10.19l-1.63,2.58l-0.74-4.2c0,0-1.48-1.18-1.63,0 c-0.15,1.18-2.81,8.72-2.81,8.72l-4.28,4.43l-5.61,3.55l-6.8,1.92l-1.48,1.05c0,0,2.93-17.32,0-22.33 c-2.93-5.02-9.53-23.34-9.53-23.34s-6.6-14.29-6.23-17.22c0.37-2.93-1.83-22.72,4.76-27.48 C465.58,358.68,475.12,344.8,479.87,346.43z"/> <path d="M480.22,346.06c0.25,0.38,0.19,0.4,0.27,0.54l0.14,0.36l0.29,0.73c0.34,0.82,1.37,3.49,1.73,4.37 c2.21,5.7,4.63,11.86,6.74,17.55c2.34,6.67,5.19,13.24,6.64,20.18c0.04,0.26,0.02,0.71-0.04,0.92c-0.12,0.74-0.62,3.34-0.73,4.01 c0,0-0.67-0.67-0.67-0.67c-1.15-0.04-2.08-0.38-2.99-0.94c-0.57-0.45-1.34-0.76-1.35-1.6c0.01-0.34,0.07-0.73,0.37-1.36l0.25,0.14 c-1.1-0.26-0.04,1.69,0.63,3.07c0,0,2.24,4.4,2.24,4.4l4.48,8.81c1.22,4.95,2.13,9.91,2.83,15.06c0.14,1.46,0.37,3,0.02,4.48 c-0.35,1.26-0.94,2.46-1.35,3.63c-0.87,2.13-1.92,5.09-3.29,6.97c-1.05,1.1-2.49,1.9-3.93,2.45c0,0,0.32-0.72,0.33-0.72l-0.74-4.2 c0,0,0.18,0.31,0.18,0.3c-0.24,0.01-0.48,0-0.67,0.04c-0.16,0-0.36,0.17,0.01,0.21c0.32,0,0.56-0.29,0.73-0.46 c-0.06,3.3-1.42,6.35-3.71,8.71c0,0-0.11,0.18-0.11,0.18l-4.28,4.43l-0.04,0.04l-0.05,0.03l-5.61,3.55l-0.06,0.04l-0.07,0.02 l-6.8,1.92l0.15-0.07l-1.48,1.05l-0.98,0.69l0.2-1.19c0.53-3.92,0.89-7.89,0.97-11.83c-0.01-3.81,0.16-7.85-1.99-11.14 c-3.62-7.22-6.39-14.67-9.27-22.17c-2.1-4.86-5.43-10.82-6.15-16.61c-0.05-0.38-0.02-1,0.05-1.41c0.98-8.17-1.21-21.06,5.2-27.31 c2.52-1.85,4.65-4.02,6.82-6.26C468.2,354.18,475.86,344.2,480.22,346.06L480.22,346.06z M479.53,346.79 c-2.86-0.02-5.16,2.48-7.21,4.28c-4.51,4.24-8.35,9.31-13.31,13.09c-5.35,5.08-4.15,19.6-3.62,26.59c-0.02,1.16,0.65,2.6,1.14,4 c1.53,4.21,3.29,8.77,5.12,12.84c1.33,3.78,2.68,7.56,4.1,11.31c1.41,3.7,2.8,7.45,4.47,10.97c0.44,0.89,1.04,1.92,1.25,2.89 c0.78,3,0.67,6.17,0.5,9.2c-0.26,4.02-0.8,7.99-1.52,11.93l-0.78-0.49c0.1-0.07,1.54-1.13,1.63-1.12c0,0,6.8-1.92,6.8-1.92 l-0.13,0.06l5.61-3.55l-0.09,0.08l4.28-4.43c-0.31,0.82-0.18-2.56-0.1-2.78c0.29-2,0.83-4.09,1.89-5.77 c0.08-0.27,0.16-0.47,0.34-0.75c0.53-0.89,1.82-0.94,2.45-0.24c0.24,0.25,0.39,0.49,0.52,0.78l0.15,0.12l0.03,0.19l0.74,4.2 c0.01,0.01-0.92-0.18-0.92-0.18c-0.02-0.61,0.07-1.16,0.16-1.7c0.1-0.54,0.25-1.05,0.41-1.54l-0.13,0.25 c0.21-1.24,0.6-2.41,1.09-3.53c0.73-1.88,2.08-4.78,2.69-6.64c-0.08-5.77-1.25-11.6-2.02-17.35c0,0,0.12,0.38,0.12,0.38 c-1.27-3.06-2.5-6.12-3.67-9.22c-0.58-1.55-1.17-3.1-1.69-4.69c-0.37-1.37-1.74-4.03,0.36-4.76c0.41-0.08,0.79-0.06,1.13,0.15 c0.9-0.39,1.46-0.58,2.09-0.13c1.09,1.11,1.78,2.44,1.85,4.06c0,0-0.84,0.27-0.84,0.27l0.56-3.08c0.1-0.53-0.01-0.86-0.09-1.36 c-0.55-2.52-1.41-4.97-2.23-7.43c-1.34-3.94-2.78-7.86-4.24-11.77c-2.67-7.18-5.64-14.77-8.46-21.9c0,0-0.29-0.73-0.29-0.73 l-0.14-0.36C479.53,346.87,479.38,346.65,479.53,346.79L479.53,346.79z"/> </g> <g> <path class="st3" d="M424.13,460.3c0,0-32.47-13.43-23.2-30.67s15.24-31.82,15.24-31.82s3.98-14.58,2.98-16.57 s-8.2-41.84-26.8-37.66l-15.46,50.72l4.52-2.58l-4.8,11.91l-3.34,21.1c0,0,5.85,17.34,7.1,14.21s1.25-3.13,1.25-3.13l0,0 l9.82,14.62L424.13,460.3z"/> <path d="M423.66,460.13c-0.09,0.08-0.08,0.41,0.08,0.52c0.18,0.12,0.06,0.04,0.06,0.05l-0.14-0.06l-0.29-0.12 c-10.31-4.49-27.37-14.09-24.81-27.5c0.74-3.32,2.74-6.11,4.17-9.13c2.99-5.78,5.75-11.68,8.5-17.58 c1.35-2.82,3.07-6.17,4.28-8.69c1.3-3.98,2.28-8.08,2.97-12.21c0.17-1.25,0.45-2.68,0.18-3.89c-3.68-11.61-10.01-40.25-26.2-37.47 c1.41-2.4-15.5,51.03-15.1,50.38c0,0-0.73-0.58-0.73-0.58c0.93-0.55,4.93-2.8,5.77-3.3c-0.14,0.18-5.05,12.63-5.34,13.24 c0.08-0.59-3.31,21.13-3.31,20.99c0.84,1.92,2.28,6.46,3.54,9.16c0.77,1.65,1.41,3.46,2.59,4.76c0.15,0.14,0.13,0.03-0.01,0.1 c-0.02,0-0.03,0.03-0.02,0.02c0.45-1.05,1.22-3.04,1.66-4.11c0,0,0.53,0.79,0.53,0.79c0,0,9.82,14.62,9.82,14.62 c0,0-0.27-0.2-0.27-0.2c4.48,1.07,11.17,3.1,15.54,4.11c2.07,0.55,5.63,2.14,7.77,2.95C417.66,458.08,420.58,459.13,423.66,460.13 L423.66,460.13z M424.6,460.46c-3.43-0.94-8.03-1.94-11.72-2.68c-2.83-0.41-6.18-1.81-8.94-2.64c-2.88-0.93-9.69-3.26-12.65-4.25 l-0.18-0.06c0,0-0.09-0.14-0.09-0.14c0,0-9.82-14.62-9.82-14.62l0.88-0.09l-0.94,2.34l-0.23,0.59c-0.05,0.11-0.06,0.17-0.15,0.34 l-0.12,0.21c-0.18,0.27-0.71,0.44-0.97,0.29c-0.45-0.15-0.68-0.5-0.93-0.8c-1.04-1.48-1.68-3.03-2.37-4.58 c-1.33-3.12-2.48-6.28-3.58-9.48l-0.04-0.12l0.02-0.12l3.34-21.1l0.01-0.06l0.02-0.05l4.8-11.91l0.71,0.62 c-0.79,0.44-4.91,2.81-5.61,3.21c0,0,0.37-1.2,0.37-1.2l15.46-50.72l0.09-0.3c2.93-0.7,6.15-0.48,8.86,0.97 c9.54,5.36,13.98,18.96,16.82,28.9c0.74,2.63,1.28,5.54,2.06,8.11c0.16,0.5,0.15,0.87,0.15,1.25c-0.13,2.5-0.68,4.94-1.19,7.37 c-0.65,2.77-1.23,5.55-1.86,8.33c-3.19,9.32-7.65,18.1-12.16,26.83c-1.35,2.85-3.32,5.52-4.04,8.59 c-2.48,11.84,13.64,21.29,22.63,25.84c0,0,0.55,0.26,0.55,0.26l0.27,0.13l0.14,0.06c0.05,0.03-0.03-0.03,0.2,0.11 C424.59,460.02,424.64,460.36,424.6,460.46L424.6,460.46z"/> </g> <path class="st6" d="M436.94,453.78c0,0-29.59,1.83-26.54-20.13c0,0,0.92-11.59,11.29-10.37s12.2,1.53,15.25,1.53 s13.12-1.62,13.12-1.62s7.93-1.74,10.68,3.14c2.75,4.88,1.06,18.16-1.02,19.72C457.62,447.62,455.71,454.21,436.94,453.78z"/> <g> <path class="st7" d="M465.16,447.08l2.85-8.73c0,0,13.44-3.06,9.02-17.41s3.95-1.15,4.11,0c0.16,1.15,2.85,6.05,1.42,13.01 c-1.42,6.96-6.33,11.23-6.33,11.23l-4.9,3.16C471.32,448.35,465.31,449.61,465.16,447.08z"/> <path class="st1" d="M464.66,447.02c0.39-3.16,1.6-6.29,3.03-9.14c6.92-1.64,10.96-7.6,9.37-14.63c-0.27-1.14-0.68-2.72-1.02-3.83 c-0.35-1.57-1.05-3.27-0.71-4.97c1.27-2.61,4.81,3.68,5.49,4.74c0.3,0.54,0.67,1.13,0.81,1.74c-0.01,0.03,0.65,1.99,0.68,2.07 c2.8,7.86,0.3,17-5.82,22.61c0,0-4.9,3.16-4.9,3.16l-0.08,0.05C469.54,449.13,464.93,449.98,464.66,447.02L464.66,447.02z M465.65,447.15c0.31,0.9,1.4,0.93,2.25,1.01c1.09,0.04,2.23-0.09,3.31-0.29l-0.17,0.07l4.9-3.16c5.51-5.09,8.16-14.04,5.41-21.46 c-0.22-0.72-0.53-1.43-0.71-2.21c-0.05-0.25-0.13-0.33-0.23-0.56c-1.15-2-2.37-4.3-4.22-5.7c-0.06-0.04-0.03,0-0.04-0.02 c0.03,0.03,0.1-0.05,0.11-0.04c0.01,0,0.02-0.02,0.01-0.03c-0.01,0.07-0.04,0.09-0.04,0.19c0.14,4.07,2.53,8.04,2.11,12.23 c-0.11,5.76-4.87,10.31-10.24,11.68c-0.01,0,0.36-0.33,0.36-0.33C467.94,441.56,467.17,444.38,465.65,447.15L465.65,447.15z"/> </g> <g> <path class="st7" d="M407.02,447.84c0,0-2.78-8.65-2.38-9.49c0.4-0.84-11.51-1.11-9.73-15.47c1.79-14.36-2.38-6.42-2.38-6.42 s-4.96,11.91-2.78,18.26C391.93,441.09,395.9,449.43,407.02,447.84z"/> <path class="st1" d="M406.59,447.57c-0.08,0.07-0.12,0.22-0.09,0.32l-0.01-0.02c-0.01-0.02-0.06-0.17-0.07-0.19 c-0.97-2.87-2.08-6.05-2.42-9.06c0-0.12,0.04-0.34,0.08-0.47c0.05-0.14-0.09,0.13-0.03,0.26c0.06,0.15,0.05,0.18,0.15,0.25 c-0.03-0.01-0.01-0.01-0.07-0.03c-8.58-2.42-11.03-8.97-9.62-17.25c0.13-2.15,0.65-4.57-0.06-6.55c0.06,0.03,0.1-0.02-0.04,0.06 c-0.46,0.24-1.12,1.36-1.38,1.8c-1.85,4.86-3.5,10.09-3.27,15.33c1.04,6.52,5.01,14.03,12.02,15.28c0.75,0.1,1.82,0.25,2.57,0.21 C405.12,447.52,405.81,447.46,406.59,447.57L406.59,447.57z M407.44,448.1c-1.84,0.54-3.94,0.5-5.84,0.19 c-7.17-1.21-11.1-8.39-12.72-14.82c-0.82-5.9,1.11-11.75,3.13-17.21c0.58-0.96,1.61-3.07,3.02-2.38c0.78,0.6,0.74,1.48,0.84,2.27 c0.3,5.16-1.79,10.53,0.62,15.38c1.52,3.33,4.78,4.96,8.15,6.04c0.17,0.07,0.4,0.23,0.5,0.41c0.03,0.03,0.06,0.09,0.08,0.21 c0.06,0.19-0.08,0.52-0.04,0.43c0.36,2.7,1.46,5.74,2.14,8.44C407.39,447.37,407.6,447.79,407.44,448.1L407.44,448.1z"/> </g> <g id="Details"> <path class="st8" d="M147.19,593.07l0.94,8.64h44.43c0,0-11.7-9.97-12.14-14.06c-0.44-4.09-10.54,0-10.54,0l-4.63-0.55 c0,0-3,0.82-3.27,1.91c-0.27,1.09-4.36-3.18-4.36-3.18s-2.73,1.82-1.36,2.91c1.36,1.09-3.55-0.27-4.64-1.36 c-1.09-1.09-5.17,0.82-5.17,0.82L147.19,593.07z"/> <path class="st8" d="M194.43,637.01"/> <path class="st8" d="M202.27,593.07l0.94,8.64h44.43c0,0-11.7-9.97-12.14-14.06c-0.44-4.09-10.54,0-10.54,0l-4.63-0.55 c0,0-3,0.82-3.27,1.91c-0.27,1.09-4.36-3.18-4.36-3.18s-2.73,1.82-1.36,2.91c1.36,1.09-3.55-0.27-4.64-1.36 c-1.09-1.09-5.17,0.82-5.17,0.82L202.27,593.07z"/> <path class="st8" d="M337.68,600.78l0.72,0.93c0,0,0,0,0,0h44.42c0,0,0,0,0,0c-0.06-0.05-11.7-9.98-12.14-14.06 c-0.44-4.09-10.54,0-10.54,0c0,0,0,0,0,0l-4.63-0.55c0,0,0,0,0,0c0,0-3,0.82-3.27,1.91c-0.27,1.09-4.35-3.17-4.36-3.18 c0,0,0,0,0,0c-0.01,0.01-2.73,1.82-1.36,2.91c1.36,1.09-3.55-0.27-4.64-1.36c-1.09-1.09-5.16,0.81-5.17,0.82c0,0,0,0,0,0 L337.68,600.78z"/> <path class="st8" d="M399.06,593.07l0.94,8.64h44.43c0,0-11.7-9.97-12.14-14.06s-10.54,0-10.54,0l-4.63-0.55c0,0-3,0.82-3.27,1.91 c-0.27,1.09-4.36-3.18-4.36-3.18s-2.73,1.82-1.36,2.91c1.36,1.09-3.55-0.27-4.64-1.36c-1.09-1.09-5.17,0.82-5.17,0.82 L399.06,593.07z"/> <g> <path class="st1" d="M128.08,518.6c-1.24-0.22-1.77-1.34-2.24-2.3c-1.25-2.65-1.81-5.65-1.6-8.56c0.04,2.89,0.82,5.73,2.26,8.21 c0.45,0.81,1.05,1.64,1.69,1.65L128.08,518.6L128.08,518.6z"/> </g> <g> <path class="st1" d="M131.96,512.2c-0.24-2.48-1.43-4.9-3.32-6.64c2.02,1.59,3.45,3.96,3.91,6.56L131.96,512.2L131.96,512.2z"/> </g> <g> <path class="st1" d="M132.95,508.89c-0.02-2.87-0.66-5.78-1.88-8.46c1.52,2.53,2.51,5.4,2.88,8.39L132.95,508.89L132.95,508.89z"/> </g> <g> <path class="st1" d="M118.22,511.59l1.87-4.11c2.04-3.93,4.33-8.01,3.56-12.62c1.03,4.57-1.06,8.89-2.88,12.93 c0,0-1.61,4.14-1.61,4.14L118.22,511.59L118.22,511.59z"/> </g> <ellipse class="st9" cx="422.86" cy="437.99" rx="3.91" ry="6.83"/> <ellipse class="st9" cx="448.34" cy="438.35" rx="3.91" ry="6.83"/> <ellipse class="st9" cx="417.35" cy="373.69" rx="4.64" ry="6.38"/> <ellipse class="st9" cx="455.05" cy="373.82" rx="4.06" ry="6.38"/> <circle class="st10" cx="419.03" cy="377.53" r="1.17"/> <circle class="st10" cx="454.15" cy="378.28" r="1.17"/> </g> </g> </svg>