<svg xmlns="http://www.w3.org/2000/svg" xmlns:xlink="http://www.w3.org/1999/xlink" viewBox="27.35 37.28 673.42 916.59">  <defs>   <filter id="b">    <feGaussianBlur stdDeviation=".36655"/>   </filter>   <filter id="t">    <feGaussianBlur stdDeviation="3.37296"/>   </filter>   <filter id="bi">    <feGaussianBlur stdDeviation="18.62715"/>   </filter>   <filter id="u" x="-.25" y="-.25" width="1.5" height="1.5">    <feGaussianBlur in="SourceAlpha" result="blur" stdDeviation="1.3"/>    <feColorMatrix result="bluralpha" values="1 0 0 0 0 0 1 0 0 0 0 0 1 0 0 0 0 0 0.451000 0"/>    <feOffset dx="0" dy="2.9" in="bluralpha" result="offsetBlur"/>    <feMerge>     <feMergeNode in="offsetBlur"/>     <feMergeNode in="SourceGraphic"/>    </feMerge>   </filter>   <filter id="e" x="-.25" y="-.25" width="1.5" height="1.5">    <feGaussianBlur in="SourceAlpha" result="blur" stdDeviation="6.5"/>    <feColorMatrix result="bluralpha" values="1 0 0 0 0 0 1 0 0 0 0 0 1 0 0 0 0 0 0.565000 0"/>    <feOffset dx="0" dy="3.8" in="bluralpha" result="offsetBlur"/>    <feMerge>     <feMergeNode in="offsetBlur"/>     <feMergeNode in="SourceGraphic"/>    </feMerge>   </filter>   <filter id="v" x="-.12617" y="-.10053" width="1.2523" height="1.201">    <feGaussianBlur stdDeviation="6.81725"/>   </filter>   <filter id="w" x="-.20443" y="-.05912" width="1.4088" height="1.1182">    <feGaussianBlur stdDeviation="7.2019"/>   </filter>   <filter id="x" x="-.14461" y="-.10005" width="1.2892" height="1.2001">    <feGaussianBlur stdDeviation="6.85717"/>   </filter>   <linearGradient id="h">    <stop stop-color="#c8ab37" offset="0"/>    <stop stop-color="#3c3411" offset="1"/>   </linearGradient>   <linearGradient id="j">    <stop offset="0"/>    <stop stop-opacity="0" offset="1"/>   </linearGradient>   <linearGradient id="k">    <stop stop-color="#540" offset="0"/>    <stop stop-color="#540" stop-opacity="0" offset="1"/>   </linearGradient>   <linearGradient id="c">    <stop stop-color="#decd87" offset="0"/>    <stop stop-color="#534819" offset="1"/>   </linearGradient>   <linearGradient id="m">    <stop stop-color="#a0892c" offset="0"/>    <stop stop-color="#a0892c" stop-opacity="0" offset="1"/>   </linearGradient>   <linearGradient id="n">    <stop stop-color="#231e0a" offset="0"/>    <stop stop-color="#504416" stop-opacity="0" offset="1"/>   </linearGradient>   <linearGradient id="o">    <stop stop-color="#e9ddaf" offset="0"/>    <stop stop-color="#c9ac3c" stop-opacity=".984" offset="1"/>   </linearGradient>   <linearGradient id="p">    <stop stop-color="#ba3333" offset="0"/>    <stop stop-color="#2b2121" offset="1"/>   </linearGradient>   <linearGradient id="d">    <stop stop-color="#dac262" offset="0"/>    <stop stop-color="#0a0905" offset="1"/>   </linearGradient>   <linearGradient id="r">    <stop stop-color="#ffcd02" offset="0"/>    <stop stop-color="#d0a700" stop-opacity=".112" offset="1"/>   </linearGradient>   <linearGradient id="s">    <stop stop-color="#231b0a" offset="0"/>    <stop stop-color="#f1bf1d" stop-opacity=".744" offset="1"/>   </linearGradient>   <linearGradient id="bh" x1="269.73" x2="323.21" y1="532.41" y2="518.78" gradientUnits="userSpaceOnUse">    <stop stop-color="#d3bc5f" offset="0"/>    <stop stop-color="#463c13" offset="1"/>   </linearGradient>   <linearGradient id="au" x2="0" y1="687.42" y2="693.5" gradientUnits="userSpaceOnUse">    <stop stop-color="#806600" offset="0"/>    <stop stop-color="#241f0c" offset="1"/>   </linearGradient>   <linearGradient id="bd" x1="-2.1515" x2="200.66" y1="170.86" y2="443.7" gradientUnits="userSpaceOnUse">    <stop stop-color="#b1b9bd" offset="0"/>    <stop stop-color="#dde3e6" stop-opacity=".99608" offset=".33392"/>    <stop stop-color="#d2d4d5" offset=".89726"/>    <stop stop-color="#c8d0d5" offset="1"/>    <stop stop-color="#f2f3f4" offset="1"/>    <stop stop-color="#d2d7db" offset="1"/>   </linearGradient>   <linearGradient id="be" x1="-103.83" x2="337.49" y1="584.52" y2="72.98" gradientUnits="userSpaceOnUse">    <stop stop-color="#9da3a6" offset="0"/>    <stop stop-color="#6e7379" offset=".44291"/>    <stop stop-color="#909497" offset=".71266"/>    <stop stop-color="#656769" offset=".77983"/>    <stop stop-color="#999" offset="1"/>   </linearGradient>   <linearGradient id="bf" x1="910.33" x2="1100.1" y1="908.23" y2="595.29" gradientUnits="userSpaceOnUse" spreadMethod="reflect">    <stop stop-color="#955429" offset="0"/>    <stop stop-color="#c46f36" offset=".42282"/>    <stop stop-color="#63371b" offset=".99315"/>    <stop stop-color="#a75d2e" offset=".99658"/>    <stop stop-color="#c46e35" offset=".99829"/>    <stop stop-color="#cc7942" offset="1"/>   </linearGradient>   <linearGradient id="bg" x1="72.68" x2="337.94" y1="525.85" y2="718.43" gradientUnits="userSpaceOnUse">    <stop stop-color="#333" offset="0"/>    <stop stop-color="#333" stop-opacity="0" offset="1"/>   </linearGradient>   <linearGradient id="ak" x1="375.47" x2="454.04" gradientUnits="userSpaceOnUse">    <stop stop-color="#e9ddaf" offset="0"/>    <stop stop-color="#d2b64b" offset="1"/>   </linearGradient>   <linearGradient id="q" x2="0" y1="537.2" y2="524.9" gradientUnits="userSpaceOnUse" xlink:href="#d"/>   <linearGradient id="bc" x1="356.95" x2="368.57" y1="526.11" y2="530.53" gradientTransform="matrix(.65884 -.30863 .0967 .69183 126.49 173.1)" gradientUnits="userSpaceOnUse" xlink:href="#n"/>   <linearGradient id="bb" x1="356.95" x2="368.57" y1="526.11" y2="530.53" gradientTransform="matrix(-.65884 -.06168 -.0967 .72807 623.45 64.996)" gradientUnits="userSpaceOnUse" xlink:href="#n"/>   <linearGradient id="ba" x1="227.71" x2="283.96" y1="444.86" y2="472.79" gradientUnits="userSpaceOnUse" xlink:href="#s"/>   <linearGradient id="l" x1="487.39" x2="385.36" y1="352.19" y2="434.33" gradientTransform="matrix(1.0342 -.18044 -.18945 1 70.979 79.638)" gradientUnits="userSpaceOnUse" xlink:href="#c"/>   <linearGradient id="az" x1="286.07" x2="232.49" y1="431.06" y2="414.63" gradientTransform="matrix(-.69554 .04286 -.1923 .68348 663.13 53.224)" gradientUnits="userSpaceOnUse" xlink:href="#m"/>   <linearGradient id="ay" x1="227.71" x2="283.96" y1="444.86" y2="472.79" gradientTransform="matrix(-1 0 0 1 600.77 7.7908)" gradientUnits="userSpaceOnUse" xlink:href="#s"/>   <linearGradient id="ax" x1="366.82" x2="330.21" y1="358.72" y2="347.5" gradientUnits="userSpaceOnUse" xlink:href="#m"/>   <linearGradient id="aw" x1="365.03" x2="365.94" y1="341.93" y2="336.44" gradientUnits="userSpaceOnUse" xlink:href="#k"/>   <linearGradient id="av" x2="0" y1="330.57" y2="336.12" gradientUnits="userSpaceOnUse" xlink:href="#k"/>   <linearGradient id="at" x1="203.37" x2="277.75" y1="442.95" y2="419.72" gradientUnits="userSpaceOnUse" xlink:href="#d"/>   <linearGradient id="as" x1="199.47" x2="269.43" y1="336.59" y2="359.82" gradientUnits="userSpaceOnUse" xlink:href="#d"/>   <linearGradient id="ar" x1="516.83" x2="475.41" y1="638.54" y2="585.36" gradientUnits="userSpaceOnUse" xlink:href="#d"/>   <linearGradient id="aq" x1="556.76" x2="479.53" y1="548.9" y2="577.18" gradientUnits="userSpaceOnUse" xlink:href="#d"/>   <linearGradient id="ap" x1="539.18" x2="490.19" y1="597.71" y2="631.14" gradientTransform="matrix(.97834 -.20702 .20702 .97834 -178.31 223.91)" gradientUnits="userSpaceOnUse" xlink:href="#c"/>   <linearGradient id="ao" x2="0" y1="267.83" y2="252.38" gradientUnits="userSpaceOnUse" xlink:href="#c"/>   <linearGradient id="an" x2="0" y1="263.81" y2="248.37" gradientUnits="userSpaceOnUse" xlink:href="#c"/>   <linearGradient id="i" x1="539.18" x2="490.19" y1="597.71" y2="631.14" gradientTransform="matrix(-.58928 .80793 -.80793 -.58928 1036.9 186.15)" gradientUnits="userSpaceOnUse" xlink:href="#c"/>   <linearGradient id="am" x1="408.74" x2="370.06" y1="469.1" y2="446.06" gradientUnits="userSpaceOnUse" xlink:href="#j"/>   <linearGradient id="al" x1="408.74" x2="377.61" y1="477.31" y2="437.67" gradientUnits="userSpaceOnUse" xlink:href="#j"/>   <linearGradient id="aj" x1="301.5" x2="360.77" y1="897.06" y2="943.53" gradientUnits="userSpaceOnUse" xlink:href="#h"/>   <linearGradient id="ai" x1="301.5" x2="360.77" y1="897.06" y2="943.53" gradientTransform="matrix(-1 0 0 1 751.49 -7.5761)" gradientUnits="userSpaceOnUse" xlink:href="#h"/>   <radialGradient id="g" cx="250.71" cy="457.18" r="10.461" gradientTransform="matrix(1 0 0 1.4268 0 -195.11)" gradientUnits="userSpaceOnUse">    <stop stop-color="#00c800" offset="0"/>    <stop stop-color="#003500" offset="1"/>   </radialGradient>   <radialGradient id="f" cx="254" cy="463.83" r="4.211" gradientTransform="matrix(.5632 9.6502e-7 -1.8989e-6 1.13 109.63 -60.583)" gradientUnits="userSpaceOnUse">    <stop stop-color="#fff" offset="0"/>    <stop stop-color="#6a0000" stop-opacity=".928" offset="1"/>   </radialGradient>   <radialGradient id="z" cx="299.46" cy="508.79" r="93.05" gradientTransform="matrix(.53508 1.2747e-7 -2.0321e-7 .85303 214.76 -22.895)" gradientUnits="userSpaceOnUse">    <stop stop-color="#d7c36f" offset="0"/>    <stop stop-color="#66581c" offset="1"/>   </radialGradient>   <radialGradient id="y" cx="380.64" cy="647.19" r="327.01" gradientTransform="matrix(.61024 0 0 .7444 142.26 230.49)" gradientUnits="userSpaceOnUse">    <stop stop-color="#947b19" offset="0"/>    <stop stop-color="#675c2e" offset="1"/>   </radialGradient>   <radialGradient id="a" cx="120.68" cy="234.51" r="63.188" gradientTransform="matrix(1 0 0 .9429 0 13.391)" gradientUnits="userSpaceOnUse">    <stop stop-color="#502d16" offset="0"/>    <stop stop-color="#502d16" stop-opacity="0" offset="1"/>   </radialGradient>   <radialGradient id="ag" cx="149.76" cy="80.934" r="23.925" gradientTransform="matrix(1.2713 -5.3712e-8 1.1035e-7 .87883 55.445 12.885)" gradientUnits="userSpaceOnUse">    <stop stop-color="#626262" offset="0"/>    <stop stop-color="#7f7f7f" stop-opacity="0" offset="1"/>   </radialGradient>   <radialGradient id="ah" cx="299.01" cy="243.96" r="115.39" gradientTransform="matrix(2.2564 .30344 -.37519 1.8512 -289.73 -244.52)" gradientUnits="userSpaceOnUse">    <stop stop-color="#484848" offset="0"/>    <stop stop-color="#232323" offset="1"/>   </radialGradient>   <radialGradient id="af" cx="301.53" cy="583.61" r="53.533" gradientTransform="matrix(1 1.1922e-6 -4.8993e-7 .41095 .25264 341.75)" gradientUnits="userSpaceOnUse" xlink:href="#p"/>   <radialGradient id="ae" cx="301.53" cy="583.61" r="53.533" gradientTransform="matrix(1 1.1922e-6 -4.8993e-7 .41095 3.0306 360.44)" gradientUnits="userSpaceOnUse" xlink:href="#p"/>   <radialGradient id="ad" cx="279.88" cy="585.45" r="8.0116" gradientTransform="matrix(-.95871 -.28438 .39006 -1.315 317.96 1425.4)" gradientUnits="userSpaceOnUse" xlink:href="#o"/>   <radialGradient id="ac" cx="279.88" cy="585.45" r="8.0116" gradientTransform="matrix(.95871 -.28438 -.39006 -1.315 281.78 1423.9)" gradientUnits="userSpaceOnUse" xlink:href="#o"/>   <radialGradient id="ab" cx="255.61" cy="456.33" r="26.825" gradientTransform="matrix(1 0 0 .69081 0 141.09)" gradientUnits="userSpaceOnUse" xlink:href="#r"/>   <radialGradient id="aa" cx="255.61" cy="456.33" r="26.825" gradientTransform="matrix(-.93539 .1431 0 .61603 585.35 147.57)" gradientUnits="userSpaceOnUse" xlink:href="#r"/>  </defs>  <g transform="matrix(.9204 0 .42211 .33995 -253.23 613.27)" fill="#24221c" filter="url(#bi)" stroke="#24221c">   <path d="m318.9 675c42.5-10.714 110-4.2857 110-4.2857s-62.143 44.643-110 4.2857z"/>   <path d="m315.33 667.5c43.571 7.1429 124.29 0.71429 127.14-5.7143s-121.43-18.571-127.14 5.7143z"/>   <path d="m322.24 867.5c12.122-10.607 29.294-11.112 29.294-11.112s1.0102 15.152-9.0914 15.152-14.647 2.5254-17.173 0-1.5152-3.5355-3.0305-4.0406z"/>   <path d="m427.82 860.62c-11.699-11.257-28.273-11.793-28.273-11.793s-0.97494 16.082 8.7744 16.082 14.137 2.6802 16.574 0 1.4624-3.7524 2.9248-4.2884z" stroke-width="1.0121"/>   <path d="m488.52 479.63c-12.59-1.5639-18.639-0.28274-37.069 11.444-21.873 13.917-36.429 13.376-36.429 13.376s-15.689 9.5786-14.817-32.267l-27.507 17.7-23.829-15.945c0.87177 41.845-14.817 32.248-14.817 32.248s-21.875-1.6572-40.897-8.2414c-11.828-4.0941-19.294-13.426-28.73-13.426-23.265 0.96744-25.062 21.964-15.05 28.642 7.8317 5.2243 31.266 3.8408 38.47 39.901 6.1316 30.693 48.817 64.709 45.33 108.3s-21 29.606-25.529 57.648c-11.895 73.662-21.577 60.661-21.09 77.133 0.46282 15.652 3.4453-0.22634 25.092 48.197 9.9365 22.227 19.614 26.292 19.143 34.383-0.44516 7.6479-14.571 21.2-26.009 34.332-23.538 27.025-43.431 9.3725-46.918 13.731s25.026 26.99 25.026 26.99 23.491-1.1535 37.44-14.23 42.493-48.902 35.519-63.722c-4.2542-9.0402-24.148-42.437-27.718-81.602 3.6372-16.815 26.044-51.334 47.417-71.683 20.992 18.611 32.729 45.727 44.244 69.851-8.576 41.969-22.3 72.633-26.566 81.699-6.9742 14.82 30.2 45.097 44.149 58.174s33.741 14.846 33.741 14.846 23.582-13.384 20.095-17.743-24.016-6.4323-47.554-22.978c-19.668-13.825-16.226-15.453-29.538-30.69 1.6693-3.7901 4.5818-13.094 14.658-32.496 27.769-53.469 30.09-37.008 30.52-50.687 0.50597-16.094-6.3102-5.7371-22.8-74.623-9.2558-38.667-17.11-14.676-20.597-58.265s33.097-75.809 45.33-104.62c15.834-37.293-14.951-23.384 31.36-38.611 15.662-18.861 12.982-30.744-4.0696-36.763z" stroke-width=".61024"/>   <path d="m373.42 316.9c59.56 7.8112 86.111 44.204 54.56 110.6-8.8409 43.422-40.22 72.323-53.584 72.323-11.41 0-44.354-27.309-52.607-71.228-31.477-68.14-8.9061-99.001 51.631-111.69z" stroke-width=".68348"/>   <g transform="matrix(.68348 0 0 .68348 173.06 63.372)">    <path d="m265.42 532.89c-10.354-4.7982 5.8084-33.588 15.405-36.113s14.142 39.648-15.405 36.113z"/>    <path transform="matrix(-.96095 -.18107 0 .56292 566.61 289.04)" d="m315.17 529.23c0 3.8355-2.8266 6.9448-6.3134 6.9448s-6.3135-3.1093-6.3135-6.9448 2.8266-6.9448 6.3135-6.9448c3.484 0 6.3095 3.1045 6.3134 6.937" fill-rule="evenodd" opacity=".8894" stroke-linejoin="bevel"/>    <path d="m295.46 478.83c-43.362 45.34-33.027 93.196-17.626 81.349 18.571-14.286 17.25-26.796 27.633-26.204 10.253 0.5843 18.564-9.4306 17.135-18.002s-15.714-18.571-15.714-18.571"/>    <path transform="matrix(1.1185 -.16915 0 .52586 -36.966 304.21)" d="m315.17 529.23c0 3.8355-2.8266 6.9448-6.3134 6.9448s-6.3135-3.1093-6.3135-6.9448 2.8266-6.9448 6.3135-6.9448c3.484 0 6.3095 3.1045 6.3134 6.937" fill-rule="evenodd" opacity=".8894" stroke-linejoin="bevel"/>   </g>   <g transform="matrix(.68348 0 0 .68348 170.33 63.372)">    <path d="m249.51 587.69s8.3338-14.142 17.425-7.0711 10.354 12.627 23.739 13.385c14.263 0.80734 18.193 0.78546 28.284-3.0305 10.027-3.7915 4.96-5.2781 13.637-11.364 7.7248-5.4182 20.071 1.5458 19.445 0.75761-9.4783-11.934-17.988-13.105-30.557-8.3338-11.53 4.3772-19.124-4.5717-21.971-4.5457-2.4314 0.0222-11.617 10.102-23.739 5.3033-10.116-4.0042-27.779-1.2627-26.264 14.9z"/>    <path d="m267.55 588.89c2.2092 3.8098 10.123 5.6056 13.657 2.8255s-2.0732-20.866-2.0732-20.866c-13.284 15.227-11.902 15.651-11.584 18.04z"/>    <path d="m332.18 587.38c-2.2092 3.8098-10.123 5.6056-13.657 2.8255s2.0732-20.866 2.0732-20.866c13.284 15.227 11.902 15.651 11.584 18.04z"/>    <path d="m249.26 588.2s11.364 4.0406 20.456 11.112 10.354 12.627 23.739 13.385c14.263 0.80734 17.985 0.18069 28.284-3.0305 6.491-2.0238 4.96-5.2781 13.637-11.364 7.7248-5.4182 17.532-16.91 16.668-17.425-15.792-9.4088-25.064 4.8202-26.264 6.0609-6.5891 6.8105-20.892 8.0552-23.739 8.0812-2.4314 0.0222-25.759-0.75762-31.315-10.607-5.3454-9.476-21.466-5.3033-21.466 3.7881z"/>   </g>   <path d="m413.82 455.7c-8.9568-28.567 0.28446-41.087 4.8852-46.22s3.4552-8.1027 7.0729-9.6423c2.779-1.1827 4.4205 1.1869 4.4205 1.1869" stroke-width=".69688"/>   <path d="m336.12 455.29c8.9567-31.924-0.28446-40.98-4.8852-44.389s-3.4552-6.8077-7.0729-6.9914c-2.779-0.1411-4.4206 2.8438-4.4206 2.8438" stroke-width=".69688"/>   <g transform="matrix(.68348 0 0 .68348 168.96 68.697)">    <path d="m228.21 449.86c5.7143 28.929 12.5 32.5 18.214 32.857s23.571 1.7857 34.643-7.8571-18.929-65.357-36.071-50.714-16.786 25-16.786 25.714z"/>    <path d="m228.21 448.43s14.286-17.5 26.429-14.286 27.143 33.214 27.5 37.857-28.571 6.0714-37.857-1.4286-16.071-21.786-16.071-22.143z"/>    <path d="m229.29 450.08c21.429-19.442 31.429-12.324 41.429 3.3649s17.143 23.018 4.2857 20.397-30 0.0757-45.714-23.762z"/>    <path transform="matrix(.83119 0 0 .74749 45.18 117.41)" d="m260.71 457.18c0 7.9884-4.4772 14.464-10 14.464s-10-6.4759-10-14.464 4.4772-14.464 10-14.464 10 6.4759 10 14.464z" fill-rule="evenodd" opacity=".8894" stroke-linejoin="bevel" stroke-width=".922"/>    <path transform="translate(.85714 -2.8571)" d="m256.43 462.01c0 2.9587-1.6789 5.3571-3.75 5.3571s-3.75-2.3985-3.75-5.3571 1.6789-5.3572 3.75-5.3572 3.75 2.3985 3.75 5.3572z" fill-rule="evenodd" opacity=".8894" stroke-linejoin="bevel" stroke-width=".922"/>   </g>   <path d="m323.13 355.02s10.66-17.751 14.209-11.243c3.9861 7.3082 15.428-0.75724 25.363 8.0106 7.4593 6.5826 1.5812 12.585 1.5812 12.585s-16.249-10.103-21.636-10.715c-7.2329-0.82205-11.236 4.1844-19.518 1.3622z" stroke-width=".68348"/>   <g transform="matrix(.68348 0 0 .68348 170.33 63.372)">    <path d="m372.56 457.65c-5.7143 28.929-12.5 32.5-18.214 32.857s-23.571 1.7857-34.643-7.8571 18.929-65.357 36.071-50.714 16.786 25 16.786 25.714z"/>    <path d="m371.89 454.3s-13.363-13.561-24.721-8.9575-25.389 33.503-25.723 37.694 26.725 1.3258 35.411-6.6911 15.033-21.727 15.033-22.046z" stroke-width=".91331"/>    <path d="m370.88 455.92c-20.044-14.271-29.398-6.4928-38.752 8.9289s-16.035 22.979-4.0088 18.803 28.062-4.2255 42.76-27.732z" stroke-width=".91331"/>    <path transform="matrix(-.83119 0 0 .74749 551.3 125.56)" d="m260.71 457.18c0 7.9884-4.4772 14.464-10 14.464s-10-6.4759-10-14.464 4.4772-14.464 10-14.464 10 6.4759 10 14.464z" fill-rule="evenodd" opacity=".8894" stroke-linejoin="bevel" stroke-width=".922"/>    <path transform="matrix(-1 0 0 1 595.63 5.2908)" d="m256.43 462.01c0 2.9587-1.6789 5.3571-3.75 5.3571s-3.75-2.3985-3.75-5.3571 1.6789-5.3572 3.75-5.3572 3.75 2.3985 3.75 5.3572z" fill-rule="evenodd" opacity=".8894" stroke-linejoin="bevel" stroke-width=".922"/>   </g>   <path d="m426.77 353.66s-5.8534-17.082-11.297-10.351c-6.1126 7.5582-15.487 0.21028-28.065 9.6011-9.443 7.0504-5.1499 12.684-5.1499 12.684s19.378-11.122 25.032-12.072c7.5918-1.2756 10.257 3.4798 19.48 0.13814z" stroke-width=".68348"/>   <g transform="matrix(.55711 0 0 .55711 219.33 122.81)">    <path d="m394.97 467.48c141.42-115.16 141.42-123.24 141.42-123.24s-130.31 37.376-141.42 123.24z"/>    <path d="m388.27 447.01c4.361-60.343 38.763-81.974 83.597-94.68s68.375-8.9997 68.375-8.9997-82.163 23.127-105.68 67.277-42.528 59.189-42.528 59.189"/>   </g>   <g transform="matrix(-.5668 .29363 .15909 .52903 458.79 20.482)">    <path d="m394.97 467.48c141.42-115.16 141.42-123.24 141.42-123.24s-130.31 37.376-141.42 123.24z"/>    <path d="m388.27 447.01c4.361-60.343 38.763-81.974 83.597-94.68s68.375-8.9997 68.375-8.9997-82.163 23.127-105.68 67.277-42.528 59.189-42.528 59.189"/>   </g>   <path d="m339.02 333.45c13.181-0.48819 11.351 6.7128 17.697 6.7128s7.323-2.441 14.158 0 13.181 3.4174 13.181 3.4174 6.3466-4.882 8.7876-3.9056" stroke-width=".68348"/>   <path d="m371.33 335.73c15.328 0.56576 17.686-6.5407 22.009-4.4755s7.0743 5.7509 11.398 6.3396 8.6464-0.79143 8.6464-0.79143" stroke-width=".61574"/>   <path d="m350.38 328.93c15.134-3.9056 16.111 0 23.922-1.4646s12.205-2.441 12.205-2.441" stroke-width=".68348"/>   <path d="m444.58 493.04s20.636-16.681 40.42-14.746c11.8 1.1543 20.307 11.692 32.216 28.713 31.876 45.559 46.795 85.765 35.489 109.09s-57.563-68.206-66.201-94.513c-1.2292-3.7431-14.815 1.6156-21.539 3.4991-21.59 6.0482-39.9-7.0348-20.385-32.043z" stroke-width=".61024"/>   <path d="m555.8 585.62c6.5011 14.48 1.7198 44.392-58.675 94.433s25.108-80.464 33.036-85.204" stroke-width=".52488"/>   <path d="m300.5 525.24s-4.1308 6.1754-12.693 6.5016c-9.7859 0.37285-28.602-12.796-40.417-19.664-10.658-6.1944-10.571-13.89-18.018-30.345-22.926-50.656-32.952-90.905-17.538-111.74s44.063 76.939 47.702 104.39c1.9658 14.83 73.264 22.381 40.964 50.862z" stroke-width=".61024"/>   <path d="m209.13 400.49c-11.595-10.839-18.755-40.272 17.586-109.78s7.9662 83.913 2.4878 91.35" stroke-width=".52488"/>   <g transform="matrix(-1 0 0 1 728.76 135.14)" stroke-width=".25">    <path d="m361.25 430.81s31.971-3.5247 40.214 12.091" opacity=".87"/>    <path d="m366.97 454.03s31.971-3.5247 40.214 12.091" opacity=".87"/>    <path d="m362.68 441.88s31.971-3.5247 40.214 12.091" opacity=".87"/>    <path d="m368.4 465.1s31.971-3.5247 40.214 12.091" opacity=".87"/>   </g>   <path d="m304.32 498.98s28.844 2.1415 34.089 4.9969-2.6222 5.7107 0 17.846 15.733 32.837 15.733 32.837-5.2444 12.135-5.2444 28.554 16.607 48.541 13.111 53.538 6.1185 30.695 6.1185 30.695-42.829-8.566-51.57 0-37.585-117.07-27.97-134.92 15.733-34.978 15.733-33.55z" filter="url(#e)" stroke-width="1.1059"/>   <g transform="translate(24.254 135.14)" stroke-width=".25">    <path d="m361.25 430.81s31.971-3.5247 40.214 12.091" opacity=".87"/>    <path d="m366.97 454.03s31.971-3.5247 40.214 12.091" opacity=".87"/>    <path d="m362.68 441.88s31.971-3.5247 40.214 12.091" opacity=".87"/>    <path d="m368.4 465.1s31.971-3.5247 40.214 12.091" opacity=".87"/>   </g>   <path d="m446.88 490.48s-29.004 8.4145-34.169 12.408 2.897 5.1344 0.78644 17.828-14.425 36.226-14.425 36.226 5.8254 10.982 6.5489 27.384-14.614 52.105-10.867 56.336-4.8197 31.995-4.8197 31.995 42.829-17.875 52.024-11.219 32.757-125.13 22.271-140.86-17.413-31.52-17.35-30.094z" filter="url(#e)" stroke-width="1.1154"/>   <path transform="matrix(1.004 0 0 1.0433 17.109 108.01)" d="m301.38 548.55c5.5204 10.613-4.0482 13.907-6.6244 19.397s-2.9442 21.226-10.305 30.376-4.0482 32.572-5.1523 35.133 9.5686-3.2938 13.249-2.1958 5.5203 5.1236 10.305 3.6597 4.7843-10.613 5.8884-16.469-4.0482-36.231-0.73603-45.381 5.5203 21.592 5.5203 21.592l5.1523-6.9535s3.6802-4.3917 0.73604 13.541-6.9924 42.087-6.9924 42.087 4.0482-13.907 6.2564-12.077 1.4721 15.371 1.4721 15.371 0.73605-7.6854 4.4163-8.4174 2.9442 6.2216 6.6244 6.2216 12.145-8.7834 14.721-9.5153 9.2006-32.206 9.2006-32.206 8.8325 33.304 14.721 35.133 7.7285-6.2215 7.7285-6.2215 4.4163 4.7576 3.3122 7.3195 11.777 4.3917 11.777 4.3917l3.3122-13.907s-0.36802 15.371 4.4163 14.273 15.825-6.2215 15.825-6.2215l-3.6802-17.201 6.9924 9.5153v-15.371s1.4721 8.7834 5.8884 10.247 9.9366-3.2938 9.9366-3.2938-15.825-60.02-21.713-63.679-2.9442-13.541-2.9442-13.541-78.757 10.979-109.3 4.3917z" filter="url(#t)" stroke-width="1.0276"/>   <path d="m319.57 675.83c5.5204 10.613-4.0482 13.907-6.6244 19.397s-2.9442 21.226-10.305 30.376-4.0482 32.572-5.1523 35.133 9.5686-3.2938 13.249-2.1958 5.5203 5.1236 10.305 3.6597 4.7843-10.613 5.8884-16.469-4.0482-36.231-0.73603-45.381 5.5203 21.592 5.5203 21.592l5.1523-6.9535s3.6802-4.3917 0.73604 13.541-6.9924 42.087-6.9924 42.087 4.0482-13.907 6.2564-12.077 1.4721 15.371 1.4721 15.371 0.73605-7.6854 4.4163-8.4174 2.9442 6.2216 6.6244 6.2216 12.145-8.7834 14.721-9.5153 9.2006-32.206 9.2006-32.206 8.8325 33.304 14.721 35.133 7.7285-6.2215 7.7285-6.2215 4.4163 4.7576 3.3122 7.3195 11.777 4.3917 11.777 4.3917l3.3122-13.907s-0.36802 15.371 4.4163 14.273 15.825-6.2215 15.825-6.2215l-3.6802-17.201 6.9924 9.5153v-15.371s1.4721 8.7834 5.8884 10.247 9.9366-3.2938 9.9366-3.2938-15.825-60.02-21.713-63.679-2.9442-13.541-2.9442-13.541-78.757 10.979-109.3 4.3917z" stroke-width="1.0276"/>   <path d="m321.04 683.57c-37.143 6.0714 66.429 8.9286 91.786 1.4286s15.714-6.4286 15.714-6.4286" filter="url(#u)" stroke-width="8"/>   <path d="m317.11 500.71s4.2857 68.929-10.714 78.214-16.071 6.4286-16.071 6.4286" filter="url(#b)" stroke-dasharray="1, 2"/>   <path d="m458.9 602.14s-21.429-6.4286-36.429 2.8572-23.929 15.714-23.929 15.714" filter="url(#b)" stroke-dasharray="1, 2"/>   <path d="m451.4 640s-5-1.4286-15-12.5c-11.825-13.092-10-22.857-10-22.857" filter="url(#b)" stroke-dasharray="1, 2"/>   <path d="m436.73 671.23s9.6043-2.9759 14.852-1.7821 13.742 7.6054 13.742 7.6054c29.287-3.0998 19.501 16.524 17.448 19.023s-15.156 8.886-16.581 14.35-0.47387 19.718-3.125 21.828-5.8537-0.82636-5.2078-5.0931-1.3408-13.655 2.6595-19.148-1.9293-4.2381-3.7726-0.75047-4.7508 9.2654-3.9143 13.219 1.5499 14.644-1.0254 14.672-6.0443-9.0462-5.5788-11.726 0.3221-15.556 5.3106-21.258-2.813-3.5348-4.2668-0.64591-4.0475 10.149-4.1993 14.311 1.5212 12.068-1.6527 11.707-6.0915-4.3899-5.7306-7.5638-0.0203-19.614 8.5318-25.553-6.272-2.8029-8.5807 3.3645-4.8739 16.003-8.1524 15.148 0.71165-16.155 1.9849-17.457 4.1521-9.655 8.4947-11.09 16.295-0.96589 20.573-2.8046c1.2433-0.53437-0.26742-3.1057-7.3073-5.6127-6.3575-2.264-18.88-1.1226-14.502-4.7439z"/>   <path d="m255.09 275.99c-4.7012 2.62 0.23114 3.3502 0.23114 3.3502-19.711 21.882-25.549 0.74476-25.693-2.4861s7.7166-16.855 2.7406-19.525c-0.76832-0.41222 0.44838 0.89216-1.9983-1.181-1.9998-1.6945 1.7723-4.315 3.885-4.3358 2.1542-0.0232 2.1676-1.3539 4.6604 2.0017 4.0522 5.4546 5.5178 4.8983 4.5576 1.0722-0.43297-3.165-3.7588-3.0791-1.5763-6.0105 0.73549-0.84986 2.8638-1.419 4.5767-0.90046 2.6032 0.78812 1.9442 0.53544 2.3131 3.468 0.94549 7.5169 4.455 0.74881 3.6052-2.3716s-3.0593-8.647-5.7286-11.844-4.9126-5.5486-3.7392-7.8482c1.4518-2.8454 4.4293-3.3067 5.7467-1.7762 2.0839 2.421 13.125 14.575 10.735 24.709s6.5385-2.1076 4.1332-8.2381-7.0718-15.16-4.0618-16.716 10.269 12.491 10.192 14.311 3.3655 9.9565 1.0949 13.927-11.474 11.611-13.427 15.838c-0.56754 1.2285 2.2749 2.1312 9.1867-0.70985 0.52122-0.11012-12.414 1.6324-11.434 5.2664z"/>   <g transform="matrix(-.19845 .4155 -.32943 -.23638 508.49 129.43)">    <g transform="matrix(.95602 0 0 .98823 9.7024 8.8042)">     <g transform="matrix(.29004 0 0 .35607 167.81 34.475)" fill-rule="evenodd">      <path d="m203.48 449.59s-33.931 9.6906-74.931 66.089c-51.299 70.565-31.114 328.15 22.125 426.45 39.682 73.269 25.19 24.28 63.088 111.8l-193.76-144.42 2.8571-482.86 77.143-117.14 65.714-22.857 77.143 134.29v48.571l-39.374-19.919z" stroke-width="3"/>      <path d="m48.571 166.2c-11.429-2.8571-5.7143 0-54.286 28.571-44.94 26.435-51.429-5.2707-51.429-5.2707l14.286 25.714 214.29 160s46.835 30.617 42.857 117.14c-2.8571 62.143 220 108.57 220 108.57l197.14 142.86 205.71 120s677.72 315.59 867.18 540.77c-22.621 78.867 107.75 108.55 152.4 88.286s203.18-224.37-77.745-231.84c-51.995-1.3656-1233.3-794.36-1233.3-794.36l-248.57-171.43-228.57-140.44-20 11.429z"/>      <path d="m408.57-27.638s15.6-43.908 2.0683 42.857c-8.2477 52.882-60.719 231.31-51.144 277.65-6.2754 53.276-11.392 37.499-19.603 30.512-8.8274-7.5122-8.0164-6.7028-24.856-16.162-17.133-9.6236-85.65 42.841-112.65 102.04-64.871 32.543 114.76-356.89 114.76-356.89l68.571-68.571 22.857-11.429z" stroke-width="3"/>      <path d="m244.46 319.41c-49.193 55.592-61.719 69.665-53.17 91.529-140.22-25.815-144.54 254.95-108.14 323.59 75.706 208.2 134.29 322.86 134.29 322.86s-539.08-229.85-614.59-439.31c-110.71-307.13-88.571-297.14-88.571-297.14 159.73 77.236 441.31 177.93 422.86-28.894 26.863-39.349 43.739-38.165-53.637-214.82 304.31 105.1 539.98-137.22 534.65-116.81 0 0-76.461 262.43-71.099 304.83 5.1109 40.419-52.809-2.0914-102.59 54.166z"/>     </g>     <path d="m216.66 393.19c-45.824-33.112-142.73-57.97-178.81-203.68-6.413-25.906-1.0051-21.453-5.2346-31.046-2.9025-6.5835-6.9083-7.1682-6.9083-7.1682s4.1472 56.343 32.517 123.65c28.488 67.588 171 135.91 171 135.91s-1.7558-5.3143-12.572-17.658z" fill-rule="evenodd"/>     <path d="m195.77 179.84c-11.617-7.8287-21.74-4.897-28.081-17.418-16.013-31.619 5.4316 0.17206-19.193 20.203-24.486 19.919-70.726 4.5956-102.49-13.154-6.1377-7.4682 5.929 34.173 5.929 34.173 26.317 88.944 91.106 127.39 156.99 168.89-25.197-42.171-50.234-122.75-27.101-174.76 0 0 2.3221-9.0988 13.939-17.938z" stroke-opacity=".87869"/>     <path d="m279.69 35.188c-16.038 23.531-67.777 27.001-48.485 54.321l28.964 31.048 19.521-85.369z" stroke-opacity=".94754" stroke-width="1.0996"/>     <path d="m163.64 132.11c-8.7969-20.127 38.664-57.457 47.457-48.46l41.437 42.399s-18.183 3.0305-26.264 21.213-18.183 20.203-18.183 20.203-36.613-17.432-44.447-35.355z"/>     <path d="m176.17 70.816c8.1046-0.15841 0.15589 3.0041-10.147 1.0085s-30.708-8.2765-30.708-8.2765l17.969 42.926 2.875 15.478s-26.391-58.883-25.072-62.554c1.0484-2.9173 30.913 11.695 45.084 11.418z" fill-rule="evenodd"/>     <path d="m278.59 205.75s20.449 28.131 41.946 28.912 50.86 4.6884 37.227-5.4698-8.9136-3.1256-27.265-10.94-30.411-13.284-34.606-18.754-14.157-21.879-20.449-25.005-17.827-15.628-9.4379 3.907 12.584 28.912 12.584 27.349z" opacity=".86" stroke-width=".31683"/>     <path d="m252.5 173.49c7.4388 18.43 12.483 37.908 22.065 55.417 6.9804 11.002 19.275 18.764 32.454 19.002 22.257 3.0301 49.994 3.0298 72.244-0.0301 4.3667-0.99037-2.0427-6.1649-6.3536-4.8292-8.1466-1.9276-16.286-0.35183-24.429-2.2935-16.604 2.9102-34.732 2.2369-50.534-5.4258-12.287-6.1983-19.22-18.645-28.432-28.282-3.0802-9.4578-6.1251-18.94-9.402-28.32-0.51668-5.8794-7.377-15.635-0.42721-19.106 6.1472-0.17711 10.472 5.3789 16.188 7.0079 6.8602 3.293 12.791 8.3477 17.286 14.428 7.124 5.8219 13.774 12.299 19.01 19.896 4.7188 5.473 12.316 9.2476 18.991 10.075 4.1401 1.3892 7.8093 0.81989 11.283 3.4121" stroke-width=".92067"/>     <path d="m272.24 156.86-7.0711-2.5254-11.112-1.5152-3.5355 10.102 2.0203 12.627l3.0304 7.5762"/>     <path d="m244.46 153.33s-2.0203 15.657 1.0102 26.264 7.5761 24.749 7.5761 24.749l5.0508 12.122 4.0406 8.5863 5.5558 8.5863 5.5558 7.0711 3.5327 2.5472"/>     <path d="m235.87 163.43s2.5254 23.234 5.0508 27.779 7.0711 14.142 8.5863 20.203 5.5558 15.657 5.5558 15.657l4.5824 9.5148"/>     <path d="m230.31 173.53 4.0406 25.254s-1.5152 0.50508 1.5152 9.5964 8.0812 13.637 8.0812 13.637l0.50508 6.0609"/>     <path d="m305.07 255.35 25.759 1.5152c13.637 0.50508 26.769 2.5254 36.871-0.50507s18.688-4.0406 18.688-4.0406l3.5355 0.50507 1.0102 6.0609s-1.0102 3.5355-13.132 4.0406-15.152 2.0203-23.739 3.5355-7.5762 2.5254-16.668 1.0102-15.152-3.0304-17.173-3.0304-10.102-1.0102-10.102-1.0102l-1.9116-2.1425" opacity=".8484"/>     <path d="m326.28 274.04c13.637 0.50507 30.81 3.0304 39.901-0.50508s15.152-4.0406 23.739-5.0508 16.162-1.0102 16.162-1.0102l8.5863 6.0609-12.122 1.0102s-9.5964-1.0102-12.627 0-11.112 4.5457-11.112 4.5457-7.5761 5.0508-10.607 5.0508-12.122-0.50507-12.122-0.50507l-10.102-1.0102c-8.0812 0.50508-12.122 0-12.122 0l20.203 16.668 9.5964-3.5355s6.0609 0.50507 15.152-4.0406 5.0508-4.5457 15.152-6.0609 19.193-3.5355 22.223-3.5355h8.5863s6.0609 3.0304 5.5558 6.0609-4.5457 3.5355-11.617 3.5355-14.647-1.0102-19.698 1.5152-12.627 3.0305-14.647 8.5863-3.0304 8.5863-1.0102 12.122 5.0508 6.566 8.5863 10.102 8.0812 7.0711 10.102 9.0914 3.5355 3.5355 9.0914 3.0305 12.627 2.0203 17.173-1.0102 21.718-17.678 11.617-5.0508-17.678 14.142-17.678 14.142l12.627 9.5964s10.102-3.0305 12.122 2.0203 9.5964 9.5964 19.698 5.5558 13.132-10.607 21.718-11.112 12.627-1.0102 17.173 2.0203 9.5964 5.5558 14.647 12.122 4.5457 6.0609 9.0914 13.637 0.50508 13.637 1.5152 16.162 0 18.688 7.5762 24.749 18.183-3.5355 17.173 2.5254-1.5152 13.132 4.5457 13.132 34.85-12.122 33.84 7.0711 1.0102 25.254 11.112 25.759 24.244-4.5457 29.294-5.5558 3.5355-6.0609 9.5964-2.5254 8.0812 9.0914 0 12.627-18.183 2.5254-20.203 4.0406 6.566 30.305 18.688 28.789 18.688 2.0203 26.769-4.5457 6.566-10.102 9.5964-8.5863 6.0609 13.637-3.0305 17.678-16.162 1.0102-16.162 9.0914 19.698 22.728 25.254 20.203 13.132-7.0711 16.162-8.0812 7.5761-13.637 7.5761-17.173-1.5152-9.5964-1.5152-9.5964" opacity=".89"/>     <path d="m463.15 370c9.5964-4.5457 2.0203-6.0609 15.657-10.607s15.152-6.566 21.718-3.5355 10.102 4.0406 13.637 10.102 7.5761 6.566 8.5863 15.152 1.5152 9.0914 2.5254 17.173 1.5152 10.607 2.0203 13.637"/>     <path d="m469.72 371.52c9.0914-6.566 10.102-9.0914 17.173-9.0914s10.102-0.50507 14.142 1.5152 6.0609 2.0203 10.102 9.0914 9.0914 12.122 9.0914 17.173-0.50508 7.0711 1.0102 12.627 3.4516 7.6979 3.4516 7.6979l1.5991 2.4036 6.0609 1.5152" stroke-width="2"/>     <path d="m472.75 377.08c12.627-8.5863 14.647-11.112 22.728-7.0711s11.617 3.0305 13.637 10.102 3.5355 0 5.0508 13.132 2.0203 14.142 2.0203 14.142"/>     <path d="m481.84 380.61c12.122-4.0406 9.5964-9.5964 18.183-2.5254s5.5558 11.617 7.0711 15.152 4.0406 10.102 4.0406 10.102l1.0102 2.0203" fill-rule="evenodd"/>     <path d="m396.48 316.47c8.5863 13.132 14.647 18.688 20.708 15.152s11.617-3.5355 16.162-7.5761 11.112-10.607 14.142-6.0609 4.5457 4.0406 2.0203 11.617-4.0406 11.112-3.5355 14.647 1.0102 10.102 6.566 11.112 3.5355 0.50507 12.122-3.0305 9.5964-6.0609 15.657-8.0812 6.0609-3.5355 11.112-3.0305 9.5964 2.5254 9.5964 2.5254" opacity=".7964" stroke-width="2"/>     <path d="m435.88 293.74c-9.0914 2.0203-14.142 4.5457-21.213 5.0508s-17.173 3.0305-20.203 4.0406-1.5152 8.5863-1.5152 8.5863 0 11.112 9.0914 9.0914 8.0812-9.5964 19.698-12.627 14.142-4.0406 17.678-5.0508 9.0914 1.0102 9.0914 1.0102l9.0914 7.5761s3.5355 2.0203 3.5355 8.0812c-1.032 14.286-8.3356 18.117 10.102 16.668 17.173-1.5152 21.213 0 21.213 0"/>     <path d="m535.89 371.52 4.0406 14.647 0.50507 11.112s0.50508 6.0609 1.0102 8.0812-4.5457 8.0812 2.5254 7.5761 16.668-6.566 18.688 1.0102-1.5152 13.132 5.0508 13.132 17.678-0.50508 24.244-0.50508 6.0609 2.5254 7.5762 8.0812-0.50508 11.617 2.5254 16.162 9.5964 8.5863 18.183 6.566 6.566-3.5355 13.637-4.0406 6.566 1.5152 6.566 1.5152"/>     <path d="m547.5 382.63c2.0203 16.162 6.0609 20.708 12.122 21.718s10.607-4.0406 13.132 6.0609 3.0305 11.617 10.102 10.607 14.647 3.5355 17.678 5.0508 7.0711 3.5355 8.5863 10.102 3.0304 9.5964 9.0914 9.5964 12.122 1.0102 12.122 1.0102l1.5152 2.0203"/>     <path d="m558.11 390.71c0 3.5355 8.0812 8.5863 8.0812 8.5863h2.0203s7.0711 5.0508 9.0914 9.0914 3.5355 5.0508 8.5863 7.0711 7.0711 2.0203 7.0711 2.0203"/>     <path d="m628.31 484.66c26.264-10.102 36.365-9.0914 36.365-9.0914l11.112 7.0711s10.102 8.0812 13.132 13.132-2.0203 10.102 4.0406 14.142 11.112 14.142 11.112 14.142 4.0176 11.106 2.0203 17.173-10.004 21.28-10.004 21.28l-6.158 4.9836"/>     <path d="m635.39 493.75c20.203-10.102 19.193-9.0914 25.254-10.102s14.142 8.0812 9.0914 10.102-22.223 7.0711-22.223 7.0711l-2.0203 7.0711"/>     <path d="m684.88 511.93c6.668 8.7758 15.102 21.248 7.9098 32.089-3.1466 4.9037-5.4593 23.214-12.467 16.587-3.0658-12.177-10.931-23.591-10.942-36.264 1.8162-9.071 10.69-3.7379 15.083-3.1356 1.6592-2.798 0.4448-6.2474 0.41706-9.2766z" opacity=".838"/>     <path d="m571.29 447.12c12.382 3.2537 96.159 86.021 98.608 91.317 2.2141 12.024-9.6474 10.286-7.8134 3.421-1.5301-3.9408 1.0038-5.3062-0.37715-9.2605-0.18258-2.5989-113.14-104.65-90.418-85.477z" stroke-linecap="round" stroke-linejoin="round" stroke-opacity=".94754" stroke-width="2"/>     <path d="m250.36 105.04-34.952-42.052 59.466 11.521 27.255 0.40802c-11.066 8.3182-41.812 6.9381-51.769 30.123z" fill-rule="evenodd" opacity=".18"/>     <path transform="matrix(.66762 -.00576 -.22824 .3945 337.55 186.27)" d="m110.48 176.73a62.143 58.571 0 1 1 -35.078 17.692" opacity=".13"/>     <path transform="matrix(.37782 .53711 -.28698 -.07362 292.73 137.29)" d="m110.48 176.73a62.143 58.571 0 1 1 -35.078 17.692" opacity=".23102"/>     <path transform="matrix(.16375 -.12917 -.05723 .1587 427.55 322.17)" d="m110.48 176.73a62.143 58.571 0 1 1 -35.078 17.692" opacity=".18152"/>     <path transform="matrix(.28266 .18992 -.12201 .11898 488.75 328.33)" d="m110.48 176.73a62.143 58.571 0 1 1 -35.078 17.692" opacity=".19472"/>     <path transform="matrix(.30395 .57558 -.1312 .36057 679.76 374.43)" d="m110.48 176.73a62.143 58.571 0 1 1 -35.078 17.692" filter="url(#w)" opacity=".24"/>     <path transform="matrix(.28266 .18992 -.12201 .11898 575.9 380.07)" d="m110.48 176.73a62.143 58.571 0 1 1 -35.078 17.692" filter="url(#x)" opacity=".21122"/>     <path transform="matrix(.28871 .1937 -.12462 .12134 427.61 287.04)" d="m110.48 176.73a62.143 58.571 0 1 1 -35.078 17.692" opacity=".21"/>    </g>    <path d="m59.286 186.31c-11.685 7.7871 18.084 32.239 8.8979 43.078 7.649 5.2856 16.429-0.42562 24.173-2.3458 11.76-2.2979 7.5711 2.712 19.508 1.3385-8.2428 10.01-13.049-0.37064-22.069 8.5873-5.2038 2.8376-16.287 11.617-9.3586 18.828 10.04-0.0425 21.248-9.8475 30.518-12.569 12.629-5.9548 0.70072 7.4442 13.802 2.5511-9e-3 10.887 11.927-5.8849 5.5621 0.75408-11.057 9.3304-28.203 17.232-39.984 25.593 2.6635 11.183 16.214 13.354 22.298 9.5211 14.23-7.5017 39.925-31.551 53.176-40.595 1.7094 8.3411-29.16 35.644-34.159 40.595-9.3591 10.664-9.3785 2.9922-18.517 13.903 3.615 8.0176 15.909 7.0591 20.059 3.2884 10.292-8.7002 26.419-27.064 37.288-35.016 7.882 5.9887-11.529 23.224-18.286 33.576-7.2723 10.652-11.594 8.1803-20.344 17.58 0.83521 8.9035 16.378 4.2843 22.321 2.9923 9.3368-0.32297 11.014-11.495 19.012-13.403 10.288-1.2146 12.941 12.905 5.9539 18.483-8.7194 5.0013-27.877 3.0423-20.133 11.051 2.8716 7.1229 29.305 21.662 27.068 11.432-5.3099-13.903-9.989-28.947-10.731-42.173-20.617-33.56 59.429-178.49 33.147-200.52 6.7134-9.1078-30.163 64.608-69.441 101.72-6.7884 9.3885 6.3389 5.3859-4.7462 5.3158-9.8023 0.1649-18.552-4.8381-28.027-6.3065-1.6067-0.18426-45.374-17.381-46.988-17.255z" fill-rule="evenodd" filter="url(#v)" opacity=".46"/>   </g>   <path d="m264.76 251.88s2.2868 4.1809 7.9459 7.6348c2.3679 1.4451-0.90198 12.021-4.4085 13.975s-12.983 5.8502-12.983 5.8502c-19.711 21.882-23.942 4.4948-24.086 1.2639 13.09-4.6589 25.809-19.311 30.924-13.814 3.8967-0.20006 2.6711-1.3027 3.2938-4.4599 0.27675-1.403-8.064-11.785-0.68563-10.451z"/>   <path d="m231.58 252.5c-2.1279 1.8957-2.7678 2.8571-1.0714 8.4821s2.1428 9.375 4.1071 9.2857 4.375-1.875 3.9286-3.2143-2.5893-7.5893-2.3214-8.6607 1.1607-5.4464 0.35714-6.25c-1.0229-2.6737-4.4118-0.16683-5 0.35715z"/>   <path d="m241.75 248.12c-1.0199 0.23332-2.7356 3.2143-0.71428 8.8393 1.9869 5.5291 3.125 7.5893 5.0893 7.5s2.0983-1.5411 2.2321-2.9464c0.17857-1.875-2.963-4.8058-1.6071-7.1429 1.7753-3.0601 2.2322-4.5536 1.4286-5.3571-0.45329-2.6737-4.8913-1.2445-6.4286-0.89285z"/>   <path d="m322.74 868.51c11.617 4.5457 29.8-11.617 29.8-11.617s-3.5355 10.102 6.566 23.234-48.487 80.812-68.185 81.317-53.538-11.617-47.477-25.254 13.132-23.739 21.213-21.213-0.74036 11.849 15.657 10.102c2.4408-0.26009 17.664-5.7534 24.404-12.468 9.2855-9.2495 23.366-29.558 23.073-32.484-0.50508-5.0508 1.5152-6.566-5.0508-11.617z"/>   <path d="m428.75 860.94c-11.617 4.5457-29.8-11.617-29.8-11.617s3.5355 10.102-6.566 23.234 48.487 80.812 68.185 81.317 53.538-11.617 47.477-25.254-13.132-23.739-21.213-21.213 0.74036 11.849-15.657 10.102c-2.4408-0.26009-17.664-5.7534-24.404-12.468-9.2855-9.2495-23.366-29.558-23.073-32.484 0.50508-5.0508-1.5152-6.566 5.0508-11.617z"/>   <g transform="matrix(1.0538 -.40193 .40193 1.0538 -284.13 164.01)">    <path transform="matrix(1.6496 .81029 -.52205 1.0628 438.13 -104.11)" d="m252.86 554.51c0 31.165-16.15 56.429-36.071 56.429s-36.071-25.264-36.071-56.429 16.15-56.429 36.071-56.429 36.071 25.264 36.071 56.429z" stroke-dasharray="1, 2" stroke-linejoin="bevel" stroke-width=".25"/>    <path d="m461.63 620.77c5.6042 31.494 30.458 48.122 32.407 61.979 1.2742 9.0579-4.9867 6.8512-3.5153 11.473 2.6618 8.3611 8.0776 4.8088 9.2566 12.711 0.89509 6 9.853 13.608 9.853 13.608" stroke-width=".25"/>    <path d="m550.8 701.09c-5.6042-31.494-15.305-41.809-17.255-55.666-1.2742-9.0579-8.9029-1.2954-10.374-5.9175-2.6618-8.3611-9.3403-16.678-10.519-24.581-0.89509-6-9.853-13.608-9.853-13.608" stroke-width=".25"/>    <path d="m502.54 720.77c-0.0528-4.8817-4.1837-13.167-7.1963-16.533-6.4575-7.2144-8.9254-15.497-8.6254-23.162 0.15952-4.0773-4.4835-7.4184-4.9654-10.587-1.1285-7.4188-7.6046-2.7131-8.8814-6.6543-2.3097-7.1295-8.0475-14.985-9.0895-21.47-0.79113-4.9239-5.9458-16.563-5.9458-16.563" stroke-width=".20546"/>    <path d="m464.16 618.75c5.545 32.29 30.136 49.339 32.065 63.547s6.4292 18.37 6.9114 24.569 8.5182 14.179 8.5182 14.179" stroke-width=".2518"/>    <path d="m548.27 703.11c-5.545-32.29-30.136-49.339-32.065-63.547s-6.4292-18.37-6.9114-24.569-8.5182-14.179-8.5182-14.179" stroke-width=".2518"/>    <path d="m494.97 720c-1.5195-4.8009 2.9273-5.9858 1.1788-8.1951-6.4075-8.0958-9.7966-15.707-12.803-22.66-2.0125-4.6538-1.8348-9.3899-4.2269-13.017-4.1866-6.3491-11.551-9.2734-12.183-13.566-1.7105-11.623-5.5705-15.774-6.0101-20.778s-7.3345-12.849-7.3345-12.849" stroke-width=".20695"/>    <path d="m466.43 615.97c2.326 14.104 16.31 27.146 18.056 33.016 2.1427 7.2041 12.407 23.747 13.496 32.099 1.8979 14.558 9.3287 19.612 9.8032 25.964s5.3799 13.74 5.3799 13.74" stroke-width=".25285"/>    <path d="m546 705.89c-2.326-14.104-16.31-27.146-18.056-33.016-2.1427-7.2041-12.407-23.747-13.496-32.099-1.8979-14.558-10.086-11.025-10.561-17.378s-4.6223-22.326-4.6223-22.326" stroke-width=".25285"/>    <path d="m492.66 720.76c-2.0491-11.617-11.518-25.989-13.035-30.971-1.8614-6.1144-13.223-19.778-14.19-26.603-1.6858-11.895-8.6587-10.647-9.0924-15.771s-4.0462-18.567-4.0462-18.567" stroke-width=".2078"/>    <path d="m554.29 695.82c-0.0528-4.8817 6.928-13.924 3.9154-17.29-6.4575-7.2144-14.986-12.971-14.686-20.637 0.15952-4.0773-3.2208-8.176-3.7027-11.345-1.1285-7.4188-11.645-9.5316-12.922-13.473-2.3097-7.1295-3.7544-9.4292-4.7964-15.914-0.79113-4.9239-9.7338-15.553-9.7338-15.553" stroke-width=".20546"/>    <path d="m473 611.17c2.326 14.104 12.522 28.661 14.268 34.531 2.1427 7.2041 12.407 23.747 13.496 32.099 1.8979 14.558 3.546-0.97084 8.5405 2.9835 2.3753 1.8806-1.3104 7.1581-0.55008 17.004 0.685 8.87 5.93 22.495 5.93 22.495" stroke-width=".25285"/>    <path d="m564.64 671.07c-0.0528-4.8817-4.1837 4.2583-7.1963 0.89258-6.4575-7.2144-9.1779-5.1426-8.878-12.808 0.15952-4.0773-6.2512-11.459-6.7332-14.628-1.1285-7.4188-6.5944-8.0164-7.8712-11.958-2.3097-7.1295-3.7544-9.4292-4.7964-15.914-0.79113-4.9239-9.9864-13.533-9.9864-13.533" stroke-width=".20546"/>    <path d="m526.82 646.75c0.49329 7.1001 1.9659 7.4585 3.9165 5.2943s-0.62539-8.2389-1.6668-7.7262-1.9506 2.1641-2.2498 2.4318z" stroke-width=".3505"/>    <path d="m565.65 664.5c-0.0528-4.8817-6.4566 4.2583-9.4692 0.89258-6.4575-7.2144-3.8746-4.385-3.5747-12.051 0.15952-4.0773-6.2512-11.459-6.7332-14.628-1.1285-7.4188-6.5944-8.0164-7.8712-11.958-2.3097-7.1295-6.0272-5.136-7.0692-11.621-0.79113-4.9239-3.6729-9.7449-3.6729-9.7449" stroke-width=".20546"/>    <path d="m543.22 709.17c-2.326-14.104-16.31-27.146-18.056-33.016-2.1427-7.2041-12.407-23.747-13.496-32.099-1.8979-14.558-3.546-8.1205-8.5405-12.075-2.3753-1.8806-3.2352 12.123-3.9956-16.246-0.23835-8.8933-1.3843-14.161-1.3843-14.161" stroke-width=".25285"/>    <path d="m481.62 715.25c-0.0347-3.2072-7.5468-14.964-9.526-17.175-4.2424-4.7397-5.8638-10.181-5.6668-15.217 0.10481-2.6787-2.9455-4.8737-3.2622-6.9554-0.7414-4.874-7.5214-4.0553-8.3602-6.6446-1.5174-4.6839-2.7617-7.572-3.4462-11.833-0.51975-3.2349-3.9062-10.882-3.9062-10.882" stroke-width=".25"/>    <path d="m490.31 722.84c-2.0491-11.617-14.044-24.6-15.561-29.582-1.8614-6.1144-10.697-21.167-11.664-27.992-1.6858-11.895-3.0633-7.1064-7.344-11.186-2.0358-1.9402-2.7064 8.9931-3.4838-13.63-0.24368-7.0921-1.2456-11.483-1.2456-11.483" stroke-width=".2078"/>    <path d="m565.68 656.89c-0.0386-3.5721-3.7143 1.6007-5.9187-0.86211-4.7252-5.279-2.8352-3.2087-2.6157-8.8179 0.11673-2.9835-4.5742-8.3849-4.9269-10.703-0.82577-5.4286-4.8253-5.8658-5.7596-8.7498-1.69-5.2168-4.4103-3.7582-5.1728-8.5036-0.57889-3.6029-3.9503-8.8984-3.9503-8.8984" stroke-width=".25"/>    <path d="m472.28 709.95c-0.0347-3.2072-2.7486-8.6503-4.7278-10.862-4.2424-4.7397-3.0859-1.3422-2.8888-6.3784 0.10481-2.6787-2.9455-4.8737-3.2622-6.9554-0.7414-4.874-5.7536-5.5705-6.5925-8.1598-1.5174-4.6839-4.5294-6.0568-5.214-10.317-0.51975-3.2349-3.9062-10.882-3.9062-10.882" stroke-width=".25"/>    <path d="m538.4 710.67c-0.0528-4.8817-11.76-24.784-14.772-28.149-6.4575-7.2144-9.683-14.487-9.3831-22.152 0.15952-4.0773-13.575 3.6933-14.057 0.52475-1.1285-7.4188-6.3419-11.299-7.6187-15.241-2.3097-7.1295-8.0475-14.985-9.0895-21.47-0.79113-4.9239-5.9458-16.563-5.9458-16.563" stroke-width=".20546"/>    <path d="m524.42 646c0.92438 11.121 3.684 11.682 7.3392 8.2924s-1.1719-12.904-3.1233-12.101-3.6552 3.3896-4.2159 3.8089z" stroke-width=".60047"/>    <path d="m564.64 671.07c-0.0528-4.8817-4.1837 4.2583-7.1963 0.89258-6.4575-7.2144-9.1779-5.1426-8.878-12.808 0.15952-4.0773-6.2512-11.459-6.7332-14.628-1.1285-7.4188-6.5944-8.0164-7.8712-11.958-2.3097-7.1295-3.7544-9.4292-4.7964-15.914-0.79113-4.9239-9.9864-13.533-9.9864-13.533" stroke-width=".20546"/>    <path d="m466.25 705.44c-0.0242-2.2416-2.4262-4.7833-3.8095-6.3287-2.9652-3.3128-2.1568-0.93809-2.0191-4.4581 0.0732-1.8722-2.0587-3.4064-2.28-4.8613-0.51819-3.4066-4.0214-3.8934-4.6077-5.7031-1.0606-3.2737-3.1658-4.2332-3.6442-7.2112-0.36327-2.261-3.9929-8.1107-3.9929-8.1107" stroke-width=".25"/>    <g transform="matrix(.4058 .19934 -.19934 .4058 464.41 560.42)">     <path d="m74.38 57.67c-55.901 58.7-53.629 151.71 5.0712 207.61s151.71 53.629 207.61-5.0712 53.629-151.71-5.0712-207.61-151.71-53.629-207.61 5.0712zm5.2462 14.792 91.086 86.742-86.721 91.064c-46.655-49.335-48.542-126.24-4.3654-177.81zm9.7841-10.274c49.343-46.641 126.25-48.512 177.81-4.3212l-86.721 91.064-91.086-86.742zm4.8327 197.84 86.721-91.064 91.086 86.742c-49.337 46.633-126.25 48.492-177.81 4.3212zm96.505-101.34 86.721-91.064c46.636 49.337 48.534 126.25 4.3654 177.81l-91.086-86.742z" stroke-width="2.9355"/>     <path transform="matrix(1.3585 0 0 1.3585 37.219 23.703)" d="m42,20.5c0,1.10457-.89543,2-2,2s-2-.89543-2-2 .89543-2 2-2 2,.89543 2,2z" stroke-width=".84285"/>     <path transform="matrix(1.3585 0 0 1.3585 14.603 46.833)" d="m42,20.5c0,1.10457-.89543,2-2,2s-2-.89543-2-2 .89543-2 2-2 2,.89543 2,2z" stroke-width=".84285"/>     <path transform="matrix(1.3585 0 0 1.3585 238.4 215.58)" d="m42,20.5c0,1.10457-.89543,2-2,2s-2-.89543-2-2 .89543-2 2-2 2,.89543 2,2z" stroke-width=".84285"/>     <path transform="matrix(1.3585 0 0 1.3585 215.78 238.71)" d="m42,20.5c0,1.10457-.89543,2-2,2s-2-.89543-2-2 .89543-2 2-2 2,.89543 2,2z" stroke-width=".84285"/>     <path transform="matrix(-1.3585 0 0 -1.3585 150.05 297.69)" d="m42,20.5c0,1.10457-.89543,2-2,2s-2-.89543-2-2 .89543-2 2-2 2,.89543 2,2z" stroke-width=".84285"/>     <path transform="matrix(-1.3585 0 0 -1.3585 127.27 275.78)" d="m42,20.5c0,1.10457-.89543,2-2,2s-2-.89543-2-2 .89543-2 2-2 2,.89543 2,2z" stroke-width=".84285"/>     <path transform="matrix(-1.3585 0 0 -1.3585 342.38 96.868)" d="m42,20.5c0,1.10457-.89543,2-2,2s-2-.89543-2-2 .89543-2 2-2 2,.89543 2,2z" stroke-width=".84285"/>     <path transform="matrix(-1.3585 0 0 -1.3585 318.9 74.607)" d="m42,20.5c0,1.10457-.89543,2-2,2s-2-.89543-2-2 .89543-2 2-2 2,.89543 2,2z" stroke-width=".84285"/>     <path transform="matrix(-1.3585 0 0 -1.3585 108.68 246.78)" d="m42,20.5c0,1.10457-.89543,2-2,2s-2-.89543-2-2 .89543-2 2-2 2,.89543 2,2z" stroke-width=".84285"/>     <path transform="matrix(-1.3585 0 0 -1.3585 105.35 133.65)" d="m42,20.5c0,1.10457-.89543,2-2,2s-2-.89543-2-2 .89543-2 2-2 2,.89543 2,2z" stroke-width=".84285"/>     <path transform="matrix(-1.3585 0 0 -1.3585 97.371 211.42)" d="m42,20.5c0,1.10457-.89543,2-2,2s-2-.89543-2-2 .89543-2 2-2 2,.89543 2,2z" stroke-width=".84285"/>     <path transform="matrix(-1.3585 0 0 -1.3585 96.161 169.36)" d="m42,20.5c0,1.10457-.89543,2-2,2s-2-.89543-2-2 .89543-2 2-2 2,.89543 2,2z" stroke-width=".84285"/>     <path transform="matrix(0 -1.3585 1.3585 0 92.012 87.201)" d="m42,20.5c0,1.10457-.89543,2-2,2s-2-.89543-2-2 .89543-2 2-2 2,.89543 2,2z" stroke-width=".84285"/>     <path transform="matrix(0 -1.3585 1.3585 0 205.14 83.869)" d="m42,20.5c0,1.10457-.89543,2-2,2s-2-.89543-2-2 .89543-2 2-2 2,.89543 2,2z" stroke-width=".84285"/>     <path transform="matrix(0 -1.3585 1.3585 0 127.37 75.887)" d="m42,20.5c0,1.10457-.89543,2-2,2s-2-.89543-2-2 .89543-2 2-2 2,.89543 2,2z" stroke-width=".84285"/>     <path transform="matrix(0 -1.3585 1.3585 0 169.43 74.677)" d="m42,20.5c0,1.10457-.89543,2-2,2s-2-.89543-2-2 .89543-2 2-2 2,.89543 2,2z" stroke-width=".84285"/>     <path transform="matrix(1.3585 0 0 1.3585 252.29 69.113)" d="m42,20.5c0,1.10457-.89543,2-2,2s-2-.89543-2-2 .89543-2 2-2 2,.89543 2,2z" stroke-width=".84285"/>     <path transform="matrix(1.3585 0 0 1.3585 256.69 183.65)" d="m42,20.5c0,1.10457-.89543,2-2,2s-2-.89543-2-2 .89543-2 2-2 2,.89543 2,2z" stroke-width=".84285"/>     <path transform="matrix(1.3585 0 0 1.3585 263.61 104.47)" d="m42,20.5c0,1.10457-.89543,2-2,2s-2-.89543-2-2 .89543-2 2-2 2,.89543 2,2z" stroke-width=".84285"/>     <path transform="matrix(1.3585 0 0 1.3585 264.82 146.53)" d="m42,20.5c0,1.10457-.89543,2-2,2s-2-.89543-2-2 .89543-2 2-2 2,.89543 2,2z" stroke-width=".84285"/>     <path transform="matrix(0 1.3585 -1.3585 0 268.26 230.81)" d="m42,20.5c0,1.10457-.89543,2-2,2s-2-.89543-2-2 .89543-2 2-2 2,.89543 2,2z" stroke-width=".84285"/>     <path transform="matrix(0 1.3585 -1.3585 0 155.13 233.43)" d="m42,20.5c0,1.10457-.89543,2-2,2s-2-.89543-2-2 .89543-2 2-2 2,.89543 2,2z" stroke-width=".84285"/>     <path transform="matrix(0 1.3585 -1.3585 0 232.9 241.42)" d="m42,20.5c0,1.10457-.89543,2-2,2s-2-.89543-2-2 .89543-2 2-2 2,.89543 2,2z" stroke-width=".84285"/>     <path transform="matrix(0 1.3585 -1.3585 0 190.84 242.63)" d="m42,20.5c0,1.10457-.89543,2-2,2s-2-.89543-2-2 .89543-2 2-2 2,.89543 2,2z" stroke-width=".84285"/>     <path transform="matrix(-1.3585 0 0 -1.3585 156.97 112.08)" d="m42,20.5c0,1.10457-.89543,2-2,2s-2-.89543-2-2 .89543-2 2-2 2,.89543 2,2z" stroke-width=".84285"/>     <path transform="matrix(-1.3585 0 0 -1.3585 214.75 166.87)" d="m42,20.5c0,1.10457-.89543,2-2,2s-2-.89543-2-2 .89543-2 2-2 2,.89543 2,2z" stroke-width=".84285"/>     <path transform="matrix(-1.3585 0 0 -1.3585 185.61 139.66)" d="m42,20.5c0,1.10457-.89543,2-2,2s-2-.89543-2-2 .89543-2 2-2 2,.89543 2,2z" stroke-width=".84285"/>     <path transform="matrix(-1.3585 0 0 -1.3585 257.03 207.37)" d="m42,20.5c0,1.10457-.89543,2-2,2s-2-.89543-2-2 .89543-2 2-2 2,.89543 2,2z" stroke-width=".84285"/>     <path transform="matrix(-1.3585 0 0 -1.3585 316.57 264.28)" d="m42,20.5c0,1.10457-.89543,2-2,2s-2-.89543-2-2 .89543-2 2-2 2,.89543 2,2z" stroke-width=".84285"/>     <path transform="matrix(-1.3585 0 0 -1.3585 286.02 234.94)" d="m42,20.5c0,1.10457-.89543,2-2,2s-2-.89543-2-2 .89543-2 2-2 2,.89543 2,2z" stroke-width=".84285"/>     <path transform="matrix(0 -1.3585 1.3585 0 228.56 134.07)" d="m42,20.5c0,1.10457-.89543,2-2,2s-2-.89543-2-2 .89543-2 2-2 2,.89543 2,2z" stroke-width=".84285"/>     <path transform="matrix(0 -1.3585 1.3585 0 172.71 192.56)" d="m42,20.5c0,1.10457-.89543,2-2,2s-2-.89543-2-2 .89543-2 2-2 2,.89543 2,2z" stroke-width=".84285"/>     <path transform="matrix(0 -1.3585 1.3585 0 201.34 162.36)" d="m42,20.5c0,1.10457-.89543,2-2,2s-2-.89543-2-2 .89543-2 2-2 2,.89543 2,2z" stroke-width=".84285"/>     <path transform="matrix(0 -1.3585 1.3585 0 133.98 233.07)" d="m42,20.5c0,1.10457-.89543,2-2,2s-2-.89543-2-2 .89543-2 2-2 2,.89543 2,2z" stroke-width=".84285"/>     <path transform="matrix(0 -1.3585 1.3585 0 76.367 293.68)" d="m42,20.5c0,1.10457-.89543,2-2,2s-2-.89543-2-2 .89543-2 2-2 2,.89543 2,2z" stroke-width=".84285"/>     <path transform="matrix(0 -1.3585 1.3585 0 106.41 262.41)" d="m42,20.5c0,1.10457-.89543,2-2,2s-2-.89543-2-2 .89543-2 2-2 2,.89543 2,2z" stroke-width=".84285"/>    </g>    <path d="m494.72 691.49c-1.7678 2.7779-1.0102 4.5457 0.75761 6.0609s2.0203-3.283 1.2627-4.2932-1.7678-1.5152-2.0203-1.7678z" stroke-width=".25"/>    <path d="m494.72 691.49c-1.7678 2.7779-1.0102 4.5457 0.75761 6.0609s2.0203-3.283 1.2627-4.2932-1.7678-1.5152-2.0203-1.7678z" stroke-width=".25"/>    <path d="m505.08 685.52c-1.7678 6.1754-1.0102 6.4871 0.75761 4.6048s2.0203-7.1659 1.2627-6.72-1.7678 1.8823-2.0203 2.1151z" stroke-width=".25"/>    <path d="m504.31 684.87c-3.3646 9.8455-1.9226 10.342 1.442 7.3415s3.8452-11.425 2.4033-10.714-3.3646 3.0009-3.8452 3.3721z" stroke-width=".43549"/>    <path d="m548.89 679.67c2.981 5.9658 4.2194 6.0309 4.8894 3.8701s-3.499-6.914-4.093-6.3076-0.67011 2.1608-0.79649 2.4376z" stroke-width=".29321"/>    <path d="m546.35 677.84c5.1479 11.991 7.6018 12.028 9.2166 7.5469s-6.0538-13.894-7.3143-12.605-1.6149 4.4807-1.9024 5.0577z" stroke-width=".59113"/>    <path d="m454.94 662.06c5.1562 10.032 6.496 10.219 6.491 6.698-5e-3 -3.5209-6.0227-11.629-6.4534-10.667s5e-3 3.5208-0.0376 3.9691z" stroke-width=".38613"/>   </g>  </g>  <g transform="translate(103.04 -8.0812)">   <path d="m318.9 675c42.5-10.714 110-4.2857 110-4.2857s-62.143 44.643-110 4.2857z" fill="#24221c" stroke="#000"/>   <path d="m315.33 667.5c43.571 7.1429 124.29 0.71429 127.14-5.7143s-121.43-18.571-127.14 5.7143z" fill="#28220b" stroke="#000"/>   <path d="m322.24 867.5c12.122-10.607 29.294-11.112 29.294-11.112s1.0102 15.152-9.0914 15.152-14.647 2.5254-17.173 0-1.5152-3.5355-3.0305-4.0406z" fill="#241f1c" stroke="#000"/>   <path d="m427.82 860.62c-11.699-11.257-28.273-11.793-28.273-11.793s-0.97494 16.082 8.7744 16.082 14.137 2.6802 16.574 0 1.4624-3.7524 2.9248-4.2884z" fill="#241f1c" stroke="#000" stroke-width="1.0121"/>   <path d="m488.52 479.63c-12.59-1.5639-18.639-0.28274-37.069 11.444-21.873 13.917-36.429 13.376-36.429 13.376s-15.689 9.5786-14.817-32.267l-27.507 17.7-23.829-15.945c0.87177 41.845-14.817 32.248-14.817 32.248s-21.875-1.6572-40.897-8.2414c-11.828-4.0941-19.294-13.426-28.73-13.426-23.265 0.96744-25.062 21.964-15.05 28.642 7.8317 5.2243 31.266 3.8408 38.47 39.901 6.1316 30.693 48.817 64.709 45.33 108.3s-21 29.606-25.529 57.648c-11.895 73.662-21.577 60.661-21.09 77.133 0.46282 15.652 3.4453-0.22634 25.092 48.197 9.9365 22.227 19.614 26.292 19.143 34.383-0.44516 7.6479-14.571 21.2-26.009 34.332-23.538 27.025-43.431 9.3725-46.918 13.731s25.026 26.99 25.026 26.99 23.491-1.1535 37.44-14.23 42.493-48.902 35.519-63.722c-4.2542-9.0402-24.148-42.437-27.718-81.602 3.6372-16.815 26.044-51.334 47.417-71.683 20.992 18.611 32.729 45.727 44.244 69.851-8.576 41.969-22.3 72.633-26.566 81.699-6.9742 14.82 30.2 45.097 44.149 58.174s33.741 14.846 33.741 14.846 23.582-13.384 20.095-17.743-24.016-6.4323-47.554-22.978c-19.668-13.825-16.226-15.453-29.538-30.69 1.6693-3.7901 4.5818-13.094 14.658-32.496 27.769-53.469 30.09-37.008 30.52-50.687 0.50597-16.094-6.3102-5.7371-22.8-74.623-9.2558-38.667-17.11-14.676-20.597-58.265s33.097-75.809 45.33-104.62c15.834-37.293-14.951-23.384 31.36-38.611 15.662-18.861 12.982-30.744-4.0696-36.763z" fill="url(#y)" stroke="#000" stroke-width=".61024"/>   <path d="m373.42 316.9c59.56 7.8112 86.111 44.204 54.56 110.6-8.8409 43.422-40.22 72.323-53.584 72.323-11.41 0-44.354-27.309-52.607-71.228-31.477-68.14-8.9061-99.001 51.631-111.69z" fill="url(#z)" stroke="#000" stroke-width=".68348"/>   <g transform="matrix(.68348 0 0 .68348 173.06 63.372)" stroke="#000">    <path d="m265.42 532.89c-10.354-4.7982 5.8084-33.588 15.405-36.113s14.142 39.648-15.405 36.113z" fill="none"/>    <path transform="matrix(-.96095 -.18107 0 .56292 566.61 289.04)" d="m315.17 529.23c0 3.8355-2.8266 6.9448-6.3134 6.9448s-6.3135-3.1093-6.3135-6.9448 2.8266-6.9448 6.3135-6.9448c3.484 0 6.3095 3.1045 6.3134 6.937" fill="url(#q)" fill-rule="evenodd" opacity=".8894" stroke-linejoin="bevel"/>    <path d="m295.46 478.83c-43.362 45.34-33.027 93.196-17.626 81.349 18.571-14.286 17.25-26.796 27.633-26.204 10.253 0.5843 18.564-9.4306 17.135-18.002s-15.714-18.571-15.714-18.571" fill="url(#bh)"/>    <path transform="matrix(1.1185 -.16915 0 .52586 -36.966 304.21)" d="m315.17 529.23c0 3.8355-2.8266 6.9448-6.3134 6.9448s-6.3135-3.1093-6.3135-6.9448 2.8266-6.9448 6.3135-6.9448c3.484 0 6.3095 3.1045 6.3134 6.937" fill="url(#q)" fill-rule="evenodd" opacity=".8894" stroke-linejoin="bevel"/>   </g>   <g transform="matrix(.68348 0 0 .68348 170.33 63.372)" stroke="#000">    <path d="m249.51 587.69s8.3338-14.142 17.425-7.0711 10.354 12.627 23.739 13.385c14.263 0.80734 18.193 0.78546 28.284-3.0305 10.027-3.7915 4.96-5.2781 13.637-11.364 7.7248-5.4182 20.071 1.5458 19.445 0.75761-9.4783-11.934-17.988-13.105-30.557-8.3338-11.53 4.3772-19.124-4.5717-21.971-4.5457-2.4314 0.0222-11.617 10.102-23.739 5.3033-10.116-4.0042-27.779-1.2627-26.264 14.9z" fill="url(#af)"/>    <path d="m267.55 588.89c2.2092 3.8098 10.123 5.6056 13.657 2.8255s-2.0732-20.866-2.0732-20.866c-13.284 15.227-11.902 15.651-11.584 18.04z" fill="url(#ad)"/>    <path d="m332.18 587.38c-2.2092 3.8098-10.123 5.6056-13.657 2.8255s2.0732-20.866 2.0732-20.866c13.284 15.227 11.902 15.651 11.584 18.04z" fill="url(#ac)"/>    <path d="m249.26 588.2s11.364 4.0406 20.456 11.112 10.354 12.627 23.739 13.385c14.263 0.80734 17.985 0.18069 28.284-3.0305 6.491-2.0238 4.96-5.2781 13.637-11.364 7.7248-5.4182 17.532-16.91 16.668-17.425-15.792-9.4088-25.064 4.8202-26.264 6.0609-6.5891 6.8105-20.892 8.0552-23.739 8.0812-2.4314 0.0222-25.759-0.75762-31.315-10.607-5.3454-9.476-21.466-5.3033-21.466 3.7881z" fill="url(#ae)"/>   </g>   <path d="m413.82 455.7c-8.9568-28.567 0.28446-41.087 4.8852-46.22s3.4552-8.1027 7.0729-9.6423c2.779-1.1827 4.4205 1.1869 4.4205 1.1869" fill="url(#bc)" stroke="#000" stroke-width=".69688"/>   <path d="m336.12 455.29c8.9567-31.924-0.28446-40.98-4.8852-44.389s-3.4552-6.8077-7.0729-6.9914c-2.779-0.1411-4.4206 2.8438-4.4206 2.8438" fill="url(#bb)" stroke="#000" stroke-width=".69688"/>   <g transform="matrix(.68348 0 0 .68348 168.96 68.697)" stroke="#000">    <path d="m228.21 449.86c5.7143 28.929 12.5 32.5 18.214 32.857s23.571 1.7857 34.643-7.8571-18.929-65.357-36.071-50.714-16.786 25-16.786 25.714z" fill="url(#ba)"/>    <path d="m228.21 448.43s14.286-17.5 26.429-14.286 27.143 33.214 27.5 37.857-28.571 6.0714-37.857-1.4286-16.071-21.786-16.071-22.143z" fill="#2b2200"/>    <path d="m229.29 450.08c21.429-19.442 31.429-12.324 41.429 3.3649s17.143 23.018 4.2857 20.397-30 0.0757-45.714-23.762z" fill="url(#ab)"/>    <path transform="matrix(.83119 0 0 .74749 45.18 117.41)" d="m260.71 457.18c0 7.9884-4.4772 14.464-10 14.464s-10-6.4759-10-14.464 4.4772-14.464 10-14.464 10 6.4759 10 14.464z" fill="url(#g)" fill-rule="evenodd" opacity=".8894" stroke-linejoin="bevel" stroke-width=".922"/>    <path transform="translate(.85714 -2.8571)" d="m256.43 462.01c0 2.9587-1.6789 5.3571-3.75 5.3571s-3.75-2.3985-3.75-5.3571 1.6789-5.3572 3.75-5.3572 3.75 2.3985 3.75 5.3572z" fill="url(#f)" fill-rule="evenodd" opacity=".8894" stroke-linejoin="bevel" stroke-width=".922"/>   </g>   <path d="m323.13 355.02s10.66-17.751 14.209-11.243c3.9861 7.3082 15.428-0.75724 25.363 8.0106 7.4593 6.5826 1.5812 12.585 1.5812 12.585s-16.249-10.103-21.636-10.715c-7.2329-0.82205-11.236 4.1844-19.518 1.3622z" fill="url(#ax)" stroke="#000" stroke-width=".68348"/>   <g transform="matrix(.68348 0 0 .68348 170.33 63.372)" stroke="#000">    <path d="m372.56 457.65c-5.7143 28.929-12.5 32.5-18.214 32.857s-23.571 1.7857-34.643-7.8571 18.929-65.357 36.071-50.714 16.786 25 16.786 25.714z" fill="url(#ay)"/>    <path d="m371.89 454.3s-13.363-13.561-24.721-8.9575-25.389 33.503-25.723 37.694 26.725 1.3258 35.411-6.6911 15.033-21.727 15.033-22.046z" fill="#2b2200" stroke-width=".91331"/>    <path d="m370.88 455.92c-20.044-14.271-29.398-6.4928-38.752 8.9289s-16.035 22.979-4.0088 18.803 28.062-4.2255 42.76-27.732z" fill="url(#aa)" stroke-width=".91331"/>    <path transform="matrix(-.83119 0 0 .74749 551.3 125.56)" d="m260.71 457.18c0 7.9884-4.4772 14.464-10 14.464s-10-6.4759-10-14.464 4.4772-14.464 10-14.464 10 6.4759 10 14.464z" fill="url(#g)" fill-rule="evenodd" opacity=".8894" stroke-linejoin="bevel" stroke-width=".922"/>    <path transform="matrix(-1 0 0 1 595.63 5.2908)" d="m256.43 462.01c0 2.9587-1.6789 5.3571-3.75 5.3571s-3.75-2.3985-3.75-5.3571 1.6789-5.3572 3.75-5.3572 3.75 2.3985 3.75 5.3572z" fill="url(#f)" fill-rule="evenodd" opacity=".8894" stroke-linejoin="bevel" stroke-width=".922"/>   </g>   <path d="m426.77 353.66s-5.8534-17.082-11.297-10.351c-6.1126 7.5582-15.487 0.21028-28.065 9.6011-9.443 7.0504-5.1499 12.684-5.1499 12.684s19.378-11.122 25.032-12.072c7.5918-1.2756 10.257 3.4798 19.48 0.13814z" fill="url(#az)" stroke="#000" stroke-width=".68348"/>   <g transform="matrix(.55711 0 0 .55711 219.33 122.81)" stroke="#000">    <path d="m394.97 467.48c141.42-115.16 141.42-123.24 141.42-123.24s-130.31 37.376-141.42 123.24z" fill="#28220b"/>    <path d="m388.27 447.01c4.361-60.343 38.763-81.974 83.597-94.68s68.375-8.9997 68.375-8.9997-82.163 23.127-105.68 67.277-42.528 59.189-42.528 59.189" fill="url(#l)"/>   </g>   <g transform="matrix(-.5668 .29363 .15909 .52903 458.79 20.482)" stroke="#000">    <path d="m394.97 467.48c141.42-115.16 141.42-123.24 141.42-123.24s-130.31 37.376-141.42 123.24z" fill="#28220b"/>    <path d="m388.27 447.01c4.361-60.343 38.763-81.974 83.597-94.68s68.375-8.9997 68.375-8.9997-82.163 23.127-105.68 67.277-42.528 59.189-42.528 59.189" fill="url(#l)"/>   </g>   <path d="m339.02 333.45c13.181-0.48819 11.351 6.7128 17.697 6.7128s7.323-2.441 14.158 0 13.181 3.4174 13.181 3.4174 6.3466-4.882 8.7876-3.9056" fill="url(#aw)" stroke="#000" stroke-width=".68348"/>   <path d="m371.33 335.73c15.328 0.56576 17.686-6.5407 22.009-4.4755s7.0743 5.7509 11.398 6.3396 8.6464-0.79143 8.6464-0.79143" fill="url(#av)" stroke="#000" stroke-width=".61574"/>   <path d="m350.38 328.93c15.134-3.9056 16.111 0 23.922-1.4646s12.205-2.441 12.205-2.441" fill="#540" stroke="#000" stroke-width=".68348"/>   <path d="m444.58 493.04s20.636-16.681 40.42-14.746c11.8 1.1543 20.307 11.692 32.216 28.713 31.876 45.559 46.795 85.765 35.489 109.09s-57.563-68.206-66.201-94.513c-1.2292-3.7431-14.815 1.6156-21.539 3.4991-21.59 6.0482-39.9-7.0348-20.385-32.043z" fill="url(#aq)" stroke="#000" stroke-width=".61024"/>   <path d="m555.8 585.62c6.5011 14.48 1.7198 44.392-58.675 94.433s25.108-80.464 33.036-85.204" fill="url(#ar)" stroke="#000" stroke-width=".52488"/>   <path d="m300.5 525.24s-4.1308 6.1754-12.693 6.5016c-9.7859 0.37285-28.602-12.796-40.417-19.664-10.658-6.1944-10.571-13.89-18.018-30.345-22.926-50.656-32.952-90.905-17.538-111.74s44.063 76.939 47.702 104.39c1.9658 14.83 73.264 22.381 40.964 50.862z" fill="url(#at)" stroke="#000" stroke-width=".61024"/>   <path d="m209.13 400.49c-11.595-10.839-18.755-40.272 17.586-109.78s7.9662 83.913 2.4878 91.35" fill="url(#as)" stroke="#000" stroke-width=".52488"/>   <g transform="matrix(-1 0 0 1 728.76 135.14)" fill="url(#al)" stroke="#000" stroke-width=".25">    <path d="m361.25 430.81s31.971-3.5247 40.214 12.091" opacity=".87"/>    <path d="m366.97 454.03s31.971-3.5247 40.214 12.091" opacity=".87"/>    <path d="m362.68 441.88s31.971-3.5247 40.214 12.091" opacity=".87"/>    <path d="m368.4 465.1s31.971-3.5247 40.214 12.091" opacity=".87"/>   </g>   <path d="m304.32 498.98s28.844 2.1415 34.089 4.9969-2.6222 5.7107 0 17.846 15.733 32.837 15.733 32.837-5.2444 12.135-5.2444 28.554 16.607 48.541 13.111 53.538 6.1185 30.695 6.1185 30.695-42.829-8.566-51.57 0-37.585-117.07-27.97-134.92 15.733-34.978 15.733-33.55z" fill="#677821" filter="url(#e)" stroke="#000" stroke-width="1.1059"/>   <g transform="translate(24.254 135.14)" fill="url(#am)" stroke="#000" stroke-width=".25">    <path d="m361.25 430.81s31.971-3.5247 40.214 12.091" opacity=".87"/>    <path d="m366.97 454.03s31.971-3.5247 40.214 12.091" opacity=".87"/>    <path d="m362.68 441.88s31.971-3.5247 40.214 12.091" opacity=".87"/>    <path d="m368.4 465.1s31.971-3.5247 40.214 12.091" opacity=".87"/>   </g>   <path d="m446.88 490.48s-29.004 8.4145-34.169 12.408 2.897 5.1344 0.78644 17.828-14.425 36.226-14.425 36.226 5.8254 10.982 6.5489 27.384-14.614 52.105-10.867 56.336-4.8197 31.995-4.8197 31.995 42.829-17.875 52.024-11.219 32.757-125.13 22.271-140.86-17.413-31.52-17.35-30.094z" fill="#677821" filter="url(#e)" stroke="#000" stroke-width="1.1154"/>   <path transform="matrix(1.004 0 0 1.0433 17.109 108.01)" d="m301.38 548.55c5.5204 10.613-4.0482 13.907-6.6244 19.397s-2.9442 21.226-10.305 30.376-4.0482 32.572-5.1523 35.133 9.5686-3.2938 13.249-2.1958 5.5203 5.1236 10.305 3.6597 4.7843-10.613 5.8884-16.469-4.0482-36.231-0.73603-45.381 5.5203 21.592 5.5203 21.592l5.1523-6.9535s3.6802-4.3917 0.73604 13.541-6.9924 42.087-6.9924 42.087 4.0482-13.907 6.2564-12.077 1.4721 15.371 1.4721 15.371 0.73605-7.6854 4.4163-8.4174 2.9442 6.2216 6.6244 6.2216 12.145-8.7834 14.721-9.5153 9.2006-32.206 9.2006-32.206 8.8325 33.304 14.721 35.133 7.7285-6.2215 7.7285-6.2215 4.4163 4.7576 3.3122 7.3195 11.777 4.3917 11.777 4.3917l3.3122-13.907s-0.36802 15.371 4.4163 14.273 15.825-6.2215 15.825-6.2215l-3.6802-17.201 6.9924 9.5153v-15.371s1.4721 8.7834 5.8884 10.247 9.9366-3.2938 9.9366-3.2938-15.825-60.02-21.713-63.679-2.9442-13.541-2.9442-13.541-78.757 10.979-109.3 4.3917z" fill="#241f1c" filter="url(#t)" stroke="#000" stroke-width="1.0276"/>   <path d="m319.57 675.83c5.5204 10.613-4.0482 13.907-6.6244 19.397s-2.9442 21.226-10.305 30.376-4.0482 32.572-5.1523 35.133 9.5686-3.2938 13.249-2.1958 5.5203 5.1236 10.305 3.6597 4.7843-10.613 5.8884-16.469-4.0482-36.231-0.73603-45.381 5.5203 21.592 5.5203 21.592l5.1523-6.9535s3.6802-4.3917 0.73604 13.541-6.9924 42.087-6.9924 42.087 4.0482-13.907 6.2564-12.077 1.4721 15.371 1.4721 15.371 0.73605-7.6854 4.4163-8.4174 2.9442 6.2216 6.6244 6.2216 12.145-8.7834 14.721-9.5153 9.2006-32.206 9.2006-32.206 8.8325 33.304 14.721 35.133 7.7285-6.2215 7.7285-6.2215 4.4163 4.7576 3.3122 7.3195 11.777 4.3917 11.777 4.3917l3.3122-13.907s-0.36802 15.371 4.4163 14.273 15.825-6.2215 15.825-6.2215l-3.6802-17.201 6.9924 9.5153v-15.371s1.4721 8.7834 5.8884 10.247 9.9366-3.2938 9.9366-3.2938-15.825-60.02-21.713-63.679-2.9442-13.541-2.9442-13.541-78.757 10.979-109.3 4.3917z" fill="url(#ak)" stroke="#000" stroke-width="1.0276"/>   <path d="m321.04 683.57c-37.143 6.0714 66.429 8.9286 91.786 1.4286s15.714-6.4286 15.714-6.4286" fill="none" filter="url(#u)" stroke="url(#au)" stroke-width="8"/>   <path d="m317.11 500.71s4.2857 68.929-10.714 78.214-16.071 6.4286-16.071 6.4286" fill="none" filter="url(#b)" stroke="#ffd42a" stroke-dasharray="1, 2"/>   <path d="m458.9 602.14s-21.429-6.4286-36.429 2.8572-23.929 15.714-23.929 15.714" fill="none" filter="url(#b)" stroke="#ffd42a" stroke-dasharray="1, 2"/>   <path d="m451.4 640s-5-1.4286-15-12.5c-11.825-13.092-10-22.857-10-22.857" fill="none" filter="url(#b)" stroke="#ff7f2a" stroke-dasharray="1, 2"/>   <path d="m436.73 671.23s9.6043-2.9759 14.852-1.7821 13.742 7.6054 13.742 7.6054c29.287-3.0998 19.501 16.524 17.448 19.023s-15.156 8.886-16.581 14.35-0.47387 19.718-3.125 21.828-5.8537-0.82636-5.2078-5.0931-1.3408-13.655 2.6595-19.148-1.9293-4.2381-3.7726-0.75047-4.7508 9.2654-3.9143 13.219 1.5499 14.644-1.0254 14.672-6.0443-9.0462-5.5788-11.726 0.3221-15.556 5.3106-21.258-2.813-3.5348-4.2668-0.64591-4.0475 10.149-4.1993 14.311 1.5212 12.068-1.6527 11.707-6.0915-4.3899-5.7306-7.5638-0.0203-19.614 8.5318-25.553-6.272-2.8029-8.5807 3.3645-4.8739 16.003-8.1524 15.148 0.71165-16.155 1.9849-17.457 4.1521-9.655 8.4947-11.09 16.295-0.96589 20.573-2.8046c1.2433-0.53437-0.26742-3.1057-7.3073-5.6127-6.3575-2.264-18.88-1.1226-14.502-4.7439z" fill="url(#ap)" stroke="#000"/>   <path d="m255.09 275.99c-4.7012 2.62 0.23114 3.3502 0.23114 3.3502-19.711 21.882-25.549 0.74476-25.693-2.4861s7.7166-16.855 2.7406-19.525c-0.76832-0.41222 0.44838 0.89216-1.9983-1.181-1.9998-1.6945 1.7723-4.315 3.885-4.3358 2.1542-0.0232 2.1676-1.3539 4.6604 2.0017 4.0522 5.4546 5.5178 4.8983 4.5576 1.0722-0.43297-3.165-3.7588-3.0791-1.5763-6.0105 0.73549-0.84986 2.8638-1.419 4.5767-0.90046 2.6032 0.78812 1.9442 0.53544 2.3131 3.468 0.94549 7.5169 4.455 0.74881 3.6052-2.3716s-3.0593-8.647-5.7286-11.844-4.9126-5.5486-3.7392-7.8482c1.4518-2.8454 4.4293-3.3067 5.7467-1.7762 2.0839 2.421 13.125 14.575 10.735 24.709s6.5385-2.1076 4.1332-8.2381-7.0718-15.16-4.0618-16.716 10.269 12.491 10.192 14.311 3.3655 9.9565 1.0949 13.927-11.474 11.611-13.427 15.838c-0.56754 1.2285 2.2749 2.1312 9.1867-0.70985 0.52122-0.11012-12.414 1.6324-11.434 5.2664z" fill="url(#i)" stroke="#000"/>   <g transform="matrix(-.19845 .4155 -.32943 -.23638 508.49 129.43)">    <g transform="matrix(.95602 0 0 .98823 9.7024 8.8042)">     <g transform="matrix(.29004 0 0 .35607 167.81 34.475)" fill-rule="evenodd" stroke="#000">      <path d="m203.48 449.59s-33.931 9.6906-74.931 66.089c-51.299 70.565-31.114 328.15 22.125 426.45 39.682 73.269 25.19 24.28 63.088 111.8l-193.76-144.42 2.8571-482.86 77.143-117.14 65.714-22.857 77.143 134.29v48.571l-39.374-19.919z" fill="url(#bg)" stroke-width="3"/>      <path d="m48.571 166.2c-11.429-2.8571-5.7143 0-54.286 28.571-44.94 26.435-51.429-5.2707-51.429-5.2707l14.286 25.714 214.29 160s46.835 30.617 42.857 117.14c-2.8571 62.143 220 108.57 220 108.57l197.14 142.86 205.71 120s677.72 315.59 867.18 540.77c-22.621 78.867 107.75 108.55 152.4 88.286s203.18-224.37-77.745-231.84c-51.995-1.3656-1233.3-794.36-1233.3-794.36l-248.57-171.43-228.57-140.44-20 11.429z" fill="url(#bf)"/>      <path d="m408.57-27.638s15.6-43.908 2.0683 42.857c-8.2477 52.882-60.719 231.31-51.144 277.65-6.2754 53.276-11.392 37.499-19.603 30.512-8.8274-7.5122-8.0164-6.7028-24.856-16.162-17.133-9.6236-85.65 42.841-112.65 102.04-64.871 32.543 114.76-356.89 114.76-356.89l68.571-68.571 22.857-11.429z" fill="url(#ah)" stroke-width="3"/>      <path d="m244.46 319.41c-49.193 55.592-61.719 69.665-53.17 91.529-140.22-25.815-144.54 254.95-108.14 323.59 75.706 208.2 134.29 322.86 134.29 322.86s-539.08-229.85-614.59-439.31c-110.71-307.13-88.571-297.14-88.571-297.14 159.73 77.236 441.31 177.93 422.86-28.894 26.863-39.349 43.739-38.165-53.637-214.82 304.31 105.1 539.98-137.22 534.65-116.81 0 0-76.461 262.43-71.099 304.83 5.1109 40.419-52.809-2.0914-102.59 54.166z" fill="url(#be)"/>     </g>     <path d="m216.66 393.19c-45.824-33.112-142.73-57.97-178.81-203.68-6.413-25.906-1.0051-21.453-5.2346-31.046-2.9025-6.5835-6.9083-7.1682-6.9083-7.1682s4.1472 56.343 32.517 123.65c28.488 67.588 171 135.91 171 135.91s-1.7558-5.3143-12.572-17.658z" fill="url(#bd)" fill-rule="evenodd"/>     <path d="m195.77 179.84c-11.617-7.8287-21.74-4.897-28.081-17.418-16.013-31.619 5.4316 0.17206-19.193 20.203-24.486 19.919-70.726 4.5956-102.49-13.154-6.1377-7.4682 5.929 34.173 5.929 34.173 26.317 88.944 91.106 127.39 156.99 168.89-25.197-42.171-50.234-122.75-27.101-174.76 0 0 2.3221-9.0988 13.939-17.938z" fill="none" stroke="#003" stroke-opacity=".87869"/>     <path d="m279.69 35.188c-16.038 23.531-67.777 27.001-48.485 54.321l28.964 31.048 19.521-85.369z" fill="none" stroke="#000024" stroke-opacity=".94754" stroke-width="1.0996"/>     <path d="m163.64 132.11c-8.7969-20.127 38.664-57.457 47.457-48.46l41.437 42.399s-18.183 3.0305-26.264 21.213-18.183 20.203-18.183 20.203-36.613-17.432-44.447-35.355z" fill="none" stroke="#000036"/>     <path d="m176.17 70.816c8.1046-0.15841 0.15589 3.0041-10.147 1.0085s-30.708-8.2765-30.708-8.2765l17.969 42.926 2.875 15.478s-26.391-58.883-25.072-62.554c1.0484-2.9173 30.913 11.695 45.084 11.418z" fill="#c9c9c9" fill-rule="evenodd"/>     <path d="m278.59 205.75s20.449 28.131 41.946 28.912 50.86 4.6884 37.227-5.4698-8.9136-3.1256-27.265-10.94-30.411-13.284-34.606-18.754-14.157-21.879-20.449-25.005-17.827-15.628-9.4379 3.907 12.584 28.912 12.584 27.349z" fill="none" opacity=".86" stroke="#803300" stroke-width=".31683"/>     <path d="m252.5 173.49c7.4388 18.43 12.483 37.908 22.065 55.417 6.9804 11.002 19.275 18.764 32.454 19.002 22.257 3.0301 49.994 3.0298 72.244-0.0301 4.3667-0.99037-2.0427-6.1649-6.3536-4.8292-8.1466-1.9276-16.286-0.35183-24.429-2.2935-16.604 2.9102-34.732 2.2369-50.534-5.4258-12.287-6.1983-19.22-18.645-28.432-28.282-3.0802-9.4578-6.1251-18.94-9.402-28.32-0.51668-5.8794-7.377-15.635-0.42721-19.106 6.1472-0.17711 10.472 5.3789 16.188 7.0079 6.8602 3.293 12.791 8.3477 17.286 14.428 7.124 5.8219 13.774 12.299 19.01 19.896 4.7188 5.473 12.316 9.2476 18.991 10.075 4.1401 1.3892 7.8093 0.81989 11.283 3.4121" fill="none" stroke="#a05a2c" stroke-width=".92067"/>     <path d="m272.24 156.86-7.0711-2.5254-11.112-1.5152-3.5355 10.102 2.0203 12.627l3.0304 7.5762" fill="none" stroke="#a05a2c"/>     <path d="m244.46 153.33s-2.0203 15.657 1.0102 26.264 7.5761 24.749 7.5761 24.749l5.0508 12.122 4.0406 8.5863 5.5558 8.5863 5.5558 7.0711 3.5327 2.5472" fill="none" stroke="#a05a2c"/>     <path d="m235.87 163.43s2.5254 23.234 5.0508 27.779 7.0711 14.142 8.5863 20.203 5.5558 15.657 5.5558 15.657l4.5824 9.5148" fill="none" stroke="#a05a2c"/>     <path d="m230.31 173.53 4.0406 25.254s-1.5152 0.50508 1.5152 9.5964 8.0812 13.637 8.0812 13.637l0.50508 6.0609" fill="none" stroke="#a05a2c"/>     <path d="m305.07 255.35 25.759 1.5152c13.637 0.50508 26.769 2.5254 36.871-0.50507s18.688-4.0406 18.688-4.0406l3.5355 0.50507 1.0102 6.0609s-1.0102 3.5355-13.132 4.0406-15.152 2.0203-23.739 3.5355-7.5762 2.5254-16.668 1.0102-15.152-3.0304-17.173-3.0304-10.102-1.0102-10.102-1.0102l-1.9116-2.1425" fill="none" opacity=".8484" stroke="#a05a2c"/>     <path d="m326.28 274.04c13.637 0.50507 30.81 3.0304 39.901-0.50508s15.152-4.0406 23.739-5.0508 16.162-1.0102 16.162-1.0102l8.5863 6.0609-12.122 1.0102s-9.5964-1.0102-12.627 0-11.112 4.5457-11.112 4.5457-7.5761 5.0508-10.607 5.0508-12.122-0.50507-12.122-0.50507l-10.102-1.0102c-8.0812 0.50508-12.122 0-12.122 0l20.203 16.668 9.5964-3.5355s6.0609 0.50507 15.152-4.0406 5.0508-4.5457 15.152-6.0609 19.193-3.5355 22.223-3.5355h8.5863s6.0609 3.0304 5.5558 6.0609-4.5457 3.5355-11.617 3.5355-14.647-1.0102-19.698 1.5152-12.627 3.0305-14.647 8.5863-3.0304 8.5863-1.0102 12.122 5.0508 6.566 8.5863 10.102 8.0812 7.0711 10.102 9.0914 3.5355 3.5355 9.0914 3.0305 12.627 2.0203 17.173-1.0102 21.718-17.678 11.617-5.0508-17.678 14.142-17.678 14.142l12.627 9.5964s10.102-3.0305 12.122 2.0203 9.5964 9.5964 19.698 5.5558 13.132-10.607 21.718-11.112 12.627-1.0102 17.173 2.0203 9.5964 5.5558 14.647 12.122 4.5457 6.0609 9.0914 13.637 0.50508 13.637 1.5152 16.162 0 18.688 7.5762 24.749 18.183-3.5355 17.173 2.5254-1.5152 13.132 4.5457 13.132 34.85-12.122 33.84 7.0711 1.0102 25.254 11.112 25.759 24.244-4.5457 29.294-5.5558 3.5355-6.0609 9.5964-2.5254 8.0812 9.0914 0 12.627-18.183 2.5254-20.203 4.0406 6.566 30.305 18.688 28.789 18.688 2.0203 26.769-4.5457 6.566-10.102 9.5964-8.5863 6.0609 13.637-3.0305 17.678-16.162 1.0102-16.162 9.0914 19.698 22.728 25.254 20.203 13.132-7.0711 16.162-8.0812 7.5761-13.637 7.5761-17.173-1.5152-9.5964-1.5152-9.5964" fill="none" opacity=".89" stroke="#a05a2c"/>     <path d="m463.15 370c9.5964-4.5457 2.0203-6.0609 15.657-10.607s15.152-6.566 21.718-3.5355 10.102 4.0406 13.637 10.102 7.5761 6.566 8.5863 15.152 1.5152 9.0914 2.5254 17.173 1.5152 10.607 2.0203 13.637" fill="none" stroke="#a05a2c"/>     <path d="m469.72 371.52c9.0914-6.566 10.102-9.0914 17.173-9.0914s10.102-0.50507 14.142 1.5152 6.0609 2.0203 10.102 9.0914 9.0914 12.122 9.0914 17.173-0.50508 7.0711 1.0102 12.627 3.4516 7.6979 3.4516 7.6979l1.5991 2.4036 6.0609 1.5152" fill="none" stroke="#a05a2c" stroke-width="2"/>     <path d="m472.75 377.08c12.627-8.5863 14.647-11.112 22.728-7.0711s11.617 3.0305 13.637 10.102 3.5355 0 5.0508 13.132 2.0203 14.142 2.0203 14.142" fill="none" stroke="#a05a2c"/>     <path d="m481.84 380.61c12.122-4.0406 9.5964-9.5964 18.183-2.5254s5.5558 11.617 7.0711 15.152 4.0406 10.102 4.0406 10.102l1.0102 2.0203" fill="#a05a2c" fill-rule="evenodd" stroke="#a05a2c"/>     <path d="m396.48 316.47c8.5863 13.132 14.647 18.688 20.708 15.152s11.617-3.5355 16.162-7.5761 11.112-10.607 14.142-6.0609 4.5457 4.0406 2.0203 11.617-4.0406 11.112-3.5355 14.647 1.0102 10.102 6.566 11.112 3.5355 0.50507 12.122-3.0305 9.5964-6.0609 15.657-8.0812 6.0609-3.5355 11.112-3.0305 9.5964 2.5254 9.5964 2.5254" fill="none" opacity=".7964" stroke="#a05a2c" stroke-width="2"/>     <path d="m435.88 293.74c-9.0914 2.0203-14.142 4.5457-21.213 5.0508s-17.173 3.0305-20.203 4.0406-1.5152 8.5863-1.5152 8.5863 0 11.112 9.0914 9.0914 8.0812-9.5964 19.698-12.627 14.142-4.0406 17.678-5.0508 9.0914 1.0102 9.0914 1.0102l9.0914 7.5761s3.5355 2.0203 3.5355 8.0812c-1.032 14.286-8.3356 18.117 10.102 16.668 17.173-1.5152 21.213 0 21.213 0" fill="none" stroke="#a05a2c"/>     <path d="m535.89 371.52 4.0406 14.647 0.50507 11.112s0.50508 6.0609 1.0102 8.0812-4.5457 8.0812 2.5254 7.5761 16.668-6.566 18.688 1.0102-1.5152 13.132 5.0508 13.132 17.678-0.50508 24.244-0.50508 6.0609 2.5254 7.5762 8.0812-0.50508 11.617 2.5254 16.162 9.5964 8.5863 18.183 6.566 6.566-3.5355 13.637-4.0406 6.566 1.5152 6.566 1.5152" fill="none" stroke="#a05a2c"/>     <path d="m547.5 382.63c2.0203 16.162 6.0609 20.708 12.122 21.718s10.607-4.0406 13.132 6.0609 3.0305 11.617 10.102 10.607 14.647 3.5355 17.678 5.0508 7.0711 3.5355 8.5863 10.102 3.0304 9.5964 9.0914 9.5964 12.122 1.0102 12.122 1.0102l1.5152 2.0203" fill="none" stroke="#a05a2c"/>     <path d="m558.11 390.71c0 3.5355 8.0812 8.5863 8.0812 8.5863h2.0203s7.0711 5.0508 9.0914 9.0914 3.5355 5.0508 8.5863 7.0711 7.0711 2.0203 7.0711 2.0203" fill="none" stroke="#a05a2c"/>     <path d="m628.31 484.66c26.264-10.102 36.365-9.0914 36.365-9.0914l11.112 7.0711s10.102 8.0812 13.132 13.132-2.0203 10.102 4.0406 14.142 11.112 14.142 11.112 14.142 4.0176 11.106 2.0203 17.173-10.004 21.28-10.004 21.28l-6.158 4.9836" fill="none" stroke="#a05a2c"/>     <path d="m635.39 493.75c20.203-10.102 19.193-9.0914 25.254-10.102s14.142 8.0812 9.0914 10.102-22.223 7.0711-22.223 7.0711l-2.0203 7.0711" fill="none" stroke="#a05a2c"/>     <path d="m684.88 511.93c6.668 8.7758 15.102 21.248 7.9098 32.089-3.1466 4.9037-5.4593 23.214-12.467 16.587-3.0658-12.177-10.931-23.591-10.942-36.264 1.8162-9.071 10.69-3.7379 15.083-3.1356 1.6592-2.798 0.4448-6.2474 0.41706-9.2766z" fill="none" opacity=".838" stroke="#a05a2c"/>     <path d="m571.29 447.12c12.382 3.2537 96.159 86.021 98.608 91.317 2.2141 12.024-9.6474 10.286-7.8134 3.421-1.5301-3.9408 1.0038-5.3062-0.37715-9.2605-0.18258-2.5989-113.14-104.65-90.418-85.477z" fill="#784421" stroke="#784421" stroke-linecap="round" stroke-linejoin="round" stroke-opacity=".94754" stroke-width="2"/>     <path d="m250.36 105.04-34.952-42.052 59.466 11.521 27.255 0.40802c-11.066 8.3182-41.812 6.9381-51.769 30.123z" fill="url(#ag)" fill-rule="evenodd" opacity=".18"/>     <path transform="matrix(.66762 -.00576 -.22824 .3945 337.55 186.27)" d="m110.48 176.73a62.143 58.571 0 1 1 -35.078 17.692" fill="url(#a)" opacity=".13"/>     <path transform="matrix(.37782 .53711 -.28698 -.07362 292.73 137.29)" d="m110.48 176.73a62.143 58.571 0 1 1 -35.078 17.692" fill="#c87137" opacity=".23102"/>     <path transform="matrix(.16375 -.12917 -.05723 .1587 427.55 322.17)" d="m110.48 176.73a62.143 58.571 0 1 1 -35.078 17.692" fill="url(#a)" opacity=".18152"/>     <path transform="matrix(.28266 .18992 -.12201 .11898 488.75 328.33)" d="m110.48 176.73a62.143 58.571 0 1 1 -35.078 17.692" fill="url(#a)" opacity=".19472"/>     <path transform="matrix(.30395 .57558 -.1312 .36057 679.76 374.43)" d="m110.48 176.73a62.143 58.571 0 1 1 -35.078 17.692" fill="url(#a)" filter="url(#w)" opacity=".24"/>     <path transform="matrix(.28266 .18992 -.12201 .11898 575.9 380.07)" d="m110.48 176.73a62.143 58.571 0 1 1 -35.078 17.692" fill="url(#a)" filter="url(#x)" opacity=".21122"/>     <path transform="matrix(.28871 .1937 -.12462 .12134 427.61 287.04)" d="m110.48 176.73a62.143 58.571 0 1 1 -35.078 17.692" fill="url(#a)" opacity=".21"/>    </g>    <path d="m59.286 186.31c-11.685 7.7871 18.084 32.239 8.8979 43.078 7.649 5.2856 16.429-0.42562 24.173-2.3458 11.76-2.2979 7.5711 2.712 19.508 1.3385-8.2428 10.01-13.049-0.37064-22.069 8.5873-5.2038 2.8376-16.287 11.617-9.3586 18.828 10.04-0.0425 21.248-9.8475 30.518-12.569 12.629-5.9548 0.70072 7.4442 13.802 2.5511-9e-3 10.887 11.927-5.8849 5.5621 0.75408-11.057 9.3304-28.203 17.232-39.984 25.593 2.6635 11.183 16.214 13.354 22.298 9.5211 14.23-7.5017 39.925-31.551 53.176-40.595 1.7094 8.3411-29.16 35.644-34.159 40.595-9.3591 10.664-9.3785 2.9922-18.517 13.903 3.615 8.0176 15.909 7.0591 20.059 3.2884 10.292-8.7002 26.419-27.064 37.288-35.016 7.882 5.9887-11.529 23.224-18.286 33.576-7.2723 10.652-11.594 8.1803-20.344 17.58 0.83521 8.9035 16.378 4.2843 22.321 2.9923 9.3368-0.32297 11.014-11.495 19.012-13.403 10.288-1.2146 12.941 12.905 5.9539 18.483-8.7194 5.0013-27.877 3.0423-20.133 11.051 2.8716 7.1229 29.305 21.662 27.068 11.432-5.3099-13.903-9.989-28.947-10.731-42.173-20.617-33.56 59.429-178.49 33.147-200.52 6.7134-9.1078-30.163 64.608-69.441 101.72-6.7884 9.3885 6.3389 5.3859-4.7462 5.3158-9.8023 0.1649-18.552-4.8381-28.027-6.3065-1.6067-0.18426-45.374-17.381-46.988-17.255z" fill="#7a7a7a" fill-rule="evenodd" filter="url(#v)" opacity=".46"/>   </g>   <path d="m264.76 251.88s2.2868 4.1809 7.9459 7.6348c2.3679 1.4451-0.90198 12.021-4.4085 13.975s-12.983 5.8502-12.983 5.8502c-19.711 21.882-23.942 4.4948-24.086 1.2639 13.09-4.6589 25.809-19.311 30.924-13.814 3.8967-0.20006 2.6711-1.3027 3.2938-4.4599 0.27675-1.403-8.064-11.785-0.68563-10.451z" fill="url(#i)" stroke="#000"/>   <path d="m231.58 252.5c-2.1279 1.8957-2.7678 2.8571-1.0714 8.4821s2.1428 9.375 4.1071 9.2857 4.375-1.875 3.9286-3.2143-2.5893-7.5893-2.3214-8.6607 1.1607-5.4464 0.35714-6.25c-1.0229-2.6737-4.4118-0.16683-5 0.35715z" fill="url(#ao)" stroke="#000"/>   <path d="m241.75 248.12c-1.0199 0.23332-2.7356 3.2143-0.71428 8.8393 1.9869 5.5291 3.125 7.5893 5.0893 7.5s2.0983-1.5411 2.2321-2.9464c0.17857-1.875-2.963-4.8058-1.6071-7.1429 1.7753-3.0601 2.2322-4.5536 1.4286-5.3571-0.45329-2.6737-4.8913-1.2445-6.4286-0.89285z" fill="url(#an)" stroke="#000"/>   <path d="m322.74 868.51c11.617 4.5457 29.8-11.617 29.8-11.617s-3.5355 10.102 6.566 23.234-48.487 80.812-68.185 81.317-53.538-11.617-47.477-25.254 13.132-23.739 21.213-21.213-0.74036 11.849 15.657 10.102c2.4408-0.26009 17.664-5.7534 24.404-12.468 9.2855-9.2495 23.366-29.558 23.073-32.484-0.50508-5.0508 1.5152-6.566-5.0508-11.617z" fill="url(#aj)" stroke="#000"/>   <path d="m428.75 860.94c-11.617 4.5457-29.8-11.617-29.8-11.617s3.5355 10.102-6.566 23.234 48.487 80.812 68.185 81.317 53.538-11.617 47.477-25.254-13.132-23.739-21.213-21.213 0.74036 11.849-15.657 10.102c-2.4408-0.26009-17.664-5.7534-24.404-12.468-9.2855-9.2495-23.366-29.558-23.073-32.484 0.50508-5.0508-1.5152-6.566 5.0508-11.617z" fill="url(#ai)" stroke="#000"/>   <g transform="matrix(1.0538 -.40193 .40193 1.0538 -284.13 164.01)">    <path transform="matrix(1.6496 .81029 -.52205 1.0628 438.13 -104.11)" d="m252.86 554.51c0 31.165-16.15 56.429-36.071 56.429s-36.071-25.264-36.071-56.429 16.15-56.429 36.071-56.429 36.071 25.264 36.071 56.429z" fill="#a05a2c" stroke="#ff7f2a" stroke-dasharray="1, 2" stroke-linejoin="bevel" stroke-width=".25"/>    <path d="m461.63 620.77c5.6042 31.494 30.458 48.122 32.407 61.979 1.2742 9.0579-4.9867 6.8512-3.5153 11.473 2.6618 8.3611 8.0776 4.8088 9.2566 12.711 0.89509 6 9.853 13.608 9.853 13.608" fill="none" stroke="#784421" stroke-width=".25"/>    <path d="m550.8 701.09c-5.6042-31.494-15.305-41.809-17.255-55.666-1.2742-9.0579-8.9029-1.2954-10.374-5.9175-2.6618-8.3611-9.3403-16.678-10.519-24.581-0.89509-6-9.853-13.608-9.853-13.608" fill="none" stroke="#784421" stroke-width=".25"/>    <path d="m502.54 720.77c-0.0528-4.8817-4.1837-13.167-7.1963-16.533-6.4575-7.2144-8.9254-15.497-8.6254-23.162 0.15952-4.0773-4.4835-7.4184-4.9654-10.587-1.1285-7.4188-7.6046-2.7131-8.8814-6.6543-2.3097-7.1295-8.0475-14.985-9.0895-21.47-0.79113-4.9239-5.9458-16.563-5.9458-16.563" fill="none" stroke="#784421" stroke-width=".20546"/>    <path d="m464.16 618.75c5.545 32.29 30.136 49.339 32.065 63.547s6.4292 18.37 6.9114 24.569 8.5182 14.179 8.5182 14.179" fill="none" stroke="#784421" stroke-width=".2518"/>    <path d="m548.27 703.11c-5.545-32.29-30.136-49.339-32.065-63.547s-6.4292-18.37-6.9114-24.569-8.5182-14.179-8.5182-14.179" fill="none" stroke="#784421" stroke-width=".2518"/>    <path d="m494.97 720c-1.5195-4.8009 2.9273-5.9858 1.1788-8.1951-6.4075-8.0958-9.7966-15.707-12.803-22.66-2.0125-4.6538-1.8348-9.3899-4.2269-13.017-4.1866-6.3491-11.551-9.2734-12.183-13.566-1.7105-11.623-5.5705-15.774-6.0101-20.778s-7.3345-12.849-7.3345-12.849" fill="none" stroke="#784421" stroke-width=".20695"/>    <path d="m466.43 615.97c2.326 14.104 16.31 27.146 18.056 33.016 2.1427 7.2041 12.407 23.747 13.496 32.099 1.8979 14.558 9.3287 19.612 9.8032 25.964s5.3799 13.74 5.3799 13.74" fill="none" stroke="#784421" stroke-width=".25285"/>    <path d="m546 705.89c-2.326-14.104-16.31-27.146-18.056-33.016-2.1427-7.2041-12.407-23.747-13.496-32.099-1.8979-14.558-10.086-11.025-10.561-17.378s-4.6223-22.326-4.6223-22.326" fill="none" stroke="#784421" stroke-width=".25285"/>    <path d="m492.66 720.76c-2.0491-11.617-11.518-25.989-13.035-30.971-1.8614-6.1144-13.223-19.778-14.19-26.603-1.6858-11.895-8.6587-10.647-9.0924-15.771s-4.0462-18.567-4.0462-18.567" fill="none" stroke="#784421" stroke-width=".2078"/>    <path d="m554.29 695.82c-0.0528-4.8817 6.928-13.924 3.9154-17.29-6.4575-7.2144-14.986-12.971-14.686-20.637 0.15952-4.0773-3.2208-8.176-3.7027-11.345-1.1285-7.4188-11.645-9.5316-12.922-13.473-2.3097-7.1295-3.7544-9.4292-4.7964-15.914-0.79113-4.9239-9.7338-15.553-9.7338-15.553" fill="none" stroke="#784421" stroke-width=".20546"/>    <path d="m473 611.17c2.326 14.104 12.522 28.661 14.268 34.531 2.1427 7.2041 12.407 23.747 13.496 32.099 1.8979 14.558 3.546-0.97084 8.5405 2.9835 2.3753 1.8806-1.3104 7.1581-0.55008 17.004 0.685 8.87 5.93 22.495 5.93 22.495" fill="none" stroke="#784421" stroke-width=".25285"/>    <path d="m564.64 671.07c-0.0528-4.8817-4.1837 4.2583-7.1963 0.89258-6.4575-7.2144-9.1779-5.1426-8.878-12.808 0.15952-4.0773-6.2512-11.459-6.7332-14.628-1.1285-7.4188-6.5944-8.0164-7.8712-11.958-2.3097-7.1295-3.7544-9.4292-4.7964-15.914-0.79113-4.9239-9.9864-13.533-9.9864-13.533" fill="none" stroke="#784421" stroke-width=".20546"/>    <path d="m526.82 646.75c0.49329 7.1001 1.9659 7.4585 3.9165 5.2943s-0.62539-8.2389-1.6668-7.7262-1.9506 2.1641-2.2498 2.4318z" fill="none" stroke="#784421" stroke-width=".3505"/>    <path d="m565.65 664.5c-0.0528-4.8817-6.4566 4.2583-9.4692 0.89258-6.4575-7.2144-3.8746-4.385-3.5747-12.051 0.15952-4.0773-6.2512-11.459-6.7332-14.628-1.1285-7.4188-6.5944-8.0164-7.8712-11.958-2.3097-7.1295-6.0272-5.136-7.0692-11.621-0.79113-4.9239-3.6729-9.7449-3.6729-9.7449" fill="none" stroke="#784421" stroke-width=".20546"/>    <path d="m543.22 709.17c-2.326-14.104-16.31-27.146-18.056-33.016-2.1427-7.2041-12.407-23.747-13.496-32.099-1.8979-14.558-3.546-8.1205-8.5405-12.075-2.3753-1.8806-3.2352 12.123-3.9956-16.246-0.23835-8.8933-1.3843-14.161-1.3843-14.161" fill="none" stroke="#784421" stroke-width=".25285"/>    <path d="m481.62 715.25c-0.0347-3.2072-7.5468-14.964-9.526-17.175-4.2424-4.7397-5.8638-10.181-5.6668-15.217 0.10481-2.6787-2.9455-4.8737-3.2622-6.9554-0.7414-4.874-7.5214-4.0553-8.3602-6.6446-1.5174-4.6839-2.7617-7.572-3.4462-11.833-0.51975-3.2349-3.9062-10.882-3.9062-10.882" fill="none" stroke="#784421" stroke-width=".25"/>    <path d="m490.31 722.84c-2.0491-11.617-14.044-24.6-15.561-29.582-1.8614-6.1144-10.697-21.167-11.664-27.992-1.6858-11.895-3.0633-7.1064-7.344-11.186-2.0358-1.9402-2.7064 8.9931-3.4838-13.63-0.24368-7.0921-1.2456-11.483-1.2456-11.483" fill="none" stroke="#784421" stroke-width=".2078"/>    <path d="m565.68 656.89c-0.0386-3.5721-3.7143 1.6007-5.9187-0.86211-4.7252-5.279-2.8352-3.2087-2.6157-8.8179 0.11673-2.9835-4.5742-8.3849-4.9269-10.703-0.82577-5.4286-4.8253-5.8658-5.7596-8.7498-1.69-5.2168-4.4103-3.7582-5.1728-8.5036-0.57889-3.6029-3.9503-8.8984-3.9503-8.8984" fill="none" stroke="#784421" stroke-width=".25"/>    <path d="m472.28 709.95c-0.0347-3.2072-2.7486-8.6503-4.7278-10.862-4.2424-4.7397-3.0859-1.3422-2.8888-6.3784 0.10481-2.6787-2.9455-4.8737-3.2622-6.9554-0.7414-4.874-5.7536-5.5705-6.5925-8.1598-1.5174-4.6839-4.5294-6.0568-5.214-10.317-0.51975-3.2349-3.9062-10.882-3.9062-10.882" fill="none" stroke="#784421" stroke-width=".25"/>    <path d="m538.4 710.67c-0.0528-4.8817-11.76-24.784-14.772-28.149-6.4575-7.2144-9.683-14.487-9.3831-22.152 0.15952-4.0773-13.575 3.6933-14.057 0.52475-1.1285-7.4188-6.3419-11.299-7.6187-15.241-2.3097-7.1295-8.0475-14.985-9.0895-21.47-0.79113-4.9239-5.9458-16.563-5.9458-16.563" fill="none" stroke="#784421" stroke-width=".20546"/>    <path d="m524.42 646c0.92438 11.121 3.684 11.682 7.3392 8.2924s-1.1719-12.904-3.1233-12.101-3.6552 3.3896-4.2159 3.8089z" fill="none" stroke="#784421" stroke-width=".60047"/>    <path d="m564.64 671.07c-0.0528-4.8817-4.1837 4.2583-7.1963 0.89258-6.4575-7.2144-9.1779-5.1426-8.878-12.808 0.15952-4.0773-6.2512-11.459-6.7332-14.628-1.1285-7.4188-6.5944-8.0164-7.8712-11.958-2.3097-7.1295-3.7544-9.4292-4.7964-15.914-0.79113-4.9239-9.9864-13.533-9.9864-13.533" fill="none" stroke="#784421" stroke-width=".20546"/>    <path d="m466.25 705.44c-0.0242-2.2416-2.4262-4.7833-3.8095-6.3287-2.9652-3.3128-2.1568-0.93809-2.0191-4.4581 0.0732-1.8722-2.0587-3.4064-2.28-4.8613-0.51819-3.4066-4.0214-3.8934-4.6077-5.7031-1.0606-3.2737-3.1658-4.2332-3.6442-7.2112-0.36327-2.261-3.9929-8.1107-3.9929-8.1107" fill="none" stroke="#784421" stroke-width=".25"/>    <g transform="matrix(.4058 .19934 -.19934 .4058 464.41 560.42)" fill="#ac9d93" stroke="#000">     <path d="m74.38 57.67c-55.901 58.7-53.629 151.71 5.0712 207.61s151.71 53.629 207.61-5.0712 53.629-151.71-5.0712-207.61-151.71-53.629-207.61 5.0712zm5.2462 14.792 91.086 86.742-86.721 91.064c-46.655-49.335-48.542-126.24-4.3654-177.81zm9.7841-10.274c49.343-46.641 126.25-48.512 177.81-4.3212l-86.721 91.064-91.086-86.742zm4.8327 197.84 86.721-91.064 91.086 86.742c-49.337 46.633-126.25 48.492-177.81 4.3212zm96.505-101.34 86.721-91.064c46.636 49.337 48.534 126.25 4.3654 177.81l-91.086-86.742z" stroke-width="2.9355"/>     <path transform="matrix(1.3585 0 0 1.3585 37.219 23.703)" d="m42,20.5c0,1.10457-.89543,2-2,2s-2-.89543-2-2 .89543-2 2-2 2,.89543 2,2z" stroke-width=".84285"/>     <path transform="matrix(1.3585 0 0 1.3585 14.603 46.833)" d="m42,20.5c0,1.10457-.89543,2-2,2s-2-.89543-2-2 .89543-2 2-2 2,.89543 2,2z" stroke-width=".84285"/>     <path transform="matrix(1.3585 0 0 1.3585 238.4 215.58)" d="m42,20.5c0,1.10457-.89543,2-2,2s-2-.89543-2-2 .89543-2 2-2 2,.89543 2,2z" stroke-width=".84285"/>     <path transform="matrix(1.3585 0 0 1.3585 215.78 238.71)" d="m42,20.5c0,1.10457-.89543,2-2,2s-2-.89543-2-2 .89543-2 2-2 2,.89543 2,2z" stroke-width=".84285"/>     <path transform="matrix(-1.3585 0 0 -1.3585 150.05 297.69)" d="m42,20.5c0,1.10457-.89543,2-2,2s-2-.89543-2-2 .89543-2 2-2 2,.89543 2,2z" stroke-width=".84285"/>     <path transform="matrix(-1.3585 0 0 -1.3585 127.27 275.78)" d="m42,20.5c0,1.10457-.89543,2-2,2s-2-.89543-2-2 .89543-2 2-2 2,.89543 2,2z" stroke-width=".84285"/>     <path transform="matrix(-1.3585 0 0 -1.3585 342.38 96.868)" d="m42,20.5c0,1.10457-.89543,2-2,2s-2-.89543-2-2 .89543-2 2-2 2,.89543 2,2z" stroke-width=".84285"/>     <path transform="matrix(-1.3585 0 0 -1.3585 318.9 74.607)" d="m42,20.5c0,1.10457-.89543,2-2,2s-2-.89543-2-2 .89543-2 2-2 2,.89543 2,2z" stroke-width=".84285"/>     <path transform="matrix(-1.3585 0 0 -1.3585 108.68 246.78)" d="m42,20.5c0,1.10457-.89543,2-2,2s-2-.89543-2-2 .89543-2 2-2 2,.89543 2,2z" stroke-width=".84285"/>     <path transform="matrix(-1.3585 0 0 -1.3585 105.35 133.65)" d="m42,20.5c0,1.10457-.89543,2-2,2s-2-.89543-2-2 .89543-2 2-2 2,.89543 2,2z" stroke-width=".84285"/>     <path transform="matrix(-1.3585 0 0 -1.3585 97.371 211.42)" d="m42,20.5c0,1.10457-.89543,2-2,2s-2-.89543-2-2 .89543-2 2-2 2,.89543 2,2z" stroke-width=".84285"/>     <path transform="matrix(-1.3585 0 0 -1.3585 96.161 169.36)" d="m42,20.5c0,1.10457-.89543,2-2,2s-2-.89543-2-2 .89543-2 2-2 2,.89543 2,2z" stroke-width=".84285"/>     <path transform="matrix(0 -1.3585 1.3585 0 92.012 87.201)" d="m42,20.5c0,1.10457-.89543,2-2,2s-2-.89543-2-2 .89543-2 2-2 2,.89543 2,2z" stroke-width=".84285"/>     <path transform="matrix(0 -1.3585 1.3585 0 205.14 83.869)" d="m42,20.5c0,1.10457-.89543,2-2,2s-2-.89543-2-2 .89543-2 2-2 2,.89543 2,2z" stroke-width=".84285"/>     <path transform="matrix(0 -1.3585 1.3585 0 127.37 75.887)" d="m42,20.5c0,1.10457-.89543,2-2,2s-2-.89543-2-2 .89543-2 2-2 2,.89543 2,2z" stroke-width=".84285"/>     <path transform="matrix(0 -1.3585 1.3585 0 169.43 74.677)" d="m42,20.5c0,1.10457-.89543,2-2,2s-2-.89543-2-2 .89543-2 2-2 2,.89543 2,2z" stroke-width=".84285"/>     <path transform="matrix(1.3585 0 0 1.3585 252.29 69.113)" d="m42,20.5c0,1.10457-.89543,2-2,2s-2-.89543-2-2 .89543-2 2-2 2,.89543 2,2z" stroke-width=".84285"/>     <path transform="matrix(1.3585 0 0 1.3585 256.69 183.65)" d="m42,20.5c0,1.10457-.89543,2-2,2s-2-.89543-2-2 .89543-2 2-2 2,.89543 2,2z" stroke-width=".84285"/>     <path transform="matrix(1.3585 0 0 1.3585 263.61 104.47)" d="m42,20.5c0,1.10457-.89543,2-2,2s-2-.89543-2-2 .89543-2 2-2 2,.89543 2,2z" stroke-width=".84285"/>     <path transform="matrix(1.3585 0 0 1.3585 264.82 146.53)" d="m42,20.5c0,1.10457-.89543,2-2,2s-2-.89543-2-2 .89543-2 2-2 2,.89543 2,2z" stroke-width=".84285"/>     <path transform="matrix(0 1.3585 -1.3585 0 268.26 230.81)" d="m42,20.5c0,1.10457-.89543,2-2,2s-2-.89543-2-2 .89543-2 2-2 2,.89543 2,2z" stroke-width=".84285"/>     <path transform="matrix(0 1.3585 -1.3585 0 155.13 233.43)" d="m42,20.5c0,1.10457-.89543,2-2,2s-2-.89543-2-2 .89543-2 2-2 2,.89543 2,2z" stroke-width=".84285"/>     <path transform="matrix(0 1.3585 -1.3585 0 232.9 241.42)" d="m42,20.5c0,1.10457-.89543,2-2,2s-2-.89543-2-2 .89543-2 2-2 2,.89543 2,2z" stroke-width=".84285"/>     <path transform="matrix(0 1.3585 -1.3585 0 190.84 242.63)" d="m42,20.5c0,1.10457-.89543,2-2,2s-2-.89543-2-2 .89543-2 2-2 2,.89543 2,2z" stroke-width=".84285"/>     <path transform="matrix(-1.3585 0 0 -1.3585 156.97 112.08)" d="m42,20.5c0,1.10457-.89543,2-2,2s-2-.89543-2-2 .89543-2 2-2 2,.89543 2,2z" stroke-width=".84285"/>     <path transform="matrix(-1.3585 0 0 -1.3585 214.75 166.87)" d="m42,20.5c0,1.10457-.89543,2-2,2s-2-.89543-2-2 .89543-2 2-2 2,.89543 2,2z" stroke-width=".84285"/>     <path transform="matrix(-1.3585 0 0 -1.3585 185.61 139.66)" d="m42,20.5c0,1.10457-.89543,2-2,2s-2-.89543-2-2 .89543-2 2-2 2,.89543 2,2z" stroke-width=".84285"/>     <path transform="matrix(-1.3585 0 0 -1.3585 257.03 207.37)" d="m42,20.5c0,1.10457-.89543,2-2,2s-2-.89543-2-2 .89543-2 2-2 2,.89543 2,2z" stroke-width=".84285"/>     <path transform="matrix(-1.3585 0 0 -1.3585 316.57 264.28)" d="m42,20.5c0,1.10457-.89543,2-2,2s-2-.89543-2-2 .89543-2 2-2 2,.89543 2,2z" stroke-width=".84285"/>     <path transform="matrix(-1.3585 0 0 -1.3585 286.02 234.94)" d="m42,20.5c0,1.10457-.89543,2-2,2s-2-.89543-2-2 .89543-2 2-2 2,.89543 2,2z" stroke-width=".84285"/>     <path transform="matrix(0 -1.3585 1.3585 0 228.56 134.07)" d="m42,20.5c0,1.10457-.89543,2-2,2s-2-.89543-2-2 .89543-2 2-2 2,.89543 2,2z" stroke-width=".84285"/>     <path transform="matrix(0 -1.3585 1.3585 0 172.71 192.56)" d="m42,20.5c0,1.10457-.89543,2-2,2s-2-.89543-2-2 .89543-2 2-2 2,.89543 2,2z" stroke-width=".84285"/>     <path transform="matrix(0 -1.3585 1.3585 0 201.34 162.36)" d="m42,20.5c0,1.10457-.89543,2-2,2s-2-.89543-2-2 .89543-2 2-2 2,.89543 2,2z" stroke-width=".84285"/>     <path transform="matrix(0 -1.3585 1.3585 0 133.98 233.07)" d="m42,20.5c0,1.10457-.89543,2-2,2s-2-.89543-2-2 .89543-2 2-2 2,.89543 2,2z" stroke-width=".84285"/>     <path transform="matrix(0 -1.3585 1.3585 0 76.367 293.68)" d="m42,20.5c0,1.10457-.89543,2-2,2s-2-.89543-2-2 .89543-2 2-2 2,.89543 2,2z" stroke-width=".84285"/>     <path transform="matrix(0 -1.3585 1.3585 0 106.41 262.41)" d="m42,20.5c0,1.10457-.89543,2-2,2s-2-.89543-2-2 .89543-2 2-2 2,.89543 2,2z" stroke-width=".84285"/>    </g>    <path d="m494.72 691.49c-1.7678 2.7779-1.0102 4.5457 0.75761 6.0609s2.0203-3.283 1.2627-4.2932-1.7678-1.5152-2.0203-1.7678z" fill="none" stroke="#784421" stroke-width=".25"/>    <path d="m494.72 691.49c-1.7678 2.7779-1.0102 4.5457 0.75761 6.0609s2.0203-3.283 1.2627-4.2932-1.7678-1.5152-2.0203-1.7678z" fill="none" stroke="#784421" stroke-width=".25"/>    <path d="m505.08 685.52c-1.7678 6.1754-1.0102 6.4871 0.75761 4.6048s2.0203-7.1659 1.2627-6.72-1.7678 1.8823-2.0203 2.1151z" fill="none" stroke="#784421" stroke-width=".25"/>    <path d="m504.31 684.87c-3.3646 9.8455-1.9226 10.342 1.442 7.3415s3.8452-11.425 2.4033-10.714-3.3646 3.0009-3.8452 3.3721z" fill="none" stroke="#784421" stroke-width=".43549"/>    <path d="m548.89 679.67c2.981 5.9658 4.2194 6.0309 4.8894 3.8701s-3.499-6.914-4.093-6.3076-0.67011 2.1608-0.79649 2.4376z" fill="none" stroke="#784421" stroke-width=".29321"/>    <path d="m546.35 677.84c5.1479 11.991 7.6018 12.028 9.2166 7.5469s-6.0538-13.894-7.3143-12.605-1.6149 4.4807-1.9024 5.0577z" fill="none" stroke="#784421" stroke-width=".59113"/>    <path d="m454.94 662.06c5.1562 10.032 6.496 10.219 6.491 6.698-5e-3 -3.5209-6.0227-11.629-6.4534-10.667s5e-3 3.5208-0.0376 3.9691z" fill="none" stroke="#784421" stroke-width=".38613"/>   </g>  </g> </svg>