<?xml version="1.0" encoding="UTF-8"?>
<svg viewBox="0 0 1072.1132 1338.5187" xmlns="http://www.w3.org/2000/svg" xmlns:xlink="http://www.w3.org/1999/xlink">
 <g transform="matrix(2.4389 0 0 2.4389 7916.2 -4750.9)">
  <g transform="translate(-218.4 727.15)" fill="#0e0e0e">
   <path d="m-2884.1 1757.5c0-0.55 0.45-1 1-1s1 0.45 1 1-0.45 1-1 1-1-0.45-1-1z"/>
   <path d="m-2881.1234,1756.5473c0-.55.8734-1 1.941-1s2.2191.45 2.559,1c.3505.5672-.4896,1-1.941,1-1.4074,0-2.559-.45-2.559-1z"/>
   <path d="m-2869.9 1756.3c0.2264-0.6875 1.4799-1.4057 2.7855-1.596 2.0725-0.3021 2.2057-0.1435 1.0492 1.25-1.5661 1.887-4.4272 2.1452-3.8347 0.346z"/>
   <path d="m-2876.1265,1754.5415c-1.0147-1.896-1.2409-1.9194-4.1282-.4263-1.68.8688-3.2825,1.3517-3.5611,1.0731s1.7883-1.6694 4.593-3.0906c4.5707-2.3162 5.101-2.4009 5.1147-.8172 .013,1.4633.1733,1.5171.935.313 .7928-1.2532 1.2791-1.2614 3.5255-.059l2.6059,1.3947-3.7194,1.8091c-4.53,2.2034-4.0719,2.2202-5.3654-.1967z"/>
   <path d="m-2865.1234,1752.6187c0-1.1444 2.8443-4.0714 3.9564-4.0714 .4475,0 1.6023-1.2375 2.5662-2.75l1.7527-2.75-2.9424,2.75c-2.9521,2.7592-5.3329,3.5668-5.3329,1.809 0-.5175.4815-1.2386 1.0701-1.6023s1.423-1.6156 1.8545-2.7819c.6563-1.7741 1.4679-2.0711 4.9689-1.8183 4.1068.2965 4.1717.2514 3.498-2.4328-.4978-1.9832-.2255-3.0719.9904-3.961 1.5326-1.1206 1.5375-1.2796.057-1.8477-2.5029-.9604-3.5713.2678-3.2409,3.726 .2659,2.7834 0,3.159-2.1982,3.159-1.9108,0-2.5789-.5892-2.8347-2.5-.1841-1.375-.7466-2.9275-1.25-3.45-2.1311-2.2118-.9561-3.6483 2.4599-3.0074 3.9026.7321 12.4577-2.854 9.5472-4.002-.8676-.3422-2.8096-.1538-4.3155.4187-1.8894.7184-3.3374.7201-4.6724.01-2.354-1.2598-2.3951-1.7985-.3129-4.0993 1.1181-1.2355 1.7025-4.0544 1.8821-9.0787 .3642-10.1874.807-90.0666.5061-91.2869-.6187-2.5084.1576-4.4184 2.0382-5.0152 2.7608-.8763 4.952,1.146 4.952,4.5702 0,1.932.625,3.0086 2,3.445 1.1.3491 2,1.2419 2,1.984 0,1.8361 2.0197,2.4065 4.8339,1.3652 3.9129-1.4478 4.5312.1764 1.3376,3.5135-2.9392,3.0713-3.0174,3.4213-3.7165,16.6373-.3928,7.425-.8411,14.85-.9962,16.5s-.6189,14.5875-1.0305,28.75c-.6866,23.6259-.6114,25.75.9117,25.75 1.0092,0 1.66.8072 1.66,2.059 0,1.1325-.45,1.7809-1,1.441s-1,.014-1,.786-.9,2.2185-2,3.214c-2.6332,2.383-2.5355,4.7902.2441,6.0129 2.9765,1.3092 3.6055,4.4871.8882,4.4871-1.1079,0-2.285.4379-2.6158.9732s-2.1031,1.6858-3.9384,2.5568-3.3203,2.1204-3.3,2.7767c.1,3.2265-.3968,4.6933-1.5896,4.6933-.7213,0-2.2774.9-3.4582,2-2.275,2.1191-4.2303,2.6144-4.2303,1.071z"/>
   <path d="m-2848.1234,1722.6306c0-.5041-.503-1.0843-1.1178-1.2892-.8232-.2744-.8128-9.0594.039-33.3333 .6364-18.1285 1.3382-34.5358 1.5594-36.4608 1.5977-13.9025 1.6621-16.1226.5083-17.5129-.6672-.8039-.9478-2.1528-.6237-2.9975 .4732-1.233.2208-1.3386-1.2796-.5356-1.6714.8945-1.9481,2.8805-2.6156,18.7732-.8094,19.2717-.1136,71.4231.9765,73.1869 .8167,1.3215 2.5531,1.4366 2.5531.1692z"/>
   <path d="m-2870.1178,1749.7973c0-.4125.4619-2.393 1.0197-4.4012 .818-2.945 1.3972-3.5511 2.9944-3.1334 2.2694.5935 2.3065.7008 1.0533,3.0482-.5099.955-1.1707,2.5239-1.4686,3.4864-.5206,1.682-3.6103,2.5405-3.5988,1z"/>
   <path d="m-2867.5 1739.8c-0.6095-0.9862 2.8486-5.245 4.2589-5.245 1.4641 0 1.3883 3.3014-0.1103 4.8-1.3542 1.3542-3.4479 1.5788-4.1486 0.445z"/>
   <path d="m-2845.5 1733.7c-2.1335-2.3576-2.1558-2.2501 1.2574-6.0732 2.5048-2.8055 3.2047-3.1058 5-2.1449 2.6517 1.4191 2.657 4.0532 0.015 7.412-2.4414 3.1038-4.0105 3.3054-6.2724 0.8061z"/>
   <path d="m-2846.1749,1624.9853c-.9346-1.1262-.6605-1.597 1.382-2.3735 2.9603-1.1256 4.2188-3.1454 5.192-8.3329 1.1413-6.0835 3.246-4.6394 3.6705,2.5184 .2038,3.4375.2206,6.9257.037,7.7515-.4509,2.0303-8.6693,2.3792-10.2816.4365z"/>
   <path d="m-2846.9 1619.9c-4.108-1.655-3.2292-8.3339 1.0967-8.3339 4.5004 0 6.1711 4.3269 2.8361 7.345-1.9457 1.7609-1.9894 1.7718-3.9328 0.9889z"/>
  </g>
  <g transform="matrix(.97393 .22684 -.22684 .97393 44.563 1400.2)" fill="#0e0e0e">
   <path d="m-2680.7414,1738.3563c-.4049-.655-.2036-1.3684.4472-1.5854s.9489-.7736.6625-1.237 .3858-1.1303 1.4938-1.482 2.0145-1.1288 2.0145-1.727 .9194-.2555 2.043.7614c1.7907,1.6205 1.9628,1.6396 1.393.1549-.7774-2.0258.8065-2.1817 5.6648-.5574 4.0602,1.3575 6.6831,3.4733 2.8992,2.3387-1.375-.4123-3.052-.957-3.7268-1.2105s-1.751.69-2.3919,2.0965c-.9329,2.0474-1.5225,2.366-2.9575,1.598-2.608-1.3957-3.9442-1.1758-3.2854.5408 .7055,1.8386-3.1386,2.1177-4.2564.309z"/>
   <path d="m-2669.463,1736.9898c.3287-.8566 1.2514-1.3066 2.0504-1s1.641.5575 1.871.5575 .4182.45.4182,1-1.1109,1-2.4686,1c-1.824,0-2.3126-.4067-1.871-1.5575z"/>
   <path d="m-2664.1234,1737.5473c0-.55.7016-1 1.559-1s1.2809.45.941,1-1.0415,1-1.559,1-.941-.45-.941-1z"/>
   <path d="m-2686.1234,1735.0107c-1.375-.7445-3.2875-1.5892-4.25-1.8771-.9686-.2898-1.75-1.493-1.75-2.6947 0-1.1941-.7875-2.7689-1.75-3.4995-1.6047-1.2182-1.5424-1.3323.75-1.3739 1.375-.025 3.5125-.3168 4.75-.6485 1.6671-.4467 2.25-.176 2.25,1.0451 0,.9064.675,1.907 1.5,2.2236 1.5867.6089 2.1066,3.3616.6349,3.3616-.4759,0-2.0094-.9-3.4078-2s-2.8779-2-3.2878-2c-1.2489,0 3.9091,4.1528 6.3107,5.081 1.2375.4782 2.25,1.5557 2.25,2.3943 0,1.8021-.6537,1.8001-4-.012z"/>
   <path d="m-2681.1234,1730.597c0-1.0727-.7875-2.4144-1.75-2.9817-1.5263-.8995-1.5583-1.1596-.25-2.0344 2.3607-1.5785 4-1.2066 4,.9074 0,1.0675.45,2.2191 1,2.559 1.7596,1.0875 1.0703,3.5-1,3.5-1.3164,0-2-.6667-2-1.9503z"/>
   <path d="m-2699.4706,1725.0821c-1.016-.7686-2.4747-1.1566-3.2416-.8623-2.5338.9723-2.9315-2.8327-.5017-4.8003 1.6392-1.3273 2.0571-2.402 1.5524-3.9921-.6453-2.0333-.4703-2.1233 2.6738-1.3741 4.3246,1.0306 7.9111,1.0545 10.1096.067 1.5721-.7059 1.6809-.302 1.0962,4.0715-.6719,5.0261-1.7687,6.5584-4.3415,6.0652-1.0296-.1974-1.4204-1.2945-1.2462-3.4988 .2271-2.8734-.026-3.2112-2.405-3.2112-2.5573,0-2.5926.073-.9234,1.9176 1.7918,1.9799 1.8387,6.2008.075,6.7202-.55.162-1.8313-.3343-2.8472-1.1029z"/>
   <path d="m-2685.9 1722.3c-1.3873-1.3873-1.5928-4.4392-0.3507-5.2069 1.1537-0.7129 5.3646 4.2518 4.6234 5.451-0.812 1.3139-2.83 1.1986-4.2727-0.2441z"/>
   <path d="m-2711.5345,1718.4706c-3.1568-3.7516-3.1933-4.3865-.3664-6.3666 2.7876-1.9525 3.7775-1.9674 3.7775-.057 0,.825.6199,1.5 1.3776,1.5s1.9127.6449 2.5669,1.4331c.9337,1.1251.8279,1.9846-.4926,4-2.1954,3.3506-3.7093,3.2382-6.863-.5098z"/>
   <path d="m-2705.0871,1712.0911c-1.3565-1.6346-.6022-3.5438 1.4003-3.5438 3.2977,0 3.4019-2.4153 1.0241-23.7314-2.1415-19.1979-3.8343-30.17-9.1239-59.1357-1.5934-8.7257-1.9032-9.4344-4.5237-10.3479-3.3435-1.1655-3.5301-2.1693-.7636-4.1071 1.5103-1.0579 1.8859-2.0872 1.4276-3.9129-1.1235-4.4768 4.183-7.0979 6.7576-3.3379 .4041.5901.7416,3.1744.75,5.7428s2.0143,16.9685 4.4574,32 5.5877,35.0415 6.9878,44.4664c2.7987,18.8402 3.0765,19.9603 5.1474,20.755 1.7136.6576 1.8747,3.2113.2655,4.2059-.6365.3933-3.0834.6423-5.4375.5533s-4.5599.2907-4.9018.8438c-.8696,1.407-2.0532,1.2532-3.4671-.4505z"/>
   <path d="m-2708.7 1709.5c-0.3619-0.5856 0.2594-2.0438 1.3806-3.2406 2.0379-2.1752 2.0379-2.1797 0.1282-13.176-1.0507-6.05-4.5726-24.472-7.8264-40.938-5.7919-29.31-5.9815-29.992-9.0324-32.5-4.4912-3.692-4.0199-4.9174 1.6516-4.2945 5.0651 0.5562 6.7861 1.8817 5.0926 3.9223-0.7399 0.8915-0.3047 4.0975 1.498 11.034 2.6622 10.243 13.659 69.447 13.659 73.536 0 2.7114-5.459 7.4257-6.5516 5.6579z"/>
   <path d="m-2729.9192,1611.2419c-.9835-3.065-.8819-13.0892.1388-13.6946 .4636-.275 1.4333,1.2173 2.1549,3.3162 1.6111,4.6865 4.208,7.6838 6.6571,7.6838 1.0147,0 1.845.3949 1.845.8776 0,1.531-2.3787,2.8263-6.2958,3.4282-3.2919.5059-3.8893.292-4.5-1.6112z"/>
   <path d="m-2725.1 1603.6c-0.5694-1.0639-1.0352-2.4035-1.0352-2.977 0-1.6791 4.5691-4.1914 6.3677-3.5012 2.1872 0.8393 3.1741 5.0546 1.6215 6.9254-1.7452 2.1029-5.7263 1.8468-6.954-0.4472z"/>
  </g>
  <path d="m-2989.6936,2221.515c.2549-.4125-.5755-.75-1.8455-.75s-2.1004.3375-1.8455.75 1.0854.75 1.8455.75 1.5905-.3375 1.8455-.75z" fill="#0e0e0e"/>
  <path d="m-2989.0391,2214.902c0-.485-.6692-.3265-1.487.3522-.8694.7216-2.6346.9767-4.25.6144l-2.763-.6198 2.4425,1.3963c1.8638,1.0655 2.8709,1.1289 4.25.2676 .9941-.6208 1.8075-1.5256 1.8075-2.0107z" fill="#0e0e0e"/>
  <path d="m-3010.5665,2214.7002c2.2287-1.2657 2.2287-1.2657.1279-.7968-1.1555.2579-3.164.2688-4.4635.024-1.7451-.3286-2.0373-.1575-1.1178.6546 1.7503,1.546 2.8955,1.5709 5.4534.1182zm11.0173,3.5637c1.0095-1.3266.8825-2.6026-.568-5.7065-2.0549-4.3975-2.036-6.9408.063-8.4594 .7639-.5527.9361-1.0651.3876-1.1532-1.5812-.2537-3.7125,1.6763-4.0289,3.6484-.1604.9995.4499,3.25 1.3562,5.0012 1.0688,2.0654 1.3334,4.0502.753,5.6501-1.0452,2.8812.161,3.4848 2.037,1.0194zm-25.8422.4397c-.8896-1.9869-.8237-3.1567.2859-5.0841 3.0711-5.3337 2.2407-8.4359-2.4095-9.0018-1.1269-.1373-.9632.2144.5119,1.0988 2.0461,1.227 2.0772,1.6269.5466,7.0591-1.7231,6.1156-1.5557,7.9027.775,8.2766 1.2453.1998 1.2855-.1255.2897-2.3487zm-5.7896,18.1371c-2.7123-3.4389-4.9658-5.3141-6.7258-5.5965-4.1541-.6665-6.6233-3.6995-6.0288-7.4052 .5845-3.6428 2.3828-5.3332 5.1938-4.8822 2.3581.3783 8.1435,8.5596 8.4369,11.9305 .3993,4.5879 9.6512,5.6528 10.3667,1.1934 .4264-2.6577-3.1552-7.5748-5.8301-8.004-1.1488-.1843-5.1547-2.9422-8.9021-6.1286s-8.1898-6.6465-9.8721-7.6892c-8.0721-5.0033-2.4719-17.012 7.1571-15.347 1.9594.3387 5.2292,1.5905 7.2662,2.7816s6.0766,2.9991 8.9769,4.0179c4.5631,1.6031 6.0951,1.6857 11.3786.6126 3.3579-.682 7.7097-2.24 9.6706-3.4621 8.6477-5.3901 16.3171-5.3026 19.193.2188 2.2145,4.2516 1.2452,8.9232-2.2167,10.6838-1.5237.7749-5.8901,4.1296-9.703,7.4547s-8.5218,6.6695-10.4639,7.4316c-3.0892,1.2122-3.6139,1.9007-4.1912,5.4986l-.6598,4.1128 4.1798.1076c4.5476.1172 6.0237-.9197 6.6989-4.7057 .2415-1.3538 1.7789-4.2974 3.4168-6.5413 3.6677-5.0247 7.5165-5.4816 9.4675-1.1237 1.6692,3.7282.2254,6.1124-5.2239,8.627-2.9832,1.3765-5.6846,3.7149-7.8695,6.8121-1.8299,2.5937-4.1313,4.8645-5.1142,5.0462-2.1091.3897-5.1474-1.7124-7.9074-5.4708-2.6719-3.6385-4.2233-3.679-6.7659-.1767-5.349,7.3678-8.1199,7.3686-13.9284,0z" fill="#0e0e0e"/>
  <g transform="translate(-218.84 727.59)" fill="#0e0e0e">
   <path d="m-2857.3 1612.1c-1.0137-2.2249-0.8726-2.8997 1.0296-4.9245 1.6054-1.7089 3.1462-6.5285 5.6713-17.74 1.9069-8.4666 6.2181-25.744 9.5804-38.394s6.3289-23.971 6.5925-25.157c0.2818-1.2684-0.4033-3.3505-1.6632-5.0546-3.7029-5.0084 0.299-8.8696 4.4448-4.2885 2.3392 2.5848 5.2959 2.5404 8.1302-0.1223 2.6708-2.5091 6.2095-2.0205 8.1537 1.1259 1.6076 2.6018 0.8677 3.8262-3.3863 5.6037-1.8471 0.7717-4.0958 2.5287-4.9972 3.9044s-4.253 11.836-7.4479 23.245-7.6191 26.727-9.8315 34.04-3.7815 13.924-3.4871 14.692 1.7348 1.5338 3.2007 1.7034c1.916 0.2215 2.7583 0.964 2.9958 2.6407 0.6295 4.4447-5.4983 8.0997-8.5175 5.0804-1.133-1.133-1.68-0.6218-3.8377 3.5871-1.5906 3.1028-5.2288 3.1348-6.6306 0.058z"/>
   <path d="m-2829.6 1513.6c-2.292-2.5326-1.2204-5.8691 2.1573-6.7168 4.2863-1.0758 6.8888 3.8912 3.7064 7.0737-2.0834 2.0834-3.7469 1.9821-5.8637-0.3569z"/>
   <path d="m-2836.6 1510.5c-1.8891-3.0567 3.4412-9.9911 7.6798-9.9911 3.6844 0 3.6136 2.0445-0.1447 4.1829-1.6268 0.9256-3.2477 2.8381-3.6021 4.25-0.649 2.5856-2.777 3.4287-3.933 1.5582z"/>
  </g>
  <g transform="matrix(.97377 .22753 -.22753 .97377 44.255 1403.9)" fill="#0e0e0e">
   <path d="m-2714.9 1598.9c-0.7231-0.2893-1.7436-1.6541-2.2678-3.033-0.7632-2.0072-1.3984-2.369-3.1854-1.8144-5.6346 1.7485-6.509 1.6872-8.6463-0.6069-2.8751-3.0861-2.4044-6.3619 0.9141-6.3619 3.7486 0 3.7442-4.0827-0.012-11.524-3.1531-6.2463-14.857-31.819-22.185-48.476-4.6119-10.482-6.7971-13.152-11.884-14.522-4.8621-1.3092-5.7076-3.6428-2.4868-6.8636l2.5119-2.5119 3.7785 1.8773c4.5715 2.2713 6.0443 2.0876 8.5226-1.0629 2.3176-2.9464 4.3278-3.0851 5.766-0.3978 0.8351 1.5604 0.6874 2.6845-0.6505 4.9492-1.6857 2.8537-1.6579 3.0951 1.0603 9.2311 6.295 14.21 21.713 51.386 25.099 60.517 2.3084 6.2263 4.6778 10.789 6.5169 12.549 2.8503 2.7282 3.0111 4.4804 0.6867 7.4843-1.0287 1.3296-1.4573 1.3982-3.5369 0.5662z"/>
   <path d="m-2759.1 1502.1c-1.5073-1.8162-0.5892-6.0771 1.4806-6.8713 3.6751-1.4103 7.3785 2.8643 5.5086 6.3583-1.2613 2.3568-5.218 2.6472-6.9892 0.513z"/>
   <path d="m-2749.7 1496.5c-0.365-1.1502-2.1954-2.7312-4.0674-3.5134-4.0626-1.6975-4.5769-4.3953-0.8379-4.3953 1.4112 0 3.4315 0.4634 4.4897 1.0297 2.2911 1.2261 5.2773 6.6229 4.4264 7.9997-1.0433 1.6881-3.3213 1.0516-4.0108-1.1207z"/>
  </g>
  <g transform="matrix(.98737 .15842 -.15842 .98737 -18.646 1188.8)" fill="#0e0e0e">
   <path d="m-2792.5284,1481.4018c1.8988-2.1385 1.8974-2.1415-.4231-.923-1.2805.6724-2.968.977-3.75.6769s-1.4219-.1472-1.4219.3397c0,.7958 1.5184,1.7638 3.095,1.973 .3273.043 1.4523-.8866 2.5-2.0666z"/>
   <path d="m-2800.9 1472c-3.2623-2.285-2.753-2.9433 2.2775-2.9433 4.7759 0 5.6069 0.9393 2.75 3.108-2.2372 1.6982-2.3742 1.6937-5.0275-0.1647z"/>
   <path d="m-2801.3734,1466.1553c-1.6482-1.2512-2.4218-3.608-1.1843-3.608 .3112,0 1.465.4812 2.564,1.0694 1.4338.7674 2.3786.7537 3.3452-.049 1.8548-1.5393 3.1036.5771 1.4887,2.523-1.4896,1.7949-3.9008,1.8198-6.2136.064z"/>
   <path d="m-2801.9009,1460.9906c-2.9894-2.0939-3.0996-4.983-.1294-3.3934 1.1513.6161 3.1763.8483 4.5.5161 2.6428-.6633 3.3117,1.1292 1.2069,3.234-1.5967,1.5967-2.9083,1.5129-5.5775-.3567z"/>
   <path d="m-2803.8734,1454.6038c-1.2375-1.0324-2.25-2.3674-2.25-2.9668 0-1.4428 2.2975-1.3922 3.7729.083 .8833.8833 1.788.8926 3.6643.038 3.2219-1.468 4.3998.207 2.0058,2.8525-2.1847,2.4139-4.2938,2.412-7.193-.01z"/>
   <path d="m-2818.4874,1454.7674c-1.3907-2.2502.4171-7.0595 3.7552-9.9904 1.7879-1.5698 3.5669-3.6781 3.9533-4.6851 .8404-2.19 1.1646-1.9182 2.0339,1.7054 .5385,2.2446.3207,2.75-1.185,2.75-2.5983,0-6.2948,4.2607-7.0962,8.1792-.4451,2.1762-.9455,2.8752-1.4612,2.0409z"/>
   <path d="m-2823.5 1449.7c-1.2492-2.0211 1.5869-6.7938 7.0903-11.932 3.0946-2.8892 5.722-5.1392 5.8386-5s0.5233 1.2654 0.9037 2.5029c0.5318 1.7304 0.2937 2.25-1.0314 2.25-2.8623 0-8.517 5.0166-10.403 9.2289-0.9754 2.1786-2.0547 3.5061-2.3983 2.95z"/>
   <path d="m-2784.4897,1448.8234c-1.0529-3.1139-5.3942-6.2761-8.6164-6.2761-2.3768,0-2.7234-.4026-2.7971-3.25-.072-2.7797.092-3.0117 1.1324-1.6034 .6692.9056 2.8536,2.3305 4.8542,3.1665 4.0637,1.6979 7.1615,5.6535 6.5688,8.3877-.3364,1.5525-.493,1.4943-1.1419-.4247z"/>
   <path d="m-2804.3734,1448.8584c-.9625-.2515-1.75-1.2464-1.75-2.2108 0-1.3807.6398-1.6596 3.0092-1.3118 1.655.2429 3.6603-.099 4.4561-.7593 2.389-1.9826 3.7135-.2313 1.9086,2.5234-1.5381,2.3474-3.5737,2.8169-7.6239,1.7585z"/>
   <path d="m-2805.3734,1441.9758c-3.5386-1.9198-3.6324-3.8664-.1441-2.9908 1.6269.4083 3.4622.093 4.8854-.8396 3.7307-2.4445 4.8443.067 1.5087,3.4023-2.3567,2.3568-2.657,2.3773-6.25.4281z"/>
   <path d="m-2782.6 1441.6c-0.8067-2.5417-8.349-7.0033-11.839-7.0033-2.1729 0-2.6621-0.4594-2.6621-2.5 0-2.5731 1.3673-3.3327 2.5512-1.4172 0.368 0.5955 2.6556 1.9342 5.0835 2.975 4.6585 1.9968 9.3653 6.3131 9.3653 8.5882 0 2.0695-1.7838 1.6107-2.499-0.6427z"/>
   <path d="m-2806.8734,1435.1878c-3.1576-1.5638-2.964-3.8574.2573-3.0489 1.5751.3953 3.4407.018 5.018-1.0158 2.1392-1.4017 2.5925-1.4319 3.0636-.2044 .6921,1.8036-2.5115,5.671-4.5611,5.5062-.8403-.067-2.5403-.6242-3.7778-1.2371z"/>
  </g>
  <g transform="matrix(.37451 .92722 -.92722 .37451 -705.26 4238.2)" fill="#0e0e0e">
   <path d="m-2888.7076,1452.1442c.3752-1.9997.1404-5.3461-.5327-7.5927-1.3362-4.46-.7328-5.9543 1.6169-4.0042 .8516.7068 1.7611,1.0723 2.0211.8122 1.005-1.0049 8.5364-35.5814 9.1214-41.8758 .5691-6.123.4409-6.7646-1.6441-8.2249-2.5621-1.7946-2.1103-4.7302.7202-4.6797 2.2465.04 5.2814,2.2969 5.2814,3.9272 0,.6812 1.3843,2.5317 3.0761,4.1121 3.1478,2.9404 3.1473,5.452-.0007,4.4528-1.5058-.4779-1.9994.6928-3.4609,8.2094-3.5072,18.0368-6.8108,31.554-8.8201,36.0883-1.1402,2.5731-2.3539,6.2534-2.6972,8.1784-.4801,2.6921-1.1698,3.5776-2.9881,3.8363-2.2072.3139-2.3195.099-1.6933-3.2394z"/>
   <path d="m-2871.0016,1390.2977c-1.1417-1.7875-2.6327-4.0159-3.3134-4.952-1.8023-2.4785-.2674-3.3287 2.608-1.4447 2.7206,1.7826 5.298,1.3213 5.7767-1.0338 .2515-1.2375.8035-1.1187 3.0569.6577 2.1652,1.707 2.75,3.0032 2.75,6.0954 0,4.1828-1.4059,5.3074-2.3104,1.8483-.7026-2.6868-5.3497-2.3744-4.8958.3291 .47,2.7989-1.4193,2.0271-3.672-1.5z"/>
   <path d="m-2858.1 1389.5c0-2.3801-0.9105-4.0739-3.5052-6.521-1.9279-1.8183-3.1536-3.5232-2.7238-3.7888 0.8589-0.5308 12.085 1.8813 12.996 2.7924 0.7374 0.7373-4.3004 9.9104-5.6986 10.376-0.6104 0.2035-1.0686-1.0224-1.0686-2.8591z"/>
  </g>
  <g transform="matrix(.98737 .15842 -.15842 .98737 -18.646 1188.8)" fill="#0e0e0e">
   <path d="m-2840.0467,1450.9584c-1.6922-1.4239-3.0767-3.2705-3.0767-4.1036 0-1.0532 1.0768-.5692 3.5348,1.5889 1.9441,1.707 3.9691,3.1036 4.5,3.1036 2.0328,0 .8349-3.5838-1.7877-5.3486-3.318-2.2328-9.7746-10.4573-8.8977-11.3342 .3445-.3444 2.4701,1.4683 4.7235,4.0283 3.6707,4.1701 6.9271,5.9909 6.9271,3.8732 0-.4297-2.7-3.4531-6-6.7187s-6-6.514-6-7.2187c0-1.84.1588-1.7444 5.3179,3.1989 5.1308,4.9161 8.8834,6.4275 11.1951,4.509 2.3519-1.9519 1.8082-2.6917-3.2432-4.4129-4.9594-1.6899-13.2698-8.8798-13.2698-11.4807 0-.9898 1.088-.4554 3.25,1.5963 6.2006,5.8843 14.8831,8.2625 17.7136,4.8519 1.802-2.1712.6033-3.2371-5.702-5.0701-7.5778-2.2029-12.1422-4.6385-15.6887-8.3717-3.8097-4.0102-2.6165-5.1596 1.6349-1.5749 1.8107,1.5268 4.7402,3.3828 6.5101,4.1245 3.9898,1.6719 14.4619,1.7686 16.0821.1484 2.6179-2.6179 1.0682-3.5336-8.05-4.7572-10.848-1.4556-14.6397-3.0142-18.7659-7.7137-4.233-4.8211-2.65-6.1634 2.1522-1.8249 5.2746,4.7653 7.5345,5.4958 17.0021,5.4958 7.0876,0 7.9698-.2012 7.674-1.75-.2738-1.4339-1.8079-1.8598-8.4927-2.3577-6.3499-.4731-9.1876-1.2108-12.8005-3.3282-4.4132-2.5863-6.4286-4.988-5.209-6.2076 .3065-.3065 2.2746.8066 4.3735,2.4736 4.4137,3.5052 9.4357,4.679 15.8828,3.7122 3.4666-.5198 4.4782-1.0718 4.2391-2.313-.2362-1.2267-2.3319-1.9186-8.4662-2.7951-8.4056-1.201-13.2898-3.6045-15.4225-7.5894-1.7744-3.3156-.2134-3.3122 3.5678.01 4.254,3.7351 6.4067,4.3632 13.5594,3.9566 7.086-.4028 8.019-2.8371 1.7376-4.5338-4.6162-1.2469-8.6561-3.7341-7.6688-4.7214 .3353-.3354 1.8264-.1472 3.3135.4182s4.1944,1.028 6.0162,1.028c4.1006,0 4.9728,1.0648 6.5526,7.9999 .6892,3.025 1.7077,6.752 2.2635,8.2821s.7429,3.0497.4158,3.3768 .062,1.8653.8654,3.4183 1.4601,4.1693 1.4601,5.8142 .45,3.2687 1,3.6087c1.4769.9127 1.2142,4.0773-.4534,5.4613-.7994.6634-2.1389,3.5643-2.9768,6.4464s-2.4338,6.0642-3.5466,7.0712-2.0232,2.704-2.0232,3.7714c0,2.1835-3.0182,7.7493-4.2022,7.7493-.424,0-1.429,1.575-2.2334,3.5-1.8167,4.3482-5.0356,4.6573-9.4877.9111z"/>
   <path d="m-2769.6563,1438.4944c-.3581-.5793-3.0846-2.1295-6.059-3.4449s-5.4081-2.8608-5.4081-3.4342-1.9125-2.2344-4.25-3.6911-5.5203-4.1624-7.0728-6.0126-3.4492-3.3639-4.2148-3.3639c-1.8025,0-3.6239-3.4155-2.8696-5.3812 .3221-.8393-.1052-2.5123-.9496-3.7177-.9249-1.3205-1.3178-3.2783-.9884-4.9251 .3012-1.5058.052-3.0389-.5541-3.4137s-1.1007-1.9138-1.1007-3.4213-.3987-3.1685-.886-3.691-1.1863-3.47-1.5533-6.5501c-.6389-5.3629-.5484-5.6754 2.1361-7.3794 1.5417-.9787 4.0407-2.9303 5.5532-4.337 4.5611-4.2421 3.4464.1057-1.3655,5.326-3.463,3.7569-3.8474,4.5676-2.4249,5.1134 2.2076.8471 11.2133-3.3915 13.5692-6.3866 1.0081-1.2816 2.1248-3.659 2.4815-5.2832s1.2964-2.9531 2.0882-2.9531c1.0637,0 1.2674.7182.7802,2.75-1.5769,6.5767-4.9069,10.3072-13.3787,14.9881-1.925,1.0636-3.5,2.5701-3.5,3.3479 0,2.3926 3.7597,2.0409 8.9682-.839 4.4389-2.4543 6.2162-4.3561 10.1645-10.8764 2.3343-3.8549 2.7101-.081.4215,4.2334-2.7748,5.2304-6.4148,8.5316-13.1968,11.9682-4.7068,2.3852-6.5272,5.4278-3.2474,5.4278 2.7062,0 13.3452-6.1581 15.9147-9.2118 1.3321-1.5831 2.9552-4.658 3.6069-6.8333 1.5439-5.1529 3.2909-5.1414 2.599.017-.8315,6.1993-4.2053,10.5321-12.5434,16.109-7.5195,5.0293-9.5478,8.0334-5.8985,8.7362 2.0999.4044 9.1978-3.0744 12.5678-6.1597 1.296-1.1865 3.6543-4.4074 5.2406-7.1574 2.2179-3.8449 2.8863-4.4728 2.8935-2.7178 .017,4.2039-2.7287,8.8992-8.883,15.1887-6.2996,6.438-7.2376,8.3815-4.5443,9.4151 3.7995,1.458 9.8708-4.0596 13.0954-11.901 1.0127-2.4626 2.1788-4.4791 2.5913-4.4812 2.7101-.014-2.387,12.4656-7.0609,17.2871-3.0433,3.1395-3.4183,3.9531-2.182,4.7347 .8211.5191 2.0227.9507 2.6703.9591 1.8191.024 5.1654-4.7735 7.0697-10.1352 .9473-2.6672 2.1168-4.8495 2.5989-4.8495 1.2404,0-.147,6.6328-2.5686,12.2805-1.1275,2.6292-1.7248,5.1042-1.3276,5.5 1.1478,1.1434 4.5431-3.7369 4.6205-6.6412 .039-1.4516.4099-3.5064.8251-4.5661 .6429-1.6412.8448-1.6924 1.3617-.3455 .7471,1.947-1.6229,12.5381-3.1466,14.0619-.6108.6107-1.1105,1.9534-1.1105,2.9837 0,3.0255 3.1902,1.6142 4.4115-1.9515 1.4483-4.2288 2.5894-5.217 2.5848-2.2385-.01,5.5421-6.3504,11.3889-8.5292,7.8634z"/>
   <path d="m-2807.4834,1425.2919c-3.4988-4.2771-4.1234-5.9836-6.6736-18.2347-3.1059-14.9209-4.5738-20.0257-6.6087-22.982-.7467-1.0848-1.3577-3.2296-1.3577-4.7661 0-2.2145-.7343-3.1439-3.5416-4.4826-3.3608-1.6026-3.7183-1.5936-7.0059.1769-4.0936,2.2045-5.9635,1.1927-2.5517-1.3808 1.9148-1.4443 3.6707-1.6954 9.1279-1.3049 5.009.3584 7.6005.063 10.0178-1.1433 4.1895-2.09 4.2819-2.0711 3.5781.733-.4084,1.6273.023,2.9169 1.3916,4.155 1.4835,1.3425 1.9841,3.0803 1.9852,6.8903 0,5.6909 1.9819,17.8828 4.4552,27.4277 .9537,3.6803 1.5096,9.0676 1.3376,12.9637l-.2942,6.6665-3.86-4.7187z"/>
   <path d="m-2840.6272,1379.9215c-.5521-.207-5.0157-.7132-9.9192-1.125-5.9823-.5024-9.0601-1.1855-9.3554-2.0764-.3416-1.0307.5349-1.1821 3.9192-.6768 2.3975.358 10.5448.7304 18.105.8276 12.8669.1655 15.3148.5943 12.6819,2.2215-1.195.7386-13.8582,1.4189-15.4315.8291z"/>
  </g>
  <path d="m-3009.4833,2098.3553c-1.1534-1.8663.5386-3.7949 2.9286-3.338 1.3113.2507 5.9012-.6972 10.1999-2.1063s10.2907-3.1715 13.3157-3.9165c3.025-.7449 5.5562-1.8887 5.625-2.5419s.1812-1.6375.25-2.1875c.2196-1.7567 1.8729-1.072 2.4147,1 .2877,1.1 1.1052,2 1.8167,2 1.0061,0 1.0269-.2667.094-1.2-1.627-1.627-1.5166-3.8.193-3.8 2.1544,0 2.6215-2.5343.9158-4.9695-1.1638-1.6616-1.2583-2.4811-.3864-3.353s1.7734-.3625 3.6883,2.0843c1.3938,1.781 3.1285,3.2381 3.8548,3.2381s1.5795.675 1.8961,1.5c.3934,1.0252-.057,1.5-1.4244,1.5-3.1281,0-3.6189,2.9719-.8433,5.1058 2.56,1.9681 1.995,2.2809-3.4568,1.913-1.8432-.1244-2.6236.1941-2.191.894 .3696.598 1.6954,1.0872 2.9462,1.0872 4.1813,0 3.6474,1.3048-1.645,4.0204-4.6688,2.3956-5.3851,2.5218-6.4973,1.1449-.6875-.8511-1.25-2.5951-1.25-3.8754 0-2.5681.5801-2.5876-11.4102.3834-3.2506.8055-8.8167,2.5585-12.369,3.8956-7.1913,2.7068-7.8598,2.8242-8.665,1.5214z" fill="#0e0e0e"/>
  <g transform="translate(-195.82 736)">
   <path d="m-2764.4 1356.5c-3.3516-3.475-4.7201-5.6671-4.5-7.2081 0.4285-3.0006 3.0879-3.315 4.3181-0.5105 1.3805 3.1474 7.5275 3.403 29.498 1.2263 16.572-1.6419 24.068-3.1069 21.25-4.1533-0.6875-0.2553-1.25-1.1016-1.25-1.8808 0-1.7843 1.7849-1.7545 5 0.083 1.375 0.786 4.1609 1.4451 6.191 1.4646s3.9813 0.5051 4.3361 1.0792c1.1097 1.7957-1.7191 4.1527-4.3747 3.645-1.3582-0.2596-4.8098 0.3332-7.6704 1.3174-3.0526 1.0502-12.798 2.4834-23.592 3.4695-22.533 2.0585-23.041 2.1527-22.678 4.199 0.563 3.1705-1.7832 2.1888-6.5289-2.7317z" fill="#0e0e0e"/>
  </g>
  <g transform="matrix(.70711 .70711 -.70711 .70711 -65.42 3122.5)" fill="#0e0e0e">
   <path d="m-2897.1234,1450.2473c0-.715.5625-1.8829 1.25-2.5953 1.0063-1.0428.8113-1.5931-1-2.822-2.5857-1.7544-2.9349-3.2827-.75-3.2827 3.1027,0 1.198-4.023-9.25-19.5375-12.9636-19.2499-18.9484-27.2307-21.407-28.5465-2.4374-1.3045-2.3252-3.3081.4036-7.2065 1.2357-1.7652 2.3682-3.4045 2.5167-3.6428s.7903.087 1.4262.7229c.8608.8607.8705,1.7833.038,3.6103-1.0021,2.1994-.535,3.2663 4.5005,10.2771 3.0903,4.3027 10.0947,14.573 15.5653,22.823s10.4551,15 11.0766,15c1.8699,0 2.5068,1.6939 1.5667,4.1665-.5097,1.3406-.515,3.3125-.013,4.6341 .4811,1.2654.6425,3.5154.3587,5-.4185,2.1891-1.0611,2.6994-3.3995,2.6994-1.6992,0-2.8834-.5339-2.8834-1.3z"/>
   <path d="m-2907.5 1435.5c-8.1278-8.779-15.17-19.024-20.229-29.428-2.4067-4.95-5.0485-9.8735-5.8706-10.941-1.6737-2.1736-2.0217-6.5589-0.5204-6.5589 0.5359 0 1.6443 1.2955 2.463 2.8788s2.2114 3.1562 3.0947 3.4951c1.0114 0.3881 1.3916 1.2914 1.0271 2.4399-0.7764 2.4463 7.1955 15.54 18.599 30.55 10.102 13.296 10.968 17.861 1.4357 7.5646z"/>
   <path d="m-2939.067,1384.6866c-2.0356-2.2854-2.0682-2.5501-.4974-4.0422 1.2586-1.1956 1.7972-1.2827 2.1442-.3467 .2549.6875 1.4108,1.25 2.5687,1.25h2.1052l-2.0645-1.9234c-1.4185-1.3215-1.9105-2.729-1.5723-4.4981 .2816-1.4736-.2089-3.6447-1.1471-5.0766-1.2041-1.8377-1.3013-2.5059-.3663-2.5172 1.0281-.012 1.0274-.1712 0-.8253-1.6017-1.0166-2.9359-11.1594-1.4678-11.1594 .5688,0 1.26,1.6875 1.5359,3.75 .7126,5.3278 3.7387,13.2442 5.0769,13.2818 .6223.018.258.6925-.8096,1.5-1.9068,1.4423-1.9043,1.4682.143,1.4682 1.1463,0 2.3541.7036 2.684,1.5634s1.0532,1.2833 1.607.941 1.0071.2818 1.0071,1.3869-.7875,2.468-1.75,3.0286c-.9712.5657-1.1937,1.0329-.5,1.0497s1.25.9066 1.25,1.9775c0,3.01-7.0531,2.4368-9.9436-.8082z"/>
   <path d="m-2950.1 1382.7c-3.5116-2.1234-6.5514-4.3605-6.7551-4.9715s2.224 0.4513 5.3947 2.3606 6.579 3.4715 7.5739 3.4715 1.8088 0.675 1.8088 1.5c0 2.1932-0.9564 1.9118-8.0223-2.3606z"/>
   <path d="m-2945.4326,1380.4735c-.2983-1.1408-1.4758-2.3183-2.6166-2.6166-2.434-.6365-2.6252-1.6069-.6411-3.2536 1.155-.9586 1.7595-.6913 3.115,1.3775 .9251,1.4118 2.0802,2.5669 2.5669,2.5669 1.7302,0 .8476-3.1282-1.5625-5.5383-2.3355-2.3355-2.3614-2.4936-.5657-3.4546 2.6531-1.4199 2.779-1.3499 3.5032,1.9476 .3786,1.7237 1.495,3.2232 2.6796,3.5992 1.9112.6066 1.8368.8443-1.2657,4.0453-3.8431,3.9651-4.4807,4.1274-5.2131,1.3266z"/>
   <path d="m-2959.4567,1375.8811c-.3667-.3667-.6667-1.1317-.6667-1.7 0-.6266.4658-.5676 1.1833.15 .6509.6508.9509,1.4158.6667,1.7s-.8167.2166-1.1833-.15z"/>
   <path d="m-2930.0015,1375.6276c-.7669-.4765-1.0454-1.3947-.6279-2.0702 .4126-.6676.7251-4.7679.6944-9.1118-.07-9.9071 1.5277-10.4271 1.9907-.6479 .4402,9.297-.2009,12.9833-2.0572,11.8299z"/>
   <path d="m-2953.8 1371.3c-5.7398-8.6983-5.0192-10.444 1.0258-2.4845 3.9848 5.2465 4.1901 5.7445 2.3643 5.7345-0.6875 0-2.213-1.4662-3.3901-3.25z"/>
   <path d="m-2948.4961,1365.8921c-.9132-1.9152-1.4014-3.9012-1.0849-4.4134s.1515-.9314-.3668-.9314-1.1609-1.1428-1.4279-2.5396c-.7288-3.8122 1.2726-2.4422 2.7622,1.8908 .715,2.0797 2.0177,4.5744 2.895,5.5438 1.9475,2.1519 1.9887,2.74.239,3.4114-.8406.3226-1.9873-.8032-3.0166-2.9616z"/>
   <path d="m-2958.5399,1360.9042c-.9528-2.4827.097-2.8218 1.3707-.4425 .6143,1.1478.6988,2.0856.188,2.0856s-1.212-.7394-1.5587-1.6431z"/>
   <path d="m-2952.1 1352c0-1.4513 0.4328-2.2915 1-1.941 0.55 0.34 1 1.4915 1 2.5591s-0.45 1.9409-1 1.9409-1-1.1515-1-2.559z"/>
   <path d="m-2940.1 1353c0-0.825 0.45-1.5 1-1.5s1 0.675 1 1.5-0.45 1.5-1 1.5-1-0.675-1-1.5z"/>
  </g>
  <g transform="matrix(.96511 .26183 -.26183 .96511 59.957 1507.8)" fill="#0e0e0e">
   <path d="m-2830.5838,1370.2c-2.4039-1.7578-.5458-3.0354 4.6021-3.1646 2.009-.05 5.5139-.9309 7.7887-1.9567 3.1659-1.4276 4.4113-1.5897 5.3099-.691 1.7545,1.7545-.7459,3.6978-7.1718,5.5739-6.6254,1.9343-8.162,1.9691-10.5289.2384z"/>
   <path d="m-2810.954,1368.0155c.3445-1.6943 1.0911-1.924 5.3654-1.6506 2.7308.1746 5.397.7414 5.9248,1.2596 .6013.5903-.7935.7018-3.7361.2984-3.2846-.4502-5.1852-.2373-6.3249.7086-1.4205,1.1789-1.578,1.1-1.2292-.616z"/>
   <path d="m-2830.9 1364.3c-2.0954-2.0954-1.3182-2.8 3.0886-2.8 2.3587 0 5.9255-0.8345 7.9262-1.8546s4.1864-1.5154 4.8572-1.1009c2.4015 1.4843 0.012 3.6684-5.7958 5.298-7.039 1.9751-8.4927 2.0411-10.076 0.4575z"/>
   <path d="m-2831.5 1358.9c-1.4981-1.4981-0.4723-2.3334 2.8654-2.3334 1.9427 0 5.056-0.6367 6.9185-1.4148 3.1916-1.3336 4.5494-1.1925 4.5494 0.4729 0 2.1427-12.589 5.0194-14.333 3.2753z"/>
   <path d="m-2828.6436,1331.5801c.3287-.532 1.9303-.7007 3.559-.375 2.1338.4268 2.9602.2081 2.9575-.7828-.01-2.2503-3.8542-7.875-5.3876-7.875-1.463,0-4.8926,8.3828-3.8544,9.421 .868.868 2.0534.6992 2.7255-.3882z"/>
   <path d="m-2815.1342,1322.0603c1.9205-2.314.4091-6.3749-2.6592-7.145-1.4518-.3643-3.3574-.2127-4.2348.3369-2.036,1.2756-2.6033,4.978-1.0495,6.8502 1.5623,1.8824 6.3674,1.857 7.9435-.042zm-17.9235,3.4519c3.3317-1.7831 1.9742-7.8246-2.0657-9.1937-2.4034-.8145-5.6747.8769-6.2968,3.2556-.3948,1.5098.1715,2.9388 1.8161,4.5835 2.6541,2.6541 3.71,2.8726 6.5464,1.3546zm-1.8157,25.5555c-1.2375-.8986-2.25-2.0996-2.25-2.6689 0-1.3395-3.5153-5.9777-8.25-10.8853-3.6566-3.7901-4.6368-6.3-2.8837-7.3836 .4765-.2944 1.6713.354 2.655,1.441s2.3916,1.9764 3.1286,1.9764 2.2917,2.025 3.4551,4.5c1.9902,4.234 3.895,5.8858 3.895,3.3776 0-.7755.4636-.7377 1.5.1224s1.5.898 1.5.1225c0-1.8164 2.8113-1.2836 3.3107.6275 .4355,1.6667.4628,1.6667.5733,0 .1308-1.9738 2.1076-2.4375 2.1313-.5 .011.8741.2868.8212.9178-.1759 1.0585-1.6726 5.0669-2.5173 5.0669-1.0678 0,2.4519 2.956.657 3.968-2.4093 .7497-2.2717 1.9295-3.6054 3.5487-4.0118 1.3341-.3348 2.8822-1.462 3.4403-2.5048 .9432-1.7624.7867-1.8226-2.2212-.8548-5.0965,1.6398-6.1542,2.3309-6.7131,4.3859-.2964,1.0901-1.3884,1.9148-2.5227,1.9053-1.1-.01-2.3375.4332-2.75.9832-.4704.6272-1.1171.4408-1.7347-.5-.6585-1.003-.9898-1.0858-1-.25-.024,1.9376-2.0005,1.4738-2.1313-.5-.1105-1.6666-.1378-1.6666-.5733,0-.2516.9625-.7122,1.75-1.0238,1.75s-1.1642-.7875-1.8949-1.75c-1.2651-1.6666-1.3299-1.6666-1.3602,0-.039,2.1539-.7178,2.2069-2.7126.2121-.9171-.917-1.3427-2.5586-1.0545-4.0666 .4636-2.4252.3291-2.5026-3.2849-1.892-3.1964.54-4.012.2887-5.374-1.6559-2.1793-3.1113-2.018-6.2351.5524-10.7012 1.6091-2.7959 1.9663-4.4999 1.4041-6.6981l-.7541-2.9483-1.511,3.75c-.8311,2.0625-1.8605,3.75-2.2875,3.75-1.0522,0-1.9816-3.7433-1.9863-8 0-3.7597 4.9192-15.3026 5.6677-13.2878 .5356,1.4417 5.8205,4.7594 9.2336,5.7967 2.0512.6233 1.8587.2399-1.25-2.4896-7.4523-6.5432-2.7445-11.6387 10.0032-10.827 5.005.3187 7.091,1.0073 10.4733,3.4575 6.7058,4.8576 8.1102,8.2895 7.4169,18.1238-.4661,6.6107-.2626,8.763 1.0126,10.7093 1.0764,1.6427 1.3786,3.4259.9282,5.4765-.4221,1.9221-.2707,3.0406.4116,3.0406 2.2705,0 .9224,3.8969-2.8182,8.1464-2.1437,2.4354-4.5811,6.0638-5.4164,8.0631-2.0196,4.8334-5.4095,6.8726-12.4002,7.4592-4.355.3655-6.3421.081-8.0357-1.1483z"/>
  </g>
  <g transform="matrix(.70711 .70711 -.70711 .70711 -37.011 3042.8)" fill="#0e0e0e">
   <path d="m-2709.6234,1342.4911c-1.1-.4417-3.7356-.8348-5.857-.8735-2.9123-.053-3.7229-.4197-3.3095-1.497 .3351-.8733-.8838-2.4975-3.143-4.1878-4.9687-3.7176-20.7958-17.2214-30.6608-26.1601-6.5735-5.9564-8.4816-7.18-10.5291-6.7518-2.2092.462-6.1975-.8771-4.9716-1.6692 2.8669-1.8525 7.5237-3.8044 9.0768-3.8044 1.1047,0 2.3189.9869 2.8129,2.2862 1.0478,2.7559 9.497,10.7554 27.0682,25.6274 12.4833,10.5657 17.0131,13.0855 17.0131,9.464 0-1.3288.2715-1.3971 1.5-.3776 .825.6847 1.5,1.8648 1.5,2.6225 0,1.6569 2.1662,1.8114 3.7129.2647 1.4533-1.4534 3.2871-.2747 3.2871,2.1128 0,2.956-3.7776,4.4387-7.5,2.9438z"/>
   <path d="m-2722.6 1324.5c-10.982-11.135-28.11-24.82-30.337-24.238-1.1756 0.3075-2.1454-0.3906-2.9275-2.1069-0.6432-1.4117-1.8541-2.5668-2.6909-2.5668-0.8713 0-1.5214-0.8834-1.5214-2.0673 0-1.6858 0.4153-1.9376 2.25-1.3638 1.2375 0.3869 3.15 1.5829 4.25 2.6576s6.2216 4.6726 11.381 7.9952c9.0696 5.8403 21.066 16.804 27.953 25.546 2.8313 3.5942 3.054 4.2323 1.4766 4.2323-1.0217 0-5.447-3.6395-9.8341-8.0879z"/>
   <path d="m-2772.5084,1296.0825c-.8883-1.3556-1.6219-3.0431-1.6303-3.75-.011-.9171-.2819-.8637-.9462.1868-.7975,1.261-1.0256,1.2251-1.5917-.25-.3634-.9471-1.1751-1.7288-1.8038-1.7373-2.4933-.033-3.8962-1.7097-2.9083-3.475 .871-1.5565 1.0288-1.5684 1.5849-.1191 .3426.8927 1.7449,1.6094 3.149,1.6094 1.3923,0 2.5314.4079 2.5314.9064s.8379.6873 1.8621.4195c1.1173-.2922 2.1047.1452 2.4686,1.0936 .7701,2.0069 2.6693,2.0642 2.6693.081 0-.825-.45-1.5-1-1.5-1.634,0-1.1356-2.734.6213-3.4082 1.0067-.3863 2.4533.2757 3.8163,1.7463 2.8336,3.0576 2.4597,9.6619-.547,9.6619-1.0398,0-1.8906-.5198-1.8906-1.155 0-.6911-.7346-.4902-1.8287.5-2.3815,2.1552-2.6441,2.1085-4.5563-.8098z"/>
   <path d="m-2780.1 1296.3c0-0.6977 1.3266-1.297 3-1.3564 1.9093-0.068 2.9977 0.386 2.9977 1.25 0 0.8405-1.1411 1.3564-3 1.3564-1.7346 0-2.999-0.5272-2.9977-1.25z"/>
   <path d="m-2789.1234,1295.8265c-4.4612-.8003-4.9314-2.6064-.5-1.9204 2.2.3406 5.0125.6242 6.25.6302s2.25.461 2.25,1.011c0,1.0025-3.322,1.1184-8,.2792z"/>
   <path d="m-2785.8734,1287.1217c-1.2375-.5767-2.25-1.4185-2.25-1.8705s-.4464-.546-.9921-.2087-1.7831.1524-2.75-.4106c-1.5479-.9014-1.4677-1.0274.6711-1.0541 2.9199-.037 9.071,2.0733 9.071,3.1114 0,1.332-1.4588,1.5003-3.75.4325z"/>
   <path d="m-2773.7907,1286.7115c-.3018-1.1539-1.3577-2.3547-2.3466-2.6686s-3.8653-2.638-6.3921-5.1647-4.594-4.294-4.594-3.9272-.9559.1551-2.1243-.4702-3.2081-1.2558-4.5327-1.4012-2.6938-.5497-3.0424-.8983c-1.4749-1.4749.7122-1.5212 6.0597-.1283 6.3931,1.6652 11.9512,5.2401 11.1982,7.2025-.2726.7105-.097,1.2918.3895,1.2918s1.0583-.519 1.2698-1.1534c.2276-.6827 1.4672-.071 3.0379,1.5 1.4594,1.4594 3.433,2.6534 4.3859,2.6534 1.4169,0 1.2434-.5106-.9522-2.8023-2.0853-2.1765-2.4174-3.0697-1.4871-4 1.6091-1.6091 2.7977-1.5115 2.7977.2298 0,.785 1.1313,2.3173 2.514,3.4049l2.5139,1.9775-4.0733,3.2261c-3.9173,3.1026-4.0943,3.1458-4.6219,1.1282z"/>
   <path d="m-2796.1234,1284.5473c-1.2819-.8284-1.2456-.9716.25-.9846 .9625-.01 1.75.4346 1.75.9846 0,1.2197-.1128,1.2197-2,0z"/>
   <path d="m-2765.1 1280.3c-0.6984-2.3375-2.1287-5.9375-3.1786-8s-1.461-3.75-0.9136-3.75c0.9365 0 2.7897 3.5525 6.3907 12.25 1.2121 2.9278 1.2695 3.75 0.2619 3.75-0.7099 0-1.8621-1.9125-2.5604-4.25z"/>
   <path d="m-2778.9 1271.9c-4.3029-4.3626-4.9447-5.3812-3.3908-5.3812 1.5576 0 10.162 8.1576 9.586 9.0887-0.861 1.3931-1.6016 0.9499-6.1952-3.7075z"/>
   <path d="m-2786.4567,1266.8807c-1.2147-1.2147-.691-2.2799.8333-1.695 .825.3166 1.5.9775 1.5,1.4686 0,1.0484-1.3776,1.1821-2.3333.2264z"/>
   <path d="m-2771.6234,1266.5473c-.3399-.55-.1415-1 .441-1s1.059.45 1.059,1-.1984,1-.441,1-.7191-.45-1.059-1z"/>
  </g>
 </g>
</svg>
