<svg xmlns="http://www.w3.org/2000/svg" viewBox="99.99 238.52 276.8 247.93">  <path transform="matrix(1.0031 0 0 .77745 -6.4088 93.459)" d="m378.48 427.33c0 40.628-60.228 73.601-134.44 73.601s-134.44-32.973-134.44-73.601 60.228-73.601 134.44-73.601 134.44 32.973 134.44 73.601z" fill="#008bff" fill-opacity=".82745" stroke="#008aff" stroke-miterlimit="40" stroke-width="7.0866"/>  <path d="m373.23 425.69c0 31.586-60.413 57.221-134.85 57.221s-134.85-25.635-134.85-57.221c10.967-33.207 10.587-107.79 69.007-130.53 36.124-15.219 61.857-63.359 116.42-51.709 23.09 12.266 46.672 45.229 64.725 61.87 16.728 21.628 15.015 99.827 19.551 120.37z" fill="#008bff" fill-opacity=".82745" stroke="#008aff" stroke-miterlimit="40" stroke-width="6.2581"/>  <path d="m318.34 369.91c-6.4427 0-11.656 14.543-11.656 32.438s5.2136 32.406 11.656 32.406 11.687-14.511 11.688-32.406-5.2448-32.437-11.688-32.438zm3.4062 4.5312c2.5085 1e-5 4.5312 6.3604 4.5312 14.219s-2.0228 14.25-4.5312 14.25-4.5625-6.3917-4.5625-14.25 2.054-14.219 4.5625-14.219z" fill="#003bff" fill-opacity=".82745" stroke="#005cff" stroke-miterlimit="40" stroke-width="7.0866"/>  <path d="m285.97 379.34c-6.4427 0-11.656 14.511-11.656 32.406s5.2136 32.438 11.656 32.438 11.687-14.543 11.688-32.438-5.2448-32.406-11.688-32.406zm4.125 5.5938c2.5085 1e-5 4.5312 6.3917 4.5312 14.25s-2.0228 14.219-4.5312 14.219-4.5625-6.3604-4.5625-14.219 2.054-14.25 4.5625-14.25z" fill="#003bff" fill-opacity=".82745" stroke="#005cff" stroke-miterlimit="40" stroke-width="7.0866"/>  <path d="m224.03 281.03c0.69018 19.742 29.057-4.6546 37.656-10.219 1.4439-17.85-28.661-0.19063-37.656 10.219zm-26.25 24.812c-0.74421-10.414-26.133 7.5266-51.586 28.734-28.075 29.496-28.609 71.316-31.608 97.527 2.2408 5.1124 20.182 23.113 38.721 27.196 21.587-17.41-0.56857-92.073 22.24-122.48 7.1528-10.894 21.189-10.951 23.014-31.539l-0.78125 0.5625z" fill="#00faff" fill-opacity=".82745" opacity=".3"/> </svg>